M48
;Layer_Color=9474304
;FILE_FORMAT=2:3
INCH,LZ
;TYPE=PLATED
T1F00S00C0.020
T2F00S00C0.035
T3F00S00C0.039
T4F00S00C0.059
T5F00S00C0.126
;TYPE=NON_PLATED
T6F00S00C0.035
%
T01
X02227Y00569
X02031Y00852
X01992Y01136
X0201Y01452
X01963Y0145
X02106Y0148
X02156Y01468
X02156Y01513
X02188Y01543
X02157Y01579
X02144Y01651
X02193Y01656
X02199Y01713
X02194Y01799
Y01866
X02019Y01802
X01967Y01919
X02066Y01651
X02107Y01626
X02157Y01421
X0231Y01466
X02313Y01373
X0231Y01316
X02328Y01571
X02323Y01732
X01827Y01711
X01858Y01626
X01863Y01556
X01858Y01502
X01855Y0145
X01857Y0137
X01911Y0135
X01898Y01586
X01732Y01559
X01637
Y01607
Y01492
X01677Y01461
X01711Y01433
X01577Y0138
X01488Y01365
X01514Y01324
X01421Y01364
X01364Y01346
X01203Y01368
X01202Y01268
X0096
X00967Y01219
X00958Y01338
X00957Y01444
X0096Y01667
X00958Y01718
X01118Y01732
X0115Y01769
X01153Y01619
X01205
X01152Y01565
X01546Y01561
X01476Y0168
X01466Y01731
X01469Y01777
X01606Y0182
X01684Y01918
X01744Y01226
X01733Y0118
X01713Y01068
X01715Y01002
X018
X01894Y01038
X01864Y01072
X01877Y00785
X01789Y0082
X01644Y00774
X01533Y00813
X01547Y00968
X01299Y00974
Y00915
Y00856
Y00797
Y00738
X0124
X01181
Y00797
X0124
X01122
Y00738
X01063
X01004
X00945
X00886
Y00797
Y00856
X00827
Y00915
X00886
Y00974
X00945
X01004
X01063
Y00915
Y00856
Y00797
X01004
X00945
X01122Y00856
Y00915
Y00974
X01181
X0124
X01423Y01122
X01369Y00625
X0105Y00627
X00827Y00974
X00768
Y00915
X00709
X0065
X00591
Y00856
Y00974
X0065
X00709
X00628Y01157
X0054Y01492
X00538Y01579
X0055Y01665
X00662Y01855
X01888Y00557
X00172Y01535
Y01614
X00061Y01575
X00629Y02172
X0107Y02121
X01391Y02063
X0152Y02082
X0153Y01952
X01575Y02369
Y02448
X01618Y02407
X0182Y02367
X0192
X01921Y0241
X01771Y02301
X01882Y0213
X01368Y02335
X01472Y02532
X0127Y0255
X02097Y02448
X02098Y02387
X0212Y02329
X0224Y02352
T02
X02041Y01
X02141
X02241
X02341
X02441
Y0124
Y0134
Y0144
Y0154
Y0164
Y0174
Y0192
X00305Y01675
Y01575
Y01475
X0092Y0244
X0102Y02441
X0112
X0122
X02441Y0222
Y0212
Y0202
T03
X0232Y02157
T04
X01977Y00423
Y00523
T05
X02441Y00709
X00709
Y02441
X02441
T06
X01599Y00199
X01772
M30
