%FSLAX23Y23*%
%MOIN*%
G70*
G01*
G75*
G04 Layer_Physical_Order=3*
G04 Layer_Color=16440176*
%ADD10C,0.089*%
%ADD11R,0.031X0.039*%
%ADD12R,0.012X0.059*%
%ADD13R,0.059X0.012*%
%ADD14R,0.043X0.039*%
%ADD15R,0.039X0.043*%
%ADD16R,0.087X0.043*%
%ADD17R,0.039X0.039*%
%ADD18R,0.043X0.087*%
%ADD19C,0.047*%
%ADD20R,0.079X0.098*%
%ADD21R,0.098X0.055*%
%ADD22R,0.118X0.055*%
%ADD23R,0.020X0.098*%
%ADD24R,0.039X0.024*%
%ADD25R,0.039X0.020*%
%ADD26R,0.051X0.059*%
%ADD27R,0.094X0.102*%
%ADD28R,0.079X0.020*%
%ADD29R,0.217X0.079*%
%ADD30R,0.059X0.051*%
%ADD31R,0.134X0.069*%
%ADD32R,0.041X0.069*%
%ADD33R,0.041X0.069*%
%ADD34R,0.047X0.024*%
%ADD35R,0.106X0.063*%
%ADD36R,0.079X0.114*%
%ADD37C,0.020*%
%ADD38C,0.012*%
%ADD39C,0.039*%
%ADD40C,0.008*%
%ADD41R,2.402X0.089*%
%ADD42R,0.089X2.411*%
%ADD43R,0.089X1.191*%
%ADD44C,0.098*%
%ADD45R,0.059X0.059*%
%ADD46C,0.059*%
%ADD47C,0.031*%
%ADD48C,0.039*%
%ADD49C,0.276*%
%ADD50C,0.035*%
G36*
X2677Y2474D02*
Y675D01*
X2514Y512D01*
X2029D01*
X2025Y516D01*
X2026Y523D01*
X2025Y536D01*
X2020Y548D01*
X2012Y558D01*
X2002Y566D01*
X1990Y571D01*
X1977Y573D01*
X1964Y571D01*
X1952Y566D01*
X1942Y558D01*
X1934Y548D01*
X1929Y536D01*
X1927Y523D01*
X1928Y516D01*
X1925Y512D01*
X636D01*
X472Y675D01*
Y2474D01*
X472Y2474D01*
X472D01*
X472Y2474D01*
X636Y2638D01*
X2514D01*
X2677Y2474D01*
D02*
G37*
%LPC*%
G36*
X1488Y1391D02*
X1478Y1389D01*
X1470Y1383D01*
X1464Y1375D01*
X1462Y1365D01*
X1464Y1355D01*
X1470Y1347D01*
X1478Y1341D01*
X1488Y1339D01*
X1490Y1334D01*
X1490Y1334D01*
X1488Y1324D01*
X1490Y1314D01*
X1495Y1305D01*
X1504Y1300D01*
X1514Y1298D01*
X1524Y1300D01*
X1532Y1305D01*
X1538Y1314D01*
X1540Y1324D01*
X1538Y1334D01*
X1532Y1342D01*
X1524Y1348D01*
X1514Y1350D01*
X1511Y1354D01*
X1512Y1355D01*
X1514Y1365D01*
X1512Y1375D01*
X1507Y1383D01*
X1498Y1389D01*
X1488Y1391D01*
D02*
G37*
G36*
X1911Y1376D02*
X1901Y1374D01*
X1893Y1369D01*
X1887Y1360D01*
X1885Y1350D01*
X1887Y1340D01*
X1893Y1332D01*
X1901Y1326D01*
X1911Y1324D01*
X1921Y1326D01*
X1930Y1332D01*
X1936Y1340D01*
X1938Y1350D01*
X1936Y1360D01*
X1930Y1369D01*
X1921Y1374D01*
X1911Y1376D01*
D02*
G37*
G36*
X1203Y1394D02*
X1193Y1392D01*
X1185Y1386D01*
X1179Y1378D01*
X1177Y1368D01*
X1179Y1358D01*
X1185Y1350D01*
X1193Y1344D01*
X1203Y1342D01*
X1213Y1344D01*
X1222Y1350D01*
X1227Y1358D01*
X1229Y1368D01*
X1227Y1378D01*
X1222Y1386D01*
X1213Y1392D01*
X1203Y1394D01*
D02*
G37*
G36*
X2310Y1342D02*
X2300Y1340D01*
X2292Y1334D01*
X2286Y1326D01*
X2284Y1316D01*
X2286Y1306D01*
X2292Y1297D01*
X2300Y1292D01*
X2310Y1290D01*
X2320Y1292D01*
X2328Y1297D01*
X2334Y1306D01*
X2336Y1316D01*
X2334Y1326D01*
X2328Y1334D01*
X2320Y1340D01*
X2310Y1342D01*
D02*
G37*
G36*
X2490Y1535D02*
X2392D01*
X2393Y1527D01*
X2398Y1515D01*
X2406Y1505D01*
X2416Y1497D01*
X2427Y1492D01*
Y1487D01*
X2416Y1483D01*
X2406Y1475D01*
X2398Y1465D01*
X2393Y1453D01*
X2391Y1440D01*
X2393Y1427D01*
X2398Y1415D01*
X2406Y1405D01*
X2416Y1397D01*
X2427Y1393D01*
Y1388D01*
X2416Y1383D01*
X2406Y1375D01*
X2398Y1365D01*
X2393Y1353D01*
X2391Y1340D01*
X2393Y1327D01*
X2398Y1315D01*
X2406Y1305D01*
X2416Y1297D01*
X2427Y1293D01*
Y1288D01*
X2416Y1283D01*
X2406Y1275D01*
X2398Y1265D01*
X2393Y1253D01*
X2391Y1240D01*
X2393Y1227D01*
X2398Y1215D01*
X2406Y1205D01*
X2416Y1197D01*
X2428Y1192D01*
X2441Y1190D01*
X2454Y1192D01*
X2466Y1197D01*
X2476Y1205D01*
X2484Y1215D01*
X2489Y1227D01*
X2491Y1240D01*
X2489Y1253D01*
X2484Y1265D01*
X2476Y1275D01*
X2466Y1283D01*
X2455Y1288D01*
Y1293D01*
X2466Y1297D01*
X2476Y1305D01*
X2484Y1315D01*
X2489Y1327D01*
X2491Y1340D01*
X2489Y1353D01*
X2484Y1365D01*
X2476Y1375D01*
X2466Y1383D01*
X2455Y1388D01*
Y1393D01*
X2466Y1397D01*
X2476Y1405D01*
X2484Y1415D01*
X2489Y1427D01*
X2491Y1440D01*
X2489Y1453D01*
X2484Y1465D01*
X2476Y1475D01*
X2466Y1483D01*
X2455Y1487D01*
Y1492D01*
X2466Y1497D01*
X2476Y1505D01*
X2484Y1515D01*
X2489Y1527D01*
X2490Y1535D01*
D02*
G37*
G36*
X960Y1294D02*
X950Y1292D01*
X941Y1286D01*
X936Y1278D01*
X934Y1268D01*
X936Y1258D01*
X941Y1250D01*
X950Y1244D01*
X950Y1244D01*
X951Y1239D01*
X948Y1237D01*
X942Y1228D01*
X940Y1219D01*
X942Y1209D01*
X948Y1200D01*
X957Y1194D01*
X967Y1192D01*
X977Y1194D01*
X985Y1200D01*
X991Y1209D01*
X993Y1219D01*
X991Y1228D01*
X985Y1237D01*
X977Y1243D01*
X976Y1243D01*
X975Y1248D01*
X978Y1250D01*
X984Y1258D01*
X986Y1268D01*
X984Y1278D01*
X978Y1286D01*
X970Y1292D01*
X960Y1294D01*
D02*
G37*
G36*
X1202D02*
X1192Y1292D01*
X1184Y1286D01*
X1178Y1278D01*
X1176Y1268D01*
X1178Y1258D01*
X1184Y1250D01*
X1192Y1244D01*
X1202Y1242D01*
X1212Y1244D01*
X1221Y1250D01*
X1227Y1258D01*
X1229Y1268D01*
X1227Y1278D01*
X1221Y1286D01*
X1212Y1292D01*
X1202Y1294D01*
D02*
G37*
G36*
X2010Y1478D02*
X2000Y1476D01*
X1991Y1470D01*
X1988Y1465D01*
X1983D01*
X1981Y1468D01*
X1973Y1474D01*
X1963Y1476D01*
X1953Y1474D01*
X1944Y1468D01*
X1938Y1460D01*
X1937Y1450D01*
X1938Y1440D01*
X1944Y1431D01*
X1953Y1426D01*
X1963Y1424D01*
X1973Y1426D01*
X1981Y1431D01*
X1984Y1436D01*
X1989D01*
X1991Y1433D01*
X2000Y1428D01*
X2010Y1426D01*
X2020Y1428D01*
X2028Y1433D01*
X2034Y1442D01*
X2036Y1452D01*
X2034Y1462D01*
X2028Y1470D01*
X2020Y1476D01*
X2010Y1478D01*
D02*
G37*
G36*
X1546Y1587D02*
X1536Y1585D01*
X1528Y1579D01*
X1522Y1571D01*
X1520Y1561D01*
X1522Y1551D01*
X1528Y1543D01*
X1536Y1537D01*
X1546Y1535D01*
X1556Y1537D01*
X1565Y1543D01*
X1570Y1551D01*
X1572Y1561D01*
X1570Y1571D01*
X1565Y1579D01*
X1556Y1585D01*
X1546Y1587D01*
D02*
G37*
G36*
X2157Y1605D02*
X2147Y1603D01*
X2139Y1597D01*
X2133Y1589D01*
X2131Y1579D01*
X2133Y1569D01*
X2139Y1560D01*
X2147Y1555D01*
X2157Y1553D01*
X2160Y1553D01*
X2164Y1550D01*
X2162Y1543D01*
X2163Y1542D01*
X2159Y1538D01*
X2156Y1539D01*
X2146Y1537D01*
X2137Y1531D01*
X2131Y1523D01*
X2129Y1513D01*
X2131Y1503D01*
X2137Y1494D01*
X2140Y1492D01*
Y1487D01*
X2138Y1486D01*
X2136Y1484D01*
X2132Y1485D01*
X2130Y1490D01*
X2125Y1499D01*
X2116Y1504D01*
X2106Y1506D01*
X2096Y1504D01*
X2088Y1499D01*
X2082Y1490D01*
X2080Y1480D01*
X2082Y1470D01*
X2088Y1462D01*
X2096Y1456D01*
X2106Y1454D01*
X2116Y1456D01*
X2125Y1462D01*
X2126Y1464D01*
X2131Y1463D01*
X2132Y1458D01*
X2138Y1449D01*
X2142Y1447D01*
Y1442D01*
X2139Y1440D01*
X2133Y1431D01*
X2131Y1421D01*
X2133Y1411D01*
X2139Y1403D01*
X2147Y1397D01*
X2157Y1395D01*
X2167Y1397D01*
X2176Y1403D01*
X2182Y1411D01*
X2184Y1421D01*
X2182Y1431D01*
X2176Y1440D01*
X2172Y1442D01*
Y1447D01*
X2175Y1449D01*
X2181Y1458D01*
X2183Y1468D01*
X2181Y1478D01*
X2175Y1486D01*
X2172Y1488D01*
Y1493D01*
X2174Y1494D01*
X2180Y1503D01*
X2182Y1513D01*
X2181Y1515D01*
X2185Y1518D01*
X2188Y1517D01*
X2198Y1519D01*
X2207Y1525D01*
X2213Y1533D01*
X2215Y1543D01*
X2213Y1553D01*
X2207Y1562D01*
X2198Y1568D01*
X2188Y1570D01*
X2186Y1569D01*
X2182Y1573D01*
X2184Y1579D01*
X2182Y1589D01*
X2176Y1597D01*
X2167Y1603D01*
X2157Y1605D01*
D02*
G37*
G36*
X2310Y1492D02*
X2300Y1490D01*
X2292Y1484D01*
X2286Y1476D01*
X2284Y1466D01*
X2286Y1456D01*
X2292Y1447D01*
X2300Y1441D01*
X2310Y1439D01*
X2320Y1441D01*
X2328Y1447D01*
X2334Y1456D01*
X2336Y1466D01*
X2334Y1476D01*
X2328Y1484D01*
X2320Y1490D01*
X2310Y1492D01*
D02*
G37*
G36*
X1857Y1396D02*
X1847Y1394D01*
X1839Y1389D01*
X1833Y1380D01*
X1831Y1370D01*
X1833Y1360D01*
X1839Y1352D01*
X1847Y1346D01*
X1857Y1344D01*
X1867Y1346D01*
X1876Y1352D01*
X1881Y1360D01*
X1883Y1370D01*
X1881Y1380D01*
X1876Y1389D01*
X1867Y1394D01*
X1857Y1396D01*
D02*
G37*
G36*
X2313Y1399D02*
X2303Y1397D01*
X2295Y1391D01*
X2289Y1383D01*
X2287Y1373D01*
X2289Y1363D01*
X2295Y1355D01*
X2303Y1349D01*
X2313Y1347D01*
X2323Y1349D01*
X2331Y1355D01*
X2337Y1363D01*
X2339Y1373D01*
X2337Y1383D01*
X2331Y1391D01*
X2323Y1397D01*
X2313Y1399D01*
D02*
G37*
G36*
X1577Y1406D02*
X1567Y1404D01*
X1558Y1398D01*
X1553Y1390D01*
X1551Y1380D01*
X1553Y1370D01*
X1558Y1362D01*
X1567Y1356D01*
X1577Y1354D01*
X1587Y1356D01*
X1595Y1362D01*
X1601Y1370D01*
X1603Y1380D01*
X1601Y1390D01*
X1595Y1398D01*
X1587Y1404D01*
X1577Y1406D01*
D02*
G37*
G36*
X1733Y1206D02*
X1723Y1204D01*
X1715Y1198D01*
X1709Y1190D01*
X1707Y1180D01*
X1709Y1170D01*
X1715Y1162D01*
X1723Y1156D01*
X1733Y1154D01*
X1743Y1156D01*
X1752Y1162D01*
X1757Y1170D01*
X1759Y1180D01*
X1757Y1190D01*
X1752Y1198D01*
X1743Y1204D01*
X1733Y1206D01*
D02*
G37*
G36*
X1644Y800D02*
X1634Y798D01*
X1625Y792D01*
X1620Y784D01*
X1618Y774D01*
X1620Y764D01*
X1625Y755D01*
X1634Y750D01*
X1644Y748D01*
X1654Y750D01*
X1662Y755D01*
X1668Y764D01*
X1670Y774D01*
X1668Y784D01*
X1662Y792D01*
X1654Y798D01*
X1644Y800D01*
D02*
G37*
G36*
X1533Y840D02*
X1523Y838D01*
X1514Y832D01*
X1508Y823D01*
X1506Y813D01*
X1508Y803D01*
X1514Y795D01*
X1523Y789D01*
X1533Y787D01*
X1543Y789D01*
X1551Y795D01*
X1557Y803D01*
X1559Y813D01*
X1557Y823D01*
X1551Y832D01*
X1543Y838D01*
X1533Y840D01*
D02*
G37*
G36*
X1789Y846D02*
X1779Y844D01*
X1771Y838D01*
X1765Y830D01*
X1763Y820D01*
X1765Y810D01*
X1771Y801D01*
X1779Y796D01*
X1789Y794D01*
X1799Y796D01*
X1808Y801D01*
X1813Y810D01*
X1815Y820D01*
X1813Y830D01*
X1808Y838D01*
X1799Y844D01*
X1789Y846D01*
D02*
G37*
G36*
X1050Y653D02*
X1040Y651D01*
X1032Y645D01*
X1026Y637D01*
X1024Y627D01*
X1026Y617D01*
X1032Y609D01*
X1040Y603D01*
X1050Y601D01*
X1060Y603D01*
X1069Y609D01*
X1074Y617D01*
X1076Y627D01*
X1074Y637D01*
X1069Y645D01*
X1060Y651D01*
X1050Y653D01*
D02*
G37*
G36*
X1888Y583D02*
X1878Y581D01*
X1869Y576D01*
X1864Y567D01*
X1862Y557D01*
X1864Y547D01*
X1869Y539D01*
X1878Y533D01*
X1888Y531D01*
X1898Y533D01*
X1906Y539D01*
X1912Y547D01*
X1914Y557D01*
X1912Y567D01*
X1906Y576D01*
X1898Y581D01*
X1888Y583D01*
D02*
G37*
G36*
X709Y867D02*
X684Y865D01*
X660Y859D01*
X637Y849D01*
X616Y836D01*
X597Y820D01*
X581Y802D01*
X568Y780D01*
X558Y757D01*
X553Y733D01*
X551Y709D01*
X553Y684D01*
X558Y660D01*
X568Y637D01*
X581Y616D01*
X597Y597D01*
X616Y581D01*
X637Y568D01*
X660Y558D01*
X684Y553D01*
X709Y551D01*
X733Y553D01*
X757Y558D01*
X780Y568D01*
X802Y581D01*
X820Y597D01*
X836Y616D01*
X849Y637D01*
X859Y660D01*
X865Y684D01*
X867Y709D01*
X865Y733D01*
X859Y757D01*
X849Y780D01*
X836Y802D01*
X820Y820D01*
X802Y836D01*
X780Y849D01*
X757Y859D01*
X733Y865D01*
X709Y867D01*
D02*
G37*
G36*
X2441D02*
X2416Y865D01*
X2392Y859D01*
X2369Y849D01*
X2348Y836D01*
X2329Y820D01*
X2313Y802D01*
X2300Y780D01*
X2291Y757D01*
X2285Y733D01*
X2283Y709D01*
X2285Y684D01*
X2291Y660D01*
X2300Y637D01*
X2313Y616D01*
X2329Y597D01*
X2348Y581D01*
X2369Y568D01*
X2392Y558D01*
X2416Y553D01*
X2441Y551D01*
X2466Y553D01*
X2490Y558D01*
X2513Y568D01*
X2534Y581D01*
X2553Y597D01*
X2569Y616D01*
X2582Y637D01*
X2591Y660D01*
X2597Y684D01*
X2599Y709D01*
X2597Y733D01*
X2591Y757D01*
X2582Y780D01*
X2569Y802D01*
X2553Y820D01*
X2534Y836D01*
X2513Y849D01*
X2490Y859D01*
X2466Y865D01*
X2441Y867D01*
D02*
G37*
G36*
X2341Y1050D02*
X2328Y1048D01*
X2316Y1043D01*
X2306Y1035D01*
X2298Y1025D01*
X2293Y1014D01*
X2288D01*
X2284Y1025D01*
X2276Y1035D01*
X2266Y1043D01*
X2254Y1048D01*
X2241Y1050D01*
X2228Y1048D01*
X2216Y1043D01*
X2206Y1035D01*
X2198Y1025D01*
X2193Y1014D01*
X2188D01*
X2184Y1025D01*
X2176Y1035D01*
X2166Y1043D01*
X2154Y1048D01*
X2141Y1050D01*
X2128Y1048D01*
X2116Y1043D01*
X2106Y1035D01*
X2098Y1025D01*
X2093Y1014D01*
X2088D01*
X2084Y1025D01*
X2076Y1035D01*
X2066Y1043D01*
X2054Y1048D01*
X2041Y1050D01*
X2028Y1048D01*
X2016Y1043D01*
X2006Y1035D01*
X1998Y1025D01*
X1993Y1013D01*
X1991Y1000D01*
X1993Y987D01*
X1998Y975D01*
X2006Y965D01*
X2016Y957D01*
X2028Y952D01*
X2041Y950D01*
X2054Y952D01*
X2066Y957D01*
X2076Y965D01*
X2084Y975D01*
X2088Y986D01*
X2093D01*
X2098Y975D01*
X2106Y965D01*
X2116Y957D01*
X2128Y952D01*
X2141Y950D01*
X2154Y952D01*
X2166Y957D01*
X2176Y965D01*
X2184Y975D01*
X2188Y986D01*
X2193D01*
X2198Y975D01*
X2206Y965D01*
X2216Y957D01*
X2228Y952D01*
X2241Y950D01*
X2254Y952D01*
X2266Y957D01*
X2276Y965D01*
X2284Y975D01*
X2288Y986D01*
X2293D01*
X2298Y975D01*
X2306Y965D01*
X2316Y957D01*
X2328Y952D01*
X2341Y950D01*
X2354Y952D01*
X2366Y957D01*
X2376Y965D01*
X2384Y975D01*
X2387Y982D01*
X2392Y981D01*
Y951D01*
X2490D01*
Y1049D01*
X2392D01*
Y1019D01*
X2387Y1018D01*
X2384Y1025D01*
X2376Y1035D01*
X2366Y1043D01*
X2354Y1048D01*
X2341Y1050D01*
D02*
G37*
G36*
X1713Y1094D02*
X1703Y1092D01*
X1694Y1086D01*
X1688Y1078D01*
X1687Y1068D01*
X1688Y1058D01*
X1694Y1049D01*
X1703Y1044D01*
X1713Y1042D01*
X1723Y1044D01*
X1731Y1049D01*
X1737Y1058D01*
X1739Y1068D01*
X1737Y1078D01*
X1731Y1086D01*
X1723Y1092D01*
X1713Y1094D01*
D02*
G37*
G36*
X628Y1184D02*
X618Y1182D01*
X610Y1176D01*
X604Y1167D01*
X602Y1157D01*
X604Y1147D01*
X610Y1139D01*
X618Y1133D01*
X628Y1131D01*
X638Y1133D01*
X646Y1139D01*
X652Y1147D01*
X654Y1157D01*
X652Y1167D01*
X646Y1176D01*
X638Y1182D01*
X628Y1184D01*
D02*
G37*
G36*
X1864Y1098D02*
X1854Y1096D01*
X1846Y1090D01*
X1840Y1082D01*
X1838Y1072D01*
X1840Y1062D01*
X1846Y1053D01*
X1854Y1048D01*
X1864Y1046D01*
X1865Y1046D01*
X1868Y1042D01*
X1868Y1038D01*
X1870Y1028D01*
X1875Y1020D01*
X1884Y1014D01*
X1894Y1012D01*
X1904Y1014D01*
X1912Y1020D01*
X1918Y1028D01*
X1920Y1038D01*
X1918Y1048D01*
X1912Y1057D01*
X1904Y1062D01*
X1894Y1064D01*
X1893Y1064D01*
X1889Y1068D01*
X1890Y1072D01*
X1888Y1082D01*
X1883Y1090D01*
X1874Y1096D01*
X1864Y1098D01*
D02*
G37*
G36*
X2031Y878D02*
X2021Y876D01*
X2012Y871D01*
X2006Y862D01*
X2004Y852D01*
X2006Y842D01*
X2012Y834D01*
X2021Y828D01*
X2031Y826D01*
X2040Y828D01*
X2049Y834D01*
X2055Y842D01*
X2057Y852D01*
X2055Y862D01*
X2049Y871D01*
X2040Y876D01*
X2031Y878D01*
D02*
G37*
G36*
X1547Y994D02*
X1537Y992D01*
X1529Y986D01*
X1523Y978D01*
X1521Y968D01*
X1523Y958D01*
X1529Y949D01*
X1537Y943D01*
X1547Y941D01*
X1557Y943D01*
X1566Y949D01*
X1571Y958D01*
X1573Y968D01*
X1571Y978D01*
X1566Y986D01*
X1557Y992D01*
X1547Y994D01*
D02*
G37*
G36*
X1715Y1028D02*
X1705Y1026D01*
X1696Y1021D01*
X1690Y1012D01*
X1688Y1002D01*
X1690Y992D01*
X1696Y984D01*
X1705Y978D01*
X1715Y976D01*
X1725Y978D01*
X1733Y984D01*
X1739Y992D01*
X1741Y1002D01*
X1739Y1012D01*
X1733Y1021D01*
X1725Y1026D01*
X1715Y1028D01*
D02*
G37*
G36*
X2441Y2599D02*
X2416Y2597D01*
X2392Y2591D01*
X2369Y2582D01*
X2348Y2569D01*
X2329Y2553D01*
X2313Y2534D01*
X2300Y2513D01*
X2291Y2490D01*
X2285Y2466D01*
X2283Y2441D01*
X2285Y2416D01*
X2291Y2392D01*
X2300Y2369D01*
X2313Y2348D01*
X2329Y2329D01*
X2348Y2313D01*
X2369Y2300D01*
X2392Y2291D01*
X2416Y2285D01*
X2441Y2283D01*
X2466Y2285D01*
X2490Y2291D01*
X2513Y2300D01*
X2534Y2313D01*
X2553Y2329D01*
X2569Y2348D01*
X2582Y2369D01*
X2591Y2392D01*
X2597Y2416D01*
X2599Y2441D01*
X2597Y2466D01*
X2591Y2490D01*
X2582Y2513D01*
X2569Y2534D01*
X2553Y2553D01*
X2534Y2569D01*
X2513Y2582D01*
X2490Y2591D01*
X2466Y2597D01*
X2441Y2599D01*
D02*
G37*
G36*
X2120Y2355D02*
X2110Y2353D01*
X2102Y2347D01*
X2096Y2339D01*
X2094Y2329D01*
X2096Y2319D01*
X2102Y2310D01*
X2110Y2305D01*
X2120Y2303D01*
X2130Y2305D01*
X2139Y2310D01*
X2144Y2319D01*
X2146Y2329D01*
X2144Y2339D01*
X2139Y2347D01*
X2130Y2353D01*
X2120Y2355D01*
D02*
G37*
G36*
X1368Y2361D02*
X1358Y2359D01*
X1350Y2353D01*
X1344Y2345D01*
X1342Y2335D01*
X1344Y2325D01*
X1350Y2316D01*
X1358Y2311D01*
X1368Y2309D01*
X1378Y2311D01*
X1387Y2316D01*
X1392Y2325D01*
X1394Y2335D01*
X1392Y2345D01*
X1387Y2353D01*
X1378Y2359D01*
X1368Y2361D01*
D02*
G37*
G36*
X2490Y2269D02*
X2446D01*
Y2225D01*
X2490D01*
Y2269D01*
D02*
G37*
G36*
X1882Y2156D02*
X1872Y2154D01*
X1863Y2149D01*
X1858Y2140D01*
X1856Y2130D01*
X1858Y2120D01*
X1863Y2112D01*
X1872Y2106D01*
X1882Y2104D01*
X1892Y2106D01*
X1900Y2112D01*
X1906Y2120D01*
X1908Y2130D01*
X1906Y2140D01*
X1900Y2149D01*
X1892Y2154D01*
X1882Y2156D01*
D02*
G37*
G36*
X629Y2198D02*
X619Y2196D01*
X610Y2191D01*
X605Y2182D01*
X603Y2172D01*
X605Y2162D01*
X610Y2154D01*
X619Y2148D01*
X629Y2146D01*
X639Y2148D01*
X647Y2154D01*
X653Y2162D01*
X655Y2172D01*
X653Y2182D01*
X647Y2191D01*
X639Y2196D01*
X629Y2198D01*
D02*
G37*
G36*
X2436Y2269D02*
X2392D01*
Y2225D01*
X2436D01*
Y2269D01*
D02*
G37*
G36*
X1820Y2393D02*
X1810Y2391D01*
X1802Y2386D01*
X1796Y2377D01*
X1794Y2367D01*
X1796Y2357D01*
X1802Y2349D01*
X1810Y2343D01*
X1820Y2341D01*
X1830Y2343D01*
X1838Y2349D01*
X1844Y2357D01*
X1846Y2367D01*
X1844Y2377D01*
X1838Y2386D01*
X1830Y2391D01*
X1820Y2393D01*
D02*
G37*
G36*
X709Y2599D02*
X684Y2597D01*
X660Y2591D01*
X637Y2582D01*
X616Y2569D01*
X597Y2553D01*
X581Y2534D01*
X568Y2513D01*
X558Y2490D01*
X553Y2466D01*
X551Y2441D01*
X553Y2416D01*
X558Y2392D01*
X568Y2369D01*
X581Y2348D01*
X597Y2329D01*
X616Y2313D01*
X637Y2300D01*
X660Y2291D01*
X684Y2285D01*
X709Y2283D01*
X733Y2285D01*
X757Y2291D01*
X780Y2300D01*
X802Y2313D01*
X820Y2329D01*
X836Y2348D01*
X849Y2369D01*
X854Y2380D01*
X859Y2380D01*
Y2379D01*
X897D01*
X1240Y2037D01*
Y1569D01*
X1177D01*
X1176Y1575D01*
X1170Y1583D01*
X1162Y1589D01*
X1160Y1589D01*
Y1594D01*
X1163Y1595D01*
X1171Y1601D01*
X1177Y1608D01*
X1182D01*
X1187Y1601D01*
X1195Y1595D01*
X1205Y1593D01*
X1215Y1595D01*
X1224Y1601D01*
X1229Y1609D01*
X1231Y1619D01*
X1229Y1629D01*
X1224Y1638D01*
X1215Y1643D01*
X1205Y1645D01*
X1195Y1643D01*
X1187Y1638D01*
X1182Y1630D01*
X1177D01*
X1171Y1638D01*
X1163Y1643D01*
X1153Y1645D01*
X1143Y1643D01*
X1135Y1638D01*
X1129Y1629D01*
X1127Y1619D01*
X1129Y1609D01*
X1135Y1601D01*
X1143Y1595D01*
X1145Y1595D01*
Y1590D01*
X1142Y1589D01*
X1133Y1583D01*
X1127Y1575D01*
X1126Y1569D01*
X620D01*
X574Y1615D01*
X564Y1623D01*
X551Y1628D01*
X538Y1630D01*
X525Y1628D01*
X512Y1623D01*
X501Y1615D01*
X493Y1604D01*
X488Y1592D01*
X486Y1579D01*
X488Y1565D01*
X493Y1553D01*
X501Y1542D01*
X526Y1518D01*
X525Y1513D01*
X521Y1511D01*
X516Y1502D01*
X514Y1492D01*
X516Y1482D01*
X521Y1474D01*
X530Y1468D01*
X540Y1466D01*
X550Y1468D01*
X558Y1474D01*
X561Y1478D01*
X566Y1479D01*
X573Y1473D01*
X580Y1470D01*
X585Y1468D01*
X599Y1466D01*
X599Y1466D01*
X936D01*
X938Y1462D01*
X933Y1454D01*
X931Y1444D01*
X933Y1434D01*
X939Y1425D01*
X947Y1420D01*
X957Y1418D01*
X967Y1420D01*
X976Y1425D01*
X981Y1434D01*
X983Y1444D01*
X981Y1454D01*
X976Y1462D01*
X977Y1466D01*
X1240D01*
Y1275D01*
X1240Y1275D01*
X1241Y1261D01*
X1244Y1255D01*
X1247Y1249D01*
X1255Y1238D01*
X1317Y1175D01*
Y625D01*
X1319Y612D01*
X1324Y599D01*
X1333Y588D01*
X1343Y580D01*
X1356Y575D01*
X1369Y573D01*
X1382Y575D01*
X1395Y580D01*
X1406Y588D01*
X1414Y599D01*
X1419Y612D01*
X1421Y625D01*
Y1095D01*
X1423Y1096D01*
X1433Y1098D01*
X1441Y1104D01*
X1447Y1112D01*
X1449Y1122D01*
X1447Y1132D01*
X1441Y1141D01*
X1433Y1147D01*
X1423Y1148D01*
X1421Y1150D01*
Y1197D01*
X1419Y1210D01*
X1417Y1215D01*
X1414Y1223D01*
X1406Y1233D01*
X1406Y1233D01*
X1343Y1296D01*
Y1325D01*
X1347Y1327D01*
X1354Y1322D01*
X1364Y1320D01*
X1374Y1322D01*
X1383Y1328D01*
X1388Y1336D01*
X1390Y1346D01*
X1388Y1356D01*
X1383Y1365D01*
X1374Y1371D01*
X1364Y1373D01*
X1354Y1371D01*
X1347Y1366D01*
X1343Y1368D01*
Y1628D01*
X1476D01*
X1490Y1630D01*
X1502Y1635D01*
X1513Y1644D01*
X1521Y1654D01*
X1526Y1667D01*
X1528Y1680D01*
X1526Y1693D01*
X1521Y1706D01*
X1513Y1717D01*
X1502Y1725D01*
X1491Y1729D01*
X1492Y1731D01*
X1490Y1741D01*
X1484Y1749D01*
X1479Y1752D01*
X1479Y1752D01*
X1488Y1758D01*
X1494Y1767D01*
X1496Y1777D01*
X1494Y1787D01*
X1488Y1795D01*
X1479Y1801D01*
X1469Y1803D01*
X1460Y1801D01*
X1451Y1795D01*
X1445Y1787D01*
X1443Y1777D01*
X1445Y1767D01*
X1451Y1758D01*
X1452Y1757D01*
Y1752D01*
X1447Y1749D01*
X1441Y1741D01*
X1440Y1732D01*
X1343D01*
Y2058D01*
X1343Y2058D01*
X1341Y2071D01*
X1336Y2084D01*
X1328Y2095D01*
X1328Y2095D01*
X1032Y2390D01*
X1033Y2393D01*
X1045Y2398D01*
X1055Y2406D01*
X1063Y2416D01*
X1067Y2427D01*
X1072D01*
X1077Y2416D01*
X1085Y2406D01*
X1095Y2398D01*
X1107Y2393D01*
X1120Y2391D01*
X1133Y2393D01*
X1145Y2398D01*
X1155Y2406D01*
X1163Y2416D01*
X1168Y2427D01*
X1173D01*
X1177Y2416D01*
X1185Y2406D01*
X1195Y2398D01*
X1207Y2393D01*
X1220Y2391D01*
X1233Y2393D01*
X1245Y2398D01*
X1255Y2406D01*
X1263Y2416D01*
X1268Y2428D01*
X1270Y2441D01*
X1268Y2454D01*
X1263Y2466D01*
X1255Y2476D01*
X1245Y2484D01*
X1233Y2489D01*
X1220Y2491D01*
X1207Y2489D01*
X1195Y2484D01*
X1185Y2476D01*
X1177Y2466D01*
X1173Y2455D01*
X1168D01*
X1163Y2466D01*
X1155Y2476D01*
X1145Y2484D01*
X1133Y2489D01*
X1120Y2491D01*
X1107Y2489D01*
X1095Y2484D01*
X1085Y2476D01*
X1077Y2466D01*
X1072Y2455D01*
X1067D01*
X1063Y2466D01*
X1055Y2476D01*
X1045Y2484D01*
X1033Y2489D01*
X1020Y2491D01*
X1007Y2489D01*
X995Y2484D01*
X986Y2477D01*
X981Y2479D01*
Y2501D01*
X859D01*
D01*
Y2501D01*
X859D01*
Y2501D01*
Y2501D01*
X854D01*
X849Y2513D01*
X836Y2534D01*
X820Y2553D01*
X802Y2569D01*
X780Y2582D01*
X757Y2591D01*
X733Y2597D01*
X709Y2599D01*
D02*
G37*
G36*
X1472Y2559D02*
X1462Y2557D01*
X1454Y2551D01*
X1448Y2542D01*
X1446Y2532D01*
X1448Y2522D01*
X1454Y2514D01*
X1462Y2508D01*
X1472Y2506D01*
X1482Y2508D01*
X1491Y2514D01*
X1497Y2522D01*
X1499Y2532D01*
X1497Y2542D01*
X1491Y2551D01*
X1482Y2557D01*
X1472Y2559D01*
D02*
G37*
G36*
X1270Y2576D02*
X1260Y2574D01*
X1251Y2569D01*
X1246Y2560D01*
X1244Y2550D01*
X1246Y2540D01*
X1251Y2532D01*
X1260Y2526D01*
X1270Y2524D01*
X1280Y2526D01*
X1288Y2532D01*
X1294Y2540D01*
X1296Y2550D01*
X1294Y2560D01*
X1288Y2569D01*
X1280Y2574D01*
X1270Y2576D01*
D02*
G37*
G36*
X1618Y2434D02*
X1608Y2432D01*
X1600Y2426D01*
X1594Y2417D01*
X1592Y2407D01*
X1594Y2397D01*
X1600Y2389D01*
X1608Y2383D01*
X1618Y2381D01*
X1628Y2383D01*
X1637Y2389D01*
X1642Y2397D01*
X1644Y2407D01*
X1642Y2417D01*
X1637Y2426D01*
X1628Y2432D01*
X1618Y2434D01*
D02*
G37*
G36*
X1921Y2437D02*
X1911Y2435D01*
X1903Y2429D01*
X1897Y2420D01*
X1895Y2410D01*
X1897Y2400D01*
X1903Y2392D01*
X1903Y2392D01*
Y2387D01*
X1902Y2386D01*
X1896Y2377D01*
X1894Y2367D01*
X1896Y2357D01*
X1902Y2349D01*
X1910Y2343D01*
X1920Y2341D01*
X1930Y2343D01*
X1938Y2349D01*
X1944Y2357D01*
X1946Y2367D01*
X1944Y2377D01*
X1938Y2386D01*
X1938Y2386D01*
Y2391D01*
X1940Y2392D01*
X1945Y2400D01*
X1947Y2410D01*
X1945Y2420D01*
X1940Y2429D01*
X1931Y2435D01*
X1921Y2437D01*
D02*
G37*
G36*
X1575Y2395D02*
X1565Y2393D01*
X1556Y2388D01*
X1551Y2379D01*
X1549Y2369D01*
X1551Y2359D01*
X1556Y2351D01*
X1565Y2345D01*
X1575Y2343D01*
X1585Y2345D01*
X1593Y2351D01*
X1599Y2359D01*
X1601Y2369D01*
X1599Y2379D01*
X1593Y2388D01*
X1585Y2393D01*
X1575Y2395D01*
D02*
G37*
G36*
X2098Y2413D02*
X2088Y2411D01*
X2080Y2405D01*
X2074Y2397D01*
X2072Y2387D01*
X2074Y2377D01*
X2080Y2368D01*
X2088Y2363D01*
X2098Y2361D01*
X2108Y2363D01*
X2117Y2368D01*
X2123Y2377D01*
X2125Y2387D01*
X2123Y2397D01*
X2117Y2405D01*
X2108Y2411D01*
X2098Y2413D01*
D02*
G37*
G36*
X2323Y1758D02*
X2313Y1756D01*
X2304Y1751D01*
X2299Y1742D01*
X2297Y1732D01*
X2299Y1722D01*
X2304Y1714D01*
X2313Y1708D01*
X2323Y1706D01*
X2333Y1708D01*
X2341Y1714D01*
X2347Y1722D01*
X2349Y1732D01*
X2347Y1742D01*
X2341Y1751D01*
X2333Y1756D01*
X2323Y1758D01*
D02*
G37*
G36*
X1150Y1795D02*
X1140Y1793D01*
X1132Y1787D01*
X1126Y1779D01*
X1124Y1769D01*
X1125Y1761D01*
X1122Y1758D01*
X1118Y1758D01*
X1108Y1756D01*
X1100Y1751D01*
X1094Y1742D01*
X1092Y1732D01*
X1094Y1722D01*
X1100Y1714D01*
X1108Y1708D01*
X1118Y1706D01*
X1128Y1708D01*
X1137Y1714D01*
X1142Y1722D01*
X1144Y1732D01*
X1143Y1740D01*
X1146Y1743D01*
X1150Y1743D01*
X1160Y1745D01*
X1168Y1750D01*
X1174Y1759D01*
X1176Y1769D01*
X1174Y1779D01*
X1168Y1787D01*
X1160Y1793D01*
X1150Y1795D01*
D02*
G37*
G36*
X2194Y1892D02*
X2184Y1890D01*
X2175Y1885D01*
X2170Y1876D01*
X2168Y1866D01*
X2170Y1856D01*
X2174Y1850D01*
X2172Y1846D01*
X2168Y1844D01*
X2157Y1836D01*
X2083Y1761D01*
X1834D01*
X1827Y1762D01*
X1813Y1760D01*
X1801Y1755D01*
X1796Y1751D01*
X1790Y1747D01*
X1790Y1747D01*
X1776Y1732D01*
X1767Y1722D01*
X1764Y1714D01*
X1762Y1709D01*
X1760Y1696D01*
X1760Y1696D01*
Y1584D01*
X1753Y1577D01*
X1751Y1578D01*
X1742Y1583D01*
X1732Y1585D01*
X1722Y1583D01*
X1714Y1578D01*
X1708Y1569D01*
X1707Y1564D01*
X1657D01*
X1657Y1564D01*
X1644Y1563D01*
X1636Y1559D01*
X1632Y1558D01*
X1621Y1549D01*
X1600Y1529D01*
X1592Y1518D01*
X1587Y1505D01*
X1585Y1492D01*
X1587Y1479D01*
X1592Y1466D01*
X1600Y1456D01*
X1611Y1447D01*
X1623Y1442D01*
X1637Y1441D01*
X1650Y1442D01*
X1657Y1445D01*
X1659Y1442D01*
X1667Y1437D01*
X1677Y1435D01*
X1681Y1435D01*
X1685Y1432D01*
X1687Y1423D01*
X1692Y1415D01*
X1701Y1409D01*
X1710Y1407D01*
Y1311D01*
X1710Y1311D01*
X1712Y1298D01*
X1714Y1293D01*
X1717Y1285D01*
X1725Y1275D01*
X1901Y1099D01*
X1911Y1091D01*
X1924Y1086D01*
X1937Y1084D01*
X1937Y1084D01*
X1992D01*
X2005Y1086D01*
X2018Y1091D01*
X2029Y1099D01*
X2037Y1110D01*
X2042Y1122D01*
X2044Y1136D01*
X2042Y1149D01*
X2037Y1162D01*
X2029Y1172D01*
X2018Y1181D01*
X2005Y1186D01*
X1992Y1187D01*
X1958D01*
X1813Y1332D01*
Y1491D01*
X1828Y1506D01*
X1833Y1504D01*
X1832Y1502D01*
X1834Y1492D01*
X1840Y1484D01*
X1847Y1479D01*
X1846Y1474D01*
X1845Y1474D01*
X1837Y1468D01*
X1831Y1460D01*
X1829Y1450D01*
X1831Y1440D01*
X1837Y1431D01*
X1845Y1426D01*
X1855Y1424D01*
X1865Y1426D01*
X1874Y1431D01*
X1879Y1440D01*
X1881Y1450D01*
X1879Y1460D01*
X1874Y1468D01*
X1867Y1473D01*
X1868Y1478D01*
X1868Y1478D01*
X1877Y1484D01*
X1882Y1492D01*
X1884Y1502D01*
X1882Y1512D01*
X1877Y1520D01*
X1868Y1526D01*
X1863Y1527D01*
X1863Y1530D01*
X1873Y1532D01*
X1882Y1538D01*
X1887Y1546D01*
X1889Y1556D01*
X1889Y1557D01*
X1893Y1561D01*
X1898Y1560D01*
X1908Y1562D01*
X1916Y1567D01*
X1922Y1576D01*
X1924Y1586D01*
X1922Y1596D01*
X1916Y1604D01*
X1908Y1610D01*
X1898Y1612D01*
X1888Y1610D01*
X1881Y1605D01*
X1878Y1609D01*
X1882Y1616D01*
X1884Y1626D01*
X1882Y1636D01*
X1877Y1644D01*
X1868Y1650D01*
X1864Y1651D01*
Y1658D01*
X2037D01*
X2041Y1654D01*
X2040Y1651D01*
X2042Y1641D01*
X2047Y1632D01*
X2056Y1626D01*
X2066Y1624D01*
X2076Y1626D01*
X2076Y1627D01*
X2081Y1625D01*
X2083Y1616D01*
X2088Y1608D01*
X2097Y1602D01*
X2107Y1600D01*
X2117Y1602D01*
X2125Y1608D01*
X2131Y1616D01*
X2133Y1625D01*
X2134Y1626D01*
X2144Y1624D01*
X2154Y1626D01*
X2162Y1632D01*
X2167Y1640D01*
X2170D01*
X2173Y1640D01*
X2174Y1637D01*
X2183Y1631D01*
X2193Y1629D01*
X2203Y1631D01*
X2211Y1637D01*
X2217Y1646D01*
X2219Y1656D01*
X2217Y1665D01*
X2211Y1674D01*
X2203Y1680D01*
X2193Y1682D01*
X2183Y1680D01*
X2174Y1674D01*
X2169Y1666D01*
X2166D01*
X2164Y1666D01*
X2162Y1669D01*
X2154Y1675D01*
X2149Y1676D01*
X2148Y1680D01*
X2170Y1703D01*
X2175Y1702D01*
X2181Y1694D01*
X2189Y1689D01*
X2199Y1687D01*
X2209Y1689D01*
X2217Y1694D01*
X2223Y1703D01*
X2225Y1713D01*
X2223Y1723D01*
X2217Y1731D01*
X2209Y1737D01*
X2208Y1740D01*
X2230Y1763D01*
X2239Y1773D01*
X2244Y1786D01*
X2246Y1799D01*
X2244Y1813D01*
X2239Y1825D01*
X2230Y1836D01*
X2220Y1844D01*
X2212Y1847D01*
X2212Y1848D01*
X2218Y1856D01*
X2220Y1866D01*
X2218Y1876D01*
X2212Y1885D01*
X2204Y1890D01*
X2194Y1892D01*
D02*
G37*
G36*
X958Y1744D02*
X948Y1742D01*
X939Y1736D01*
X933Y1728D01*
X932Y1718D01*
X933Y1708D01*
X939Y1700D01*
X947Y1694D01*
Y1690D01*
X947Y1689D01*
X942Y1686D01*
X936Y1677D01*
X934Y1667D01*
X936Y1657D01*
X942Y1649D01*
X950Y1643D01*
X960Y1641D01*
X970Y1643D01*
X978Y1649D01*
X984Y1657D01*
X986Y1667D01*
X984Y1677D01*
X978Y1686D01*
X970Y1691D01*
X968Y1692D01*
Y1694D01*
X976Y1700D01*
X982Y1708D01*
X984Y1718D01*
X982Y1728D01*
X976Y1736D01*
X968Y1742D01*
X958Y1744D01*
D02*
G37*
G36*
X2490Y1789D02*
X2392D01*
Y1691D01*
X2422D01*
X2423Y1686D01*
X2416Y1683D01*
X2406Y1675D01*
X2398Y1665D01*
X2393Y1653D01*
X2391Y1640D01*
X2393Y1627D01*
X2398Y1615D01*
X2406Y1605D01*
X2416Y1597D01*
X2427Y1592D01*
Y1587D01*
X2416Y1583D01*
X2406Y1575D01*
X2398Y1565D01*
X2393Y1553D01*
X2392Y1545D01*
X2490D01*
X2489Y1553D01*
X2484Y1565D01*
X2476Y1575D01*
X2466Y1583D01*
X2455Y1587D01*
Y1592D01*
X2466Y1597D01*
X2476Y1605D01*
X2484Y1615D01*
X2489Y1627D01*
X2491Y1640D01*
X2489Y1653D01*
X2484Y1665D01*
X2476Y1675D01*
X2466Y1683D01*
X2459Y1686D01*
X2460Y1691D01*
X2490D01*
Y1789D01*
D02*
G37*
G36*
X1637Y1633D02*
X1627Y1631D01*
X1618Y1626D01*
X1613Y1617D01*
X1611Y1607D01*
X1613Y1597D01*
X1618Y1589D01*
X1627Y1583D01*
X1637Y1581D01*
X1647Y1583D01*
X1655Y1589D01*
X1661Y1597D01*
X1663Y1607D01*
X1661Y1617D01*
X1655Y1626D01*
X1647Y1631D01*
X1637Y1633D01*
D02*
G37*
G36*
X550Y1691D02*
X540Y1689D01*
X532Y1684D01*
X526Y1675D01*
X524Y1665D01*
X526Y1655D01*
X532Y1647D01*
X540Y1641D01*
X550Y1639D01*
X560Y1641D01*
X569Y1647D01*
X574Y1655D01*
X576Y1665D01*
X574Y1675D01*
X569Y1684D01*
X560Y1689D01*
X550Y1691D01*
D02*
G37*
G36*
X662Y1881D02*
X652Y1879D01*
X643Y1874D01*
X638Y1865D01*
X636Y1855D01*
X638Y1845D01*
X643Y1837D01*
X652Y1831D01*
X662Y1829D01*
X672Y1831D01*
X680Y1837D01*
X686Y1845D01*
X688Y1855D01*
X686Y1865D01*
X680Y1874D01*
X672Y1879D01*
X662Y1881D01*
D02*
G37*
G36*
X1391Y2090D02*
X1381Y2088D01*
X1373Y2082D01*
X1367Y2073D01*
X1365Y2063D01*
X1367Y2053D01*
X1373Y2045D01*
X1381Y2039D01*
X1391Y2037D01*
X1401Y2039D01*
X1410Y2045D01*
X1415Y2053D01*
X1417Y2063D01*
X1415Y2073D01*
X1410Y2082D01*
X1401Y2088D01*
X1391Y2090D01*
D02*
G37*
G36*
X1520Y2108D02*
X1510Y2106D01*
X1502Y2100D01*
X1496Y2092D01*
X1494Y2082D01*
X1496Y2072D01*
X1502Y2063D01*
X1510Y2058D01*
X1520Y2056D01*
X1530Y2058D01*
X1538Y2063D01*
X1544Y2072D01*
X1546Y2082D01*
X1544Y2092D01*
X1538Y2100D01*
X1530Y2106D01*
X1520Y2108D01*
D02*
G37*
G36*
X1070Y2147D02*
X1060Y2145D01*
X1052Y2139D01*
X1046Y2131D01*
X1044Y2121D01*
X1046Y2111D01*
X1052Y2102D01*
X1060Y2097D01*
X1070Y2095D01*
X1080Y2097D01*
X1089Y2102D01*
X1094Y2111D01*
X1096Y2121D01*
X1094Y2131D01*
X1089Y2139D01*
X1080Y2145D01*
X1070Y2147D01*
D02*
G37*
G36*
X1530Y1978D02*
X1520Y1976D01*
X1512Y1970D01*
X1506Y1962D01*
X1504Y1952D01*
X1506Y1942D01*
X1512Y1933D01*
X1520Y1928D01*
X1530Y1926D01*
X1540Y1928D01*
X1549Y1933D01*
X1555Y1942D01*
X1557Y1952D01*
X1555Y1962D01*
X1549Y1970D01*
X1540Y1976D01*
X1530Y1978D01*
D02*
G37*
G36*
X2320Y2227D02*
X2306Y2225D01*
X2294Y2221D01*
X2282Y2215D01*
X2271Y2206D01*
X2262Y2196D01*
X2256Y2184D01*
X2252Y2171D01*
X2251Y2157D01*
X2252Y2144D01*
X2256Y2131D01*
X2262Y2119D01*
X2271Y2109D01*
X2282Y2100D01*
X2294Y2094D01*
X2306Y2090D01*
X2320Y2088D01*
X2334Y2090D01*
X2346Y2094D01*
X2358Y2100D01*
X2369Y2109D01*
X2378Y2119D01*
X2384Y2131D01*
X2388Y2144D01*
X2389Y2157D01*
X2388Y2170D01*
X2392Y2171D01*
Y2171D01*
X2392D01*
Y2171D01*
X2422D01*
X2423Y2166D01*
X2416Y2163D01*
X2406Y2155D01*
X2398Y2145D01*
X2393Y2133D01*
X2391Y2120D01*
X2393Y2107D01*
X2398Y2095D01*
X2406Y2085D01*
X2416Y2077D01*
X2427Y2072D01*
Y2068D01*
X2416Y2063D01*
X2406Y2055D01*
X2398Y2045D01*
X2393Y2033D01*
X2391Y2020D01*
X2393Y2007D01*
X2398Y1995D01*
X2406Y1985D01*
X2416Y1977D01*
X2427Y1972D01*
Y1967D01*
X2416Y1963D01*
X2406Y1955D01*
X2398Y1945D01*
X2393Y1933D01*
X2391Y1920D01*
X2393Y1907D01*
X2398Y1895D01*
X2406Y1885D01*
X2416Y1877D01*
X2428Y1872D01*
X2441Y1870D01*
X2454Y1872D01*
X2466Y1877D01*
X2476Y1885D01*
X2484Y1895D01*
X2489Y1907D01*
X2491Y1920D01*
X2489Y1933D01*
X2484Y1945D01*
X2476Y1955D01*
X2466Y1963D01*
X2455Y1967D01*
Y1972D01*
X2466Y1977D01*
X2476Y1985D01*
X2484Y1995D01*
X2489Y2007D01*
X2491Y2020D01*
X2489Y2033D01*
X2484Y2045D01*
X2476Y2055D01*
X2466Y2063D01*
X2455Y2068D01*
Y2072D01*
X2466Y2077D01*
X2476Y2085D01*
X2484Y2095D01*
X2489Y2107D01*
X2491Y2120D01*
X2489Y2133D01*
X2484Y2145D01*
X2476Y2155D01*
X2466Y2163D01*
X2459Y2166D01*
X2460Y2171D01*
X2490D01*
Y2215D01*
X2392D01*
Y2175D01*
X2391Y2175D01*
D01*
X2387Y2175D01*
Y2175D01*
X2387Y2175D01*
X2384Y2184D01*
X2378Y2196D01*
X2369Y2206D01*
X2358Y2215D01*
X2346Y2221D01*
X2334Y2225D01*
X2320Y2227D01*
D02*
G37*
G36*
X1684Y1944D02*
X1674Y1942D01*
X1666Y1937D01*
X1660Y1928D01*
X1658Y1918D01*
X1660Y1908D01*
X1666Y1900D01*
X1674Y1894D01*
X1684Y1892D01*
X1694Y1894D01*
X1703Y1900D01*
X1708Y1908D01*
X1710Y1918D01*
X1708Y1928D01*
X1703Y1937D01*
X1694Y1942D01*
X1684Y1944D01*
D02*
G37*
G36*
X1967Y1945D02*
X1957Y1943D01*
X1948Y1938D01*
X1942Y1929D01*
X1940Y1919D01*
X1942Y1909D01*
X1948Y1901D01*
X1957Y1895D01*
X1967Y1893D01*
X1977Y1895D01*
X1985Y1901D01*
X1991Y1909D01*
X1993Y1919D01*
X1991Y1929D01*
X1985Y1938D01*
X1977Y1943D01*
X1967Y1945D01*
D02*
G37*
%LPD*%
D37*
X69Y374D02*
G03*
X374Y69I305J0D01*
G01*
X98Y374D02*
G03*
X374Y98I276J0D01*
G01*
Y3081D02*
G03*
X69Y2776I0J-305D01*
G01*
X374Y3051D02*
G03*
X98Y2776I0J-276D01*
G01*
X2776Y98D02*
G03*
X3051Y374I0J276D01*
G01*
X2776Y69D02*
G03*
X3081Y374I0J305D01*
G01*
X3051Y2776D02*
G03*
X2776Y3051I-276J0D01*
G01*
X3081Y2776D02*
G03*
X2776Y3081I-305J0D01*
G01*
X61Y1575D02*
X69Y1583D01*
X136Y1535D02*
X172D01*
X98Y1498D02*
X136Y1535D01*
X69Y374D02*
Y1520D01*
X98Y374D02*
Y1498D01*
X69Y1520D02*
X98Y1549D01*
X69Y1583D02*
Y2776D01*
X374Y69D02*
X2776D01*
X374Y98D02*
X2776D01*
X3051Y374D02*
Y2776D01*
X3081Y374D02*
Y2776D01*
X374Y3081D02*
X2776D01*
X374Y3051D02*
X2776D01*
X98Y1549D02*
Y2776D01*
D39*
X2104Y1710D02*
X2194Y1799D01*
X1369Y625D02*
Y1197D01*
X1291Y1275D02*
X1369Y1197D01*
X599Y1518D02*
X1289D01*
X538Y1579D02*
X599Y1518D01*
X1297Y1680D02*
X1476D01*
X920Y2429D02*
Y2440D01*
X1291Y1275D02*
Y2058D01*
X1827Y1710D02*
Y1711D01*
X1937Y1136D02*
X1992D01*
X911Y2438D02*
X1291Y2058D01*
X1762Y1513D02*
X1812Y1563D01*
X1762Y1311D02*
Y1513D01*
Y1311D02*
X1937Y1136D01*
X1657Y1513D02*
X1762D01*
X1637Y1492D02*
X1657Y1513D01*
X1812Y1563D02*
Y1696D01*
X1827Y1711D01*
Y1710D02*
X2104D01*
D45*
X920Y2440D02*
D03*
X2441Y2220D02*
D03*
D46*
Y1540D02*
D03*
D50*
X1637Y1559D02*
D03*
X2194Y1799D02*
D03*
X2019Y1802D02*
D03*
X1299Y738D02*
D03*
X1240D02*
D03*
X1181D02*
D03*
X1122D02*
D03*
X1063D02*
D03*
X591Y856D02*
D03*
X827D02*
D03*
X1004Y738D02*
D03*
X945D02*
D03*
X886D02*
D03*
X591Y915D02*
D03*
X650D02*
D03*
X709D02*
D03*
X768D02*
D03*
X827D02*
D03*
X886D02*
D03*
Y856D02*
D03*
Y797D02*
D03*
X945D02*
D03*
X1004D02*
D03*
X1063D02*
D03*
Y856D02*
D03*
Y915D02*
D03*
X1122D02*
D03*
Y856D02*
D03*
Y797D02*
D03*
X1181D02*
D03*
X1240D02*
D03*
X1299D02*
D03*
Y856D02*
D03*
Y915D02*
D03*
Y974D02*
D03*
X1240D02*
D03*
X1181D02*
D03*
X1122D02*
D03*
X1063D02*
D03*
X1004D02*
D03*
X945D02*
D03*
X886D02*
D03*
X827D02*
D03*
X768D02*
D03*
X709D02*
D03*
X650D02*
D03*
X591D02*
D03*
X1771Y2301D02*
D03*
X2227Y569D02*
D03*
X61Y1575D02*
D03*
X958Y1338D02*
D03*
X172Y1535D02*
D03*
X538Y1579D02*
D03*
X1992Y1136D02*
D03*
X1744Y1226D02*
D03*
X2328Y1571D02*
D03*
X2240Y2352D02*
D03*
X2097Y2448D02*
D03*
X1575D02*
D03*
X1476Y1680D02*
D03*
X1606Y1820D02*
D03*
X1800Y1002D02*
D03*
X1877Y785D02*
D03*
X1637Y1492D02*
D03*
X1421Y1364D02*
D03*
X1369Y625D02*
D03*
X1827Y1711D02*
D03*
M02*
