%FSLAX23Y23*%
%MOIN*%
G70*
G01*
G75*
G04 Layer_Color=8388736*
G04 Layer_Color=8388736*
%ADD10C,0.089*%
%ADD11R,0.031X0.039*%
%ADD12R,0.012X0.059*%
%ADD13R,0.059X0.012*%
%ADD14R,0.043X0.039*%
%ADD15R,0.039X0.043*%
%ADD16R,0.087X0.043*%
%ADD17R,0.039X0.039*%
%ADD18R,0.043X0.087*%
%ADD19C,0.047*%
%ADD20R,0.079X0.098*%
%ADD21R,0.098X0.055*%
%ADD22R,0.118X0.055*%
%ADD23R,0.020X0.098*%
%ADD24R,0.039X0.024*%
%ADD25R,0.039X0.020*%
%ADD26R,0.051X0.059*%
%ADD27R,0.094X0.102*%
%ADD28R,0.079X0.020*%
%ADD29R,0.217X0.079*%
%ADD30R,0.059X0.051*%
%ADD31R,0.134X0.069*%
%ADD32R,0.041X0.069*%
%ADD33R,0.041X0.069*%
%ADD34R,0.047X0.024*%
%ADD35R,0.106X0.063*%
%ADD36R,0.079X0.114*%
%ADD37C,0.020*%
%ADD38C,0.012*%
%ADD39C,0.039*%
%ADD40C,0.008*%
%ADD41R,2.402X0.089*%
%ADD42R,0.089X2.411*%
%ADD43R,0.089X1.191*%
%ADD44C,0.098*%
%ADD45R,0.059X0.059*%
%ADD46C,0.059*%
%ADD47C,0.031*%
%ADD48C,0.039*%
%ADD49C,0.276*%
%ADD50C,0.035*%
%ADD51R,0.039X0.098*%
%ADD52C,0.010*%
%ADD53C,0.010*%
%ADD54R,0.039X0.047*%
%ADD55R,0.020X0.067*%
%ADD56R,0.067X0.020*%
%ADD57R,0.051X0.047*%
%ADD58R,0.047X0.051*%
%ADD59R,0.094X0.051*%
%ADD60R,0.047X0.047*%
%ADD61R,0.051X0.094*%
%ADD62C,0.055*%
%ADD63R,0.087X0.106*%
%ADD64R,0.126X0.063*%
%ADD65R,0.028X0.106*%
%ADD66R,0.047X0.031*%
%ADD67R,0.047X0.028*%
%ADD68R,0.059X0.067*%
%ADD69R,0.102X0.110*%
%ADD70R,0.087X0.028*%
%ADD71R,0.224X0.087*%
%ADD72R,0.067X0.059*%
%ADD73R,0.142X0.077*%
%ADD74R,0.049X0.077*%
%ADD75R,0.049X0.077*%
%ADD76R,0.055X0.031*%
%ADD77R,0.114X0.071*%
%ADD78R,0.087X0.122*%
%ADD79C,0.106*%
%ADD80R,0.067X0.067*%
%ADD81C,0.067*%
%ADD82C,0.283*%
D19*
X1977Y423D02*
D03*
Y523D02*
D03*
D35*
X1685Y2510D02*
D03*
X2016D02*
D03*
X1685Y2333D02*
D03*
X2016D02*
D03*
D38*
X2504Y2218D02*
X2528Y2241D01*
X2504Y2218D02*
X2528Y2194D01*
Y2241D01*
X858Y2608D02*
X906D01*
X882Y2585D02*
X906Y2608D01*
X858D02*
X882Y2585D01*
X2524Y980D02*
Y1028D01*
X2500Y1004D02*
X2524Y980D01*
X2500Y1004D02*
X2524Y1028D01*
Y1728D02*
Y1776D01*
X2500Y1752D02*
X2524Y1728D01*
X2500Y1752D02*
X2524Y1776D01*
D40*
X788Y2613D02*
Y2582D01*
X796Y2606D02*
Y2607D01*
X798Y2610D01*
X799Y2612D01*
X802Y2613D01*
X808D01*
X811Y2612D01*
X813Y2610D01*
X814Y2607D01*
Y2604D01*
X813Y2601D01*
X810Y2597D01*
X795Y2582D01*
X816D01*
X846Y2606D02*
X844Y2609D01*
X841Y2612D01*
X838Y2613D01*
X832D01*
X829Y2612D01*
X826Y2609D01*
X825Y2606D01*
X823Y2601D01*
Y2594D01*
X825Y2589D01*
X826Y2586D01*
X829Y2583D01*
X832Y2582D01*
X838D01*
X841Y2583D01*
X844Y2586D01*
X846Y2589D01*
X1614Y2610D02*
Y2579D01*
Y2610D02*
X1628D01*
X1632Y2609D01*
X1634Y2607D01*
X1635Y2604D01*
Y2601D01*
X1634Y2598D01*
X1632Y2597D01*
X1628Y2595D01*
X1614D02*
X1628D01*
X1632Y2594D01*
X1634Y2592D01*
X1635Y2589D01*
Y2585D01*
X1634Y2582D01*
X1632Y2580D01*
X1628Y2579D01*
X1614D01*
X1651Y2610D02*
X1648Y2609D01*
X1645Y2606D01*
X1644Y2603D01*
X1642Y2598D01*
Y2591D01*
X1644Y2586D01*
X1645Y2583D01*
X1648Y2580D01*
X1651Y2579D01*
X1657D01*
X1660Y2580D01*
X1663Y2583D01*
X1665Y2586D01*
X1666Y2591D01*
Y2598D01*
X1665Y2603D01*
X1663Y2606D01*
X1660Y2609D01*
X1657Y2610D01*
X1651D01*
X1683D02*
X1680Y2609D01*
X1677Y2606D01*
X1675Y2603D01*
X1674Y2598D01*
Y2591D01*
X1675Y2586D01*
X1677Y2583D01*
X1680Y2580D01*
X1683Y2579D01*
X1689D01*
X1692Y2580D01*
X1695Y2583D01*
X1696Y2586D01*
X1698Y2591D01*
Y2598D01*
X1696Y2603D01*
X1695Y2606D01*
X1692Y2609D01*
X1689Y2610D01*
X1683D01*
X1715D02*
Y2579D01*
X1705Y2610D02*
X1726D01*
X1730D02*
Y2579D01*
X1748D01*
X1760Y2610D02*
X1757Y2609D01*
X1754Y2606D01*
X1753Y2603D01*
X1751Y2598D01*
Y2591D01*
X1753Y2586D01*
X1754Y2583D01*
X1757Y2580D01*
X1760Y2579D01*
X1766D01*
X1769Y2580D01*
X1772Y2583D01*
X1774Y2586D01*
X1775Y2591D01*
Y2598D01*
X1774Y2603D01*
X1772Y2606D01*
X1769Y2609D01*
X1766Y2610D01*
X1760D01*
X1806Y2579D02*
X1794Y2610D01*
X1782Y2579D01*
X1787Y2589D02*
X1802D01*
X1814Y2610D02*
Y2579D01*
Y2610D02*
X1824D01*
X1829Y2609D01*
X1832Y2606D01*
X1833Y2603D01*
X1835Y2598D01*
Y2591D01*
X1833Y2586D01*
X1832Y2583D01*
X1829Y2580D01*
X1824Y2579D01*
X1814D01*
X1861Y2610D02*
X1842D01*
Y2579D01*
X1861D01*
X1842Y2595D02*
X1854D01*
X1867Y2610D02*
Y2579D01*
Y2610D02*
X1880D01*
X1885Y2609D01*
X1886Y2607D01*
X1888Y2604D01*
Y2601D01*
X1886Y2598D01*
X1885Y2597D01*
X1880Y2595D01*
X1867D01*
X1877D02*
X1888Y2579D01*
X591Y1126D02*
X559Y1114D01*
X591Y1102D01*
X580Y1107D02*
Y1122D01*
X559Y1134D02*
X582D01*
X586Y1135D01*
X589Y1138D01*
X591Y1143D01*
Y1146D01*
X589Y1150D01*
X586Y1153D01*
X582Y1155D01*
X559D01*
Y1163D02*
X591Y1184D01*
X559D02*
X591Y1163D01*
X559Y2087D02*
X591D01*
X559D02*
X591Y2099D01*
X559Y2111D02*
X591Y2099D01*
X559Y2111D02*
X591D01*
X559Y2120D02*
X591D01*
X559D02*
Y2139D01*
X574Y2120D02*
Y2132D01*
X559Y2152D02*
X561Y2149D01*
X564Y2146D01*
X567Y2144D01*
X571Y2143D01*
X579D01*
X583Y2144D01*
X586Y2146D01*
X589Y2149D01*
X591Y2152D01*
Y2158D01*
X589Y2161D01*
X586Y2164D01*
X583Y2165D01*
X579Y2167D01*
X571D01*
X567Y2165D01*
X564Y2164D01*
X561Y2161D01*
X559Y2158D01*
Y2152D01*
Y2174D02*
X582D01*
X586Y2176D01*
X589Y2179D01*
X591Y2183D01*
Y2186D01*
X589Y2191D01*
X586Y2194D01*
X582Y2195D01*
X559D01*
Y2214D02*
X591D01*
X559Y2204D02*
Y2225D01*
X2552Y2088D02*
X2549Y2085D01*
X2547Y2080D01*
Y2074D01*
X2549Y2070D01*
X2552Y2067D01*
X2555D01*
X2558Y2068D01*
X2559Y2070D01*
X2561Y2073D01*
X2564Y2082D01*
X2565Y2085D01*
X2567Y2086D01*
X2570Y2088D01*
X2574D01*
X2577Y2085D01*
X2579Y2080D01*
Y2074D01*
X2577Y2070D01*
X2574Y2067D01*
X2579Y2119D02*
X2547Y2107D01*
X2579Y2095D01*
X2568Y2099D02*
Y2114D01*
X2547Y2126D02*
X2579D01*
X2547D02*
X2579Y2138D01*
X2547Y2150D02*
X2579Y2138D01*
X2547Y2150D02*
X2579D01*
X2565Y2159D02*
Y2186D01*
X2547Y2196D02*
X2579D01*
X2547D02*
Y2209D01*
X2549Y2214D01*
X2550Y2215D01*
X2553Y2217D01*
X2556D01*
X2559Y2215D01*
X2561Y2214D01*
X2562Y2209D01*
Y2196D02*
Y2209D01*
X2564Y2214D01*
X2565Y2215D01*
X2568Y2217D01*
X2573D01*
X2576Y2215D01*
X2577Y2214D01*
X2579Y2209D01*
Y2196D01*
Y2248D02*
X2547Y2236D01*
X2579Y2224D01*
X2568Y2228D02*
Y2243D01*
X1388Y2610D02*
Y2579D01*
X1378Y2610D02*
X1399D01*
X1403D02*
Y2579D01*
Y2610D02*
X1416D01*
X1421Y2609D01*
X1422Y2607D01*
X1424Y2604D01*
Y2601D01*
X1422Y2598D01*
X1421Y2597D01*
X1416Y2595D01*
X1403D01*
X1413D02*
X1424Y2579D01*
X1431Y2610D02*
Y2579D01*
X1460Y2603D02*
X1458Y2606D01*
X1455Y2609D01*
X1452Y2610D01*
X1446D01*
X1443Y2609D01*
X1440Y2606D01*
X1439Y2603D01*
X1437Y2598D01*
Y2591D01*
X1439Y2586D01*
X1440Y2583D01*
X1443Y2580D01*
X1446Y2579D01*
X1452D01*
X1455Y2580D01*
X1458Y2583D01*
X1460Y2586D01*
Y2591D01*
X1452D02*
X1460D01*
X1490Y2603D02*
X1488Y2606D01*
X1485Y2609D01*
X1482Y2610D01*
X1476D01*
X1473Y2609D01*
X1470Y2606D01*
X1469Y2603D01*
X1467Y2598D01*
Y2591D01*
X1469Y2586D01*
X1470Y2583D01*
X1473Y2580D01*
X1476Y2579D01*
X1482D01*
X1485Y2580D01*
X1488Y2583D01*
X1490Y2586D01*
Y2591D01*
X1482D02*
X1490D01*
X1516Y2610D02*
X1497D01*
Y2579D01*
X1516D01*
X1497Y2595D02*
X1509D01*
X1521Y2610D02*
Y2579D01*
Y2610D02*
X1535D01*
X1539Y2609D01*
X1541Y2607D01*
X1542Y2604D01*
Y2601D01*
X1541Y2598D01*
X1539Y2597D01*
X1535Y2595D01*
X1521D01*
X1532D02*
X1542Y2579D01*
X2547Y1496D02*
X2579D01*
X2547D02*
Y1510D01*
X2549Y1514D01*
X2550Y1516D01*
X2553Y1517D01*
X2556D01*
X2559Y1516D01*
X2561Y1514D01*
X2562Y1510D01*
Y1496D01*
Y1507D02*
X2579Y1517D01*
X2552Y1545D02*
X2549Y1542D01*
X2547Y1538D01*
Y1532D01*
X2549Y1527D01*
X2552Y1524D01*
X2555D01*
X2558Y1526D01*
X2559Y1527D01*
X2561Y1530D01*
X2564Y1539D01*
X2565Y1542D01*
X2567Y1544D01*
X2570Y1545D01*
X2574D01*
X2577Y1542D01*
X2579Y1538D01*
Y1532D01*
X2577Y1527D01*
X2574Y1524D01*
X2555Y1554D02*
X2553D01*
X2550Y1555D01*
X2549Y1557D01*
X2547Y1560D01*
Y1566D01*
X2549Y1569D01*
X2550Y1570D01*
X2553Y1572D01*
X2556D01*
X2559Y1570D01*
X2564Y1567D01*
X2579Y1552D01*
Y1573D01*
X2547Y1583D02*
Y1600D01*
X2559Y1591D01*
Y1595D01*
X2561Y1598D01*
X2562Y1600D01*
X2567Y1601D01*
X2570D01*
X2574Y1600D01*
X2577Y1597D01*
X2579Y1592D01*
Y1588D01*
X2577Y1583D01*
X2576Y1582D01*
X2573Y1580D01*
X2555Y1610D02*
X2553D01*
X2550Y1611D01*
X2549Y1613D01*
X2547Y1616D01*
Y1622D01*
X2549Y1625D01*
X2550Y1626D01*
X2553Y1628D01*
X2556D01*
X2559Y1626D01*
X2564Y1623D01*
X2579Y1608D01*
Y1629D01*
X2589Y1636D02*
Y1660D01*
X2555Y1687D02*
X2552Y1685D01*
X2549Y1682D01*
X2547Y1679D01*
Y1673D01*
X2549Y1670D01*
X2552Y1667D01*
X2555Y1666D01*
X2559Y1664D01*
X2567D01*
X2571Y1666D01*
X2574Y1667D01*
X2577Y1670D01*
X2579Y1673D01*
Y1679D01*
X2577Y1682D01*
X2574Y1685D01*
X2571Y1687D01*
X2547Y1696D02*
X2579D01*
X2547D02*
X2579Y1708D01*
X2547Y1720D02*
X2579Y1708D01*
X2547Y1720D02*
X2579D01*
X2547Y1738D02*
X2549Y1735D01*
X2552Y1732D01*
X2555Y1730D01*
X2559Y1729D01*
X2567D01*
X2571Y1730D01*
X2574Y1732D01*
X2577Y1735D01*
X2579Y1738D01*
Y1744D01*
X2577Y1747D01*
X2574Y1750D01*
X2571Y1751D01*
X2567Y1753D01*
X2559D01*
X2555Y1751D01*
X2552Y1750D01*
X2549Y1747D01*
X2547Y1744D01*
Y1738D01*
X2552Y1781D02*
X2549Y1778D01*
X2547Y1773D01*
Y1767D01*
X2549Y1763D01*
X2552Y1760D01*
X2555D01*
X2558Y1761D01*
X2559Y1763D01*
X2561Y1766D01*
X2564Y1775D01*
X2565Y1778D01*
X2567Y1779D01*
X2570Y1781D01*
X2574D01*
X2577Y1778D01*
X2579Y1773D01*
Y1767D01*
X2577Y1763D01*
X2574Y1760D01*
X2579Y1008D02*
X2547Y996D01*
X2579Y984D01*
X2568Y989D02*
Y1004D01*
X2547Y1016D02*
X2579D01*
X2547D02*
X2579Y1037D01*
X2547D02*
X2579D01*
Y1069D02*
X2547Y1057D01*
X2579Y1045D01*
X2568Y1050D02*
Y1065D01*
X2547Y1077D02*
X2579D01*
Y1095D01*
X2547Y1107D02*
X2549Y1104D01*
X2552Y1101D01*
X2555Y1100D01*
X2559Y1098D01*
X2567D01*
X2571Y1100D01*
X2574Y1101D01*
X2577Y1104D01*
X2579Y1107D01*
Y1113D01*
X2577Y1116D01*
X2574Y1119D01*
X2571Y1121D01*
X2567Y1122D01*
X2559D01*
X2555Y1121D01*
X2552Y1119D01*
X2549Y1116D01*
X2547Y1113D01*
Y1107D01*
X2555Y1152D02*
X2552Y1150D01*
X2549Y1147D01*
X2547Y1144D01*
Y1138D01*
X2549Y1135D01*
X2552Y1132D01*
X2555Y1131D01*
X2559Y1129D01*
X2567D01*
X2571Y1131D01*
X2574Y1132D01*
X2577Y1135D01*
X2579Y1138D01*
Y1144D01*
X2577Y1147D01*
X2574Y1150D01*
X2571Y1152D01*
X2567D01*
Y1144D02*
Y1152D01*
X2698Y696D02*
X2702Y692D01*
X2709Y688D01*
X2717Y683D01*
X2728Y681D01*
X2737D01*
X2748Y683D01*
X2756Y688D01*
X2763Y692D01*
X2767Y696D01*
X2702Y692D02*
X2711Y688D01*
X2717Y685D01*
X2728Y683D01*
X2737D01*
X2748Y685D01*
X2754Y688D01*
X2763Y692D01*
X2728Y731D02*
X2724Y726D01*
X2722Y722D01*
Y716D01*
X2724Y711D01*
X2728Y707D01*
X2735Y705D01*
X2739D01*
X2746Y707D01*
X2750Y711D01*
X2752Y716D01*
Y722D01*
X2750Y726D01*
X2746Y731D01*
X2698Y740D02*
X2702Y745D01*
X2709Y749D01*
X2717Y753D01*
X2728Y755D01*
X2737D01*
X2748Y753D01*
X2756Y749D01*
X2763Y745D01*
X2767Y740D01*
X2702Y745D02*
X2711Y749D01*
X2717Y751D01*
X2728Y753D01*
X2737D01*
X2748Y751D01*
X2754Y749D01*
X2763Y745D01*
X2717Y804D02*
X2715D01*
X2711Y806D01*
X2709Y808D01*
X2707Y813D01*
Y821D01*
X2709Y826D01*
X2711Y828D01*
X2715Y830D01*
X2720D01*
X2724Y828D01*
X2730Y824D01*
X2752Y802D01*
Y832D01*
X2707Y855D02*
X2709Y849D01*
X2715Y844D01*
X2726Y842D01*
X2733D01*
X2743Y844D01*
X2750Y849D01*
X2752Y855D01*
Y860D01*
X2750Y866D01*
X2743Y870D01*
X2733Y873D01*
X2726D01*
X2715Y870D01*
X2709Y866D01*
X2707Y860D01*
Y855D01*
Y896D02*
X2709Y889D01*
X2715Y885D01*
X2726Y883D01*
X2733D01*
X2743Y885D01*
X2750Y889D01*
X2752Y896D01*
Y900D01*
X2750Y906D01*
X2743Y911D01*
X2733Y913D01*
X2726D01*
X2715Y911D01*
X2709Y906D01*
X2707Y900D01*
Y896D01*
X2713Y949D02*
X2709Y947D01*
X2707Y940D01*
Y936D01*
X2709Y929D01*
X2715Y925D01*
X2726Y923D01*
X2737D01*
X2746Y925D01*
X2750Y929D01*
X2752Y936D01*
Y938D01*
X2750Y945D01*
X2746Y949D01*
X2739Y951D01*
X2737D01*
X2730Y949D01*
X2726Y945D01*
X2724Y938D01*
Y936D01*
X2726Y929D01*
X2730Y925D01*
X2737Y923D01*
X2713Y1031D02*
X2733Y996D01*
X2752Y1031D01*
X2707Y1044D02*
X2752D01*
X2728D02*
X2724Y1048D01*
X2722Y1052D01*
Y1059D01*
X2724Y1063D01*
X2728Y1068D01*
X2735Y1070D01*
X2739D01*
X2746Y1068D01*
X2750Y1063D01*
X2752Y1059D01*
Y1052D01*
X2750Y1048D01*
X2746Y1044D01*
X2722Y1079D02*
X2752D01*
X2735D02*
X2728Y1082D01*
X2724Y1086D01*
X2722Y1090D01*
Y1097D01*
X2707Y1105D02*
X2709Y1107D01*
X2707Y1109D01*
X2705Y1107D01*
X2707Y1105D01*
X2722Y1107D02*
X2752D01*
X2707Y1124D02*
X2743D01*
X2750Y1126D01*
X2752Y1130D01*
Y1135D01*
X2722Y1117D02*
Y1132D01*
Y1167D02*
X2752D01*
X2728D02*
X2724Y1163D01*
X2722Y1158D01*
Y1152D01*
X2724Y1148D01*
X2728Y1143D01*
X2735Y1141D01*
X2739D01*
X2746Y1143D01*
X2750Y1148D01*
X2752Y1152D01*
Y1158D01*
X2750Y1163D01*
X2746Y1167D01*
X2748Y1181D02*
X2750Y1179D01*
X2752Y1181D01*
X2750Y1183D01*
X2748Y1181D01*
X2722Y1193D02*
X2752D01*
X2730D02*
X2724Y1200D01*
X2722Y1204D01*
Y1210D01*
X2724Y1215D01*
X2730Y1217D01*
X2752D01*
X2730D02*
X2724Y1223D01*
X2722Y1228D01*
Y1234D01*
X2724Y1239D01*
X2730Y1241D01*
X2752D01*
X2735Y1255D02*
Y1281D01*
X2730D01*
X2726Y1279D01*
X2724Y1276D01*
X2722Y1272D01*
Y1266D01*
X2724Y1261D01*
X2728Y1257D01*
X2735Y1255D01*
X2739D01*
X2746Y1257D01*
X2750Y1261D01*
X2752Y1266D01*
Y1272D01*
X2750Y1276D01*
X2746Y1281D01*
X2722Y1290D02*
X2752D01*
X2735D02*
X2728Y1293D01*
X2724Y1297D01*
X2722Y1301D01*
Y1308D01*
X2707Y1316D02*
X2709Y1318D01*
X2707Y1320D01*
X2705Y1318D01*
X2707Y1316D01*
X2722Y1318D02*
X2752D01*
X2722Y1354D02*
X2752D01*
X2728D02*
X2724Y1350D01*
X2722Y1346D01*
Y1339D01*
X2724Y1335D01*
X2728Y1331D01*
X2735Y1328D01*
X2739D01*
X2746Y1331D01*
X2750Y1335D01*
X2752Y1339D01*
Y1346D01*
X2750Y1350D01*
X2746Y1354D01*
X2728Y1392D02*
X2724Y1388D01*
X2722Y1384D01*
Y1377D01*
X2724Y1373D01*
X2728Y1368D01*
X2735Y1366D01*
X2739D01*
X2746Y1368D01*
X2750Y1373D01*
X2752Y1377D01*
Y1384D01*
X2750Y1388D01*
X2746Y1392D01*
X2724Y1434D02*
X2720Y1432D01*
X2717Y1428D01*
Y1421D01*
X2720Y1417D01*
X2722Y1415D01*
X2728Y1413D01*
X2735D01*
X2739Y1415D01*
X2741Y1419D01*
Y1426D01*
X2739Y1430D01*
X2735Y1432D01*
X2717Y1421D02*
X2722Y1417D01*
X2728Y1415D01*
X2735D01*
X2739Y1417D01*
X2741Y1419D01*
X2717Y1434D02*
X2735Y1432D01*
X2739D01*
X2741Y1436D01*
Y1441D01*
X2737Y1445D01*
X2730Y1447D01*
X2726D01*
X2720Y1445D01*
X2715Y1443D01*
X2711Y1439D01*
X2709Y1434D01*
X2707Y1428D01*
Y1421D01*
X2709Y1415D01*
X2711Y1411D01*
X2715Y1406D01*
X2720Y1404D01*
X2726Y1402D01*
X2733D01*
X2739Y1404D01*
X2743Y1406D01*
X2748Y1411D01*
X2750Y1415D01*
X2752Y1421D01*
Y1428D01*
X2750Y1434D01*
X2748Y1439D01*
X2746Y1441D01*
X2717Y1436D02*
X2735Y1434D01*
X2739D01*
X2741Y1436D01*
X2707Y1459D02*
X2752D01*
X2728D02*
X2724Y1463D01*
X2722Y1467D01*
Y1474D01*
X2724Y1478D01*
X2728Y1483D01*
X2735Y1485D01*
X2739D01*
X2746Y1483D01*
X2750Y1478D01*
X2752Y1474D01*
Y1467D01*
X2750Y1463D01*
X2746Y1459D01*
X2707Y1499D02*
X2709Y1501D01*
X2707Y1503D01*
X2705Y1501D01*
X2707Y1499D01*
X2722Y1501D02*
X2752D01*
X2707Y1517D02*
X2743D01*
X2750Y1520D01*
X2752Y1524D01*
Y1528D01*
X2722Y1511D02*
Y1526D01*
Y1535D02*
X2752D01*
X2730D02*
X2724Y1541D01*
X2722Y1545D01*
Y1552D01*
X2724Y1556D01*
X2730Y1558D01*
X2752D01*
X2730D02*
X2724Y1565D01*
X2722Y1569D01*
Y1576D01*
X2724Y1580D01*
X2730Y1582D01*
X2752D01*
X2722Y1622D02*
X2752D01*
X2728D02*
X2724Y1618D01*
X2722Y1614D01*
Y1607D01*
X2724Y1603D01*
X2728Y1598D01*
X2735Y1596D01*
X2739D01*
X2746Y1598D01*
X2750Y1603D01*
X2752Y1607D01*
Y1614D01*
X2750Y1618D01*
X2746Y1622D01*
X2722Y1634D02*
X2752D01*
X2730D02*
X2724Y1641D01*
X2722Y1645D01*
Y1652D01*
X2724Y1656D01*
X2730Y1658D01*
X2752D01*
X2722Y1670D02*
X2743D01*
X2750Y1672D01*
X2752Y1676D01*
Y1683D01*
X2750Y1687D01*
X2743Y1694D01*
X2722D02*
X2752D01*
X2707Y1723D02*
Y1718D01*
X2709Y1714D01*
X2715Y1712D01*
X2752D01*
X2722Y1705D02*
Y1720D01*
Y1755D02*
X2752D01*
X2728D02*
X2724Y1751D01*
X2722Y1746D01*
Y1740D01*
X2724Y1736D01*
X2728Y1731D01*
X2735Y1729D01*
X2739D01*
X2746Y1731D01*
X2750Y1736D01*
X2752Y1740D01*
Y1746D01*
X2750Y1751D01*
X2746Y1755D01*
X2707Y1767D02*
X2752D01*
X2722Y1789D02*
X2743Y1767D01*
X2735Y1776D02*
X2752Y1791D01*
X2707Y1804D02*
X2743D01*
X2750Y1806D01*
X2752Y1811D01*
Y1815D01*
X2722Y1798D02*
Y1813D01*
Y1822D02*
X2743D01*
X2750Y1824D01*
X2752Y1828D01*
Y1835D01*
X2750Y1839D01*
X2743Y1845D01*
X2722D02*
X2752D01*
X2722Y1857D02*
X2752D01*
X2735D02*
X2728Y1859D01*
X2724Y1864D01*
X2722Y1868D01*
Y1874D01*
X2748Y1881D02*
X2750Y1878D01*
X2752Y1881D01*
X2750Y1883D01*
X2748Y1881D01*
X2707Y1919D02*
X2752D01*
X2728D02*
X2724Y1914D01*
X2722Y1910D01*
Y1903D01*
X2724Y1899D01*
X2728Y1895D01*
X2735Y1893D01*
X2739D01*
X2746Y1895D01*
X2750Y1899D01*
X2752Y1903D01*
Y1910D01*
X2750Y1914D01*
X2746Y1919D01*
X2735Y1931D02*
Y1957D01*
X2730D01*
X2726Y1954D01*
X2724Y1952D01*
X2722Y1948D01*
Y1941D01*
X2724Y1937D01*
X2728Y1933D01*
X2735Y1931D01*
X2739D01*
X2746Y1933D01*
X2750Y1937D01*
X2752Y1941D01*
Y1948D01*
X2750Y1952D01*
X2746Y1957D01*
X2713Y1966D02*
X2733Y2001D01*
X2752Y1966D01*
X642Y2722D02*
Y2677D01*
Y2722D02*
X661D01*
X668Y2720D01*
X670Y2718D01*
X672Y2714D01*
Y2709D01*
X670Y2705D01*
X668Y2703D01*
X661Y2701D01*
X642D01*
X657D02*
X672Y2677D01*
X682Y2722D02*
Y2677D01*
Y2722D02*
X710D01*
X682Y2701D02*
X699D01*
X715Y2722D02*
Y2677D01*
X725Y2722D02*
Y2677D01*
Y2722D02*
X740D01*
X746Y2720D01*
X751Y2716D01*
X753Y2712D01*
X755Y2705D01*
Y2694D01*
X753Y2688D01*
X751Y2684D01*
X746Y2679D01*
X740Y2677D01*
X725D01*
X765Y2697D02*
X804D01*
X817Y2722D02*
Y2677D01*
Y2722D02*
X837D01*
X843Y2720D01*
X845Y2718D01*
X847Y2714D01*
Y2709D01*
X845Y2705D01*
X843Y2703D01*
X837Y2701D01*
X817D01*
X832D02*
X847Y2677D01*
X886Y2722D02*
X858D01*
Y2677D01*
X886D01*
X858Y2701D02*
X875D01*
X928Y2677D02*
X910Y2722D01*
X893Y2677D01*
X900Y2692D02*
X921D01*
X938Y2722D02*
Y2677D01*
Y2722D02*
X953D01*
X960Y2720D01*
X964Y2716D01*
X966Y2712D01*
X968Y2705D01*
Y2694D01*
X966Y2688D01*
X964Y2684D01*
X960Y2679D01*
X953Y2677D01*
X938D01*
X1006Y2722D02*
X978D01*
Y2677D01*
X1006D01*
X978Y2701D02*
X996D01*
X1014Y2722D02*
Y2677D01*
Y2722D02*
X1033D01*
X1040Y2720D01*
X1042Y2718D01*
X1044Y2714D01*
Y2709D01*
X1042Y2705D01*
X1040Y2703D01*
X1033Y2701D01*
X1014D01*
X1029D02*
X1044Y2677D01*
X1090Y2707D02*
X1103Y2677D01*
X1116Y2707D02*
X1103Y2677D01*
X1136Y2722D02*
X1130Y2720D01*
X1125Y2714D01*
X1123Y2703D01*
Y2697D01*
X1125Y2686D01*
X1130Y2679D01*
X1136Y2677D01*
X1140D01*
X1147Y2679D01*
X1151Y2686D01*
X1153Y2697D01*
Y2703D01*
X1151Y2714D01*
X1147Y2720D01*
X1140Y2722D01*
X1136D01*
X1166Y2681D02*
X1163Y2679D01*
X1166Y2677D01*
X1168Y2679D01*
X1166Y2681D01*
X1199Y2722D02*
X1178Y2692D01*
X1210D01*
X1199Y2722D02*
Y2677D01*
X2004Y2707D02*
X2013Y2677D01*
X2021Y2707D02*
X2013Y2677D01*
X2021Y2707D02*
X2030Y2677D01*
X2038Y2707D02*
X2030Y2677D01*
X2049Y2707D02*
X2058Y2677D01*
X2066Y2707D02*
X2058Y2677D01*
X2066Y2707D02*
X2075Y2677D01*
X2083Y2707D02*
X2075Y2677D01*
X2094Y2707D02*
X2103Y2677D01*
X2111Y2707D02*
X2103Y2677D01*
X2111Y2707D02*
X2120Y2677D01*
X2129Y2707D02*
X2120Y2677D01*
X2141Y2681D02*
X2139Y2679D01*
X2141Y2677D01*
X2143Y2679D01*
X2141Y2681D01*
X2164Y2707D02*
X2160Y2705D01*
X2155Y2701D01*
X2153Y2694D01*
Y2690D01*
X2155Y2684D01*
X2160Y2679D01*
X2164Y2677D01*
X2171D01*
X2175Y2679D01*
X2179Y2684D01*
X2181Y2690D01*
Y2694D01*
X2179Y2701D01*
X2175Y2705D01*
X2171Y2707D01*
X2164D01*
X2191D02*
Y2662D01*
Y2701D02*
X2196Y2705D01*
X2200Y2707D01*
X2206D01*
X2211Y2705D01*
X2215Y2701D01*
X2217Y2694D01*
Y2690D01*
X2215Y2684D01*
X2211Y2679D01*
X2206Y2677D01*
X2200D01*
X2196Y2679D01*
X2191Y2684D01*
X2227Y2694D02*
X2253D01*
Y2699D01*
X2251Y2703D01*
X2248Y2705D01*
X2244Y2707D01*
X2238D01*
X2233Y2705D01*
X2229Y2701D01*
X2227Y2694D01*
Y2690D01*
X2229Y2684D01*
X2233Y2679D01*
X2238Y2677D01*
X2244D01*
X2248Y2679D01*
X2253Y2684D01*
X2262Y2707D02*
Y2677D01*
Y2699D02*
X2269Y2705D01*
X2273Y2707D01*
X2280D01*
X2284Y2705D01*
X2286Y2699D01*
Y2677D01*
X2298Y2707D02*
Y2662D01*
Y2701D02*
X2302Y2705D01*
X2307Y2707D01*
X2313D01*
X2317Y2705D01*
X2322Y2701D01*
X2324Y2694D01*
Y2690D01*
X2322Y2684D01*
X2317Y2679D01*
X2313Y2677D01*
X2307D01*
X2302Y2679D01*
X2298Y2684D01*
X2359Y2701D02*
X2355Y2705D01*
X2351Y2707D01*
X2344D01*
X2340Y2705D01*
X2336Y2701D01*
X2334Y2694D01*
Y2690D01*
X2336Y2684D01*
X2340Y2679D01*
X2344Y2677D01*
X2351D01*
X2355Y2679D01*
X2359Y2684D01*
X2395Y2722D02*
Y2677D01*
Y2701D02*
X2391Y2705D01*
X2386Y2707D01*
X2380D01*
X2376Y2705D01*
X2371Y2701D01*
X2369Y2694D01*
Y2690D01*
X2371Y2684D01*
X2376Y2679D01*
X2380Y2677D01*
X2386D01*
X2391Y2679D01*
X2395Y2684D01*
X2409Y2681D02*
X2407Y2679D01*
X2409Y2677D01*
X2411Y2679D01*
X2409Y2681D01*
X2432Y2707D02*
X2428Y2705D01*
X2423Y2701D01*
X2421Y2694D01*
Y2690D01*
X2423Y2684D01*
X2428Y2679D01*
X2432Y2677D01*
X2438D01*
X2443Y2679D01*
X2447Y2684D01*
X2449Y2690D01*
Y2694D01*
X2447Y2701D01*
X2443Y2705D01*
X2438Y2707D01*
X2432D01*
X2459D02*
Y2677D01*
Y2694D02*
X2461Y2701D01*
X2466Y2705D01*
X2470Y2707D01*
X2476D01*
X2506D02*
Y2673D01*
X2504Y2666D01*
X2502Y2664D01*
X2498Y2662D01*
X2491D01*
X2487Y2664D01*
X2506Y2701D02*
X2502Y2705D01*
X2498Y2707D01*
X2491D01*
X2487Y2705D01*
X2483Y2701D01*
X2481Y2694D01*
Y2690D01*
X2483Y2684D01*
X2487Y2679D01*
X2491Y2677D01*
X2498D01*
X2502Y2679D01*
X2506Y2684D01*
D48*
X1599Y199D02*
D03*
X1772D02*
D03*
D54*
X1497Y1074D02*
D03*
X1423D02*
D03*
X1460Y972D02*
D03*
X1763Y949D02*
D03*
X1800Y1051D02*
D03*
X1837Y949D02*
D03*
X1639Y1069D02*
D03*
X1676Y967D02*
D03*
X1602D02*
D03*
D55*
X1910Y1252D02*
D03*
X1949D02*
D03*
X1871D02*
D03*
X1890D02*
D03*
X1969D02*
D03*
X2008D02*
D03*
X2067D02*
D03*
X2087D02*
D03*
X2067Y1713D02*
D03*
X2048D02*
D03*
X2028D02*
D03*
X2008D02*
D03*
X1989D02*
D03*
X1969D02*
D03*
X1949D02*
D03*
X1930D02*
D03*
X1910D02*
D03*
X1890D02*
D03*
X1871D02*
D03*
X2107D02*
D03*
X2126Y1252D02*
D03*
X2107D02*
D03*
X2028D02*
D03*
X2048D02*
D03*
X2166D02*
D03*
X2146D02*
D03*
X1989D02*
D03*
X1930D02*
D03*
X2146Y1713D02*
D03*
X2087D02*
D03*
X2166D02*
D03*
X2126D02*
D03*
D56*
X1788Y1374D02*
D03*
Y1492D02*
D03*
Y1512D02*
D03*
Y1354D02*
D03*
X2249Y1630D02*
D03*
Y1492D02*
D03*
Y1374D02*
D03*
X1788Y1335D02*
D03*
Y1473D02*
D03*
Y1453D02*
D03*
Y1532D02*
D03*
Y1551D02*
D03*
Y1571D02*
D03*
Y1591D02*
D03*
Y1610D02*
D03*
Y1414D02*
D03*
X2249Y1453D02*
D03*
Y1512D02*
D03*
Y1571D02*
D03*
Y1591D02*
D03*
X1788Y1630D02*
D03*
X2249Y1551D02*
D03*
Y1354D02*
D03*
X1788Y1433D02*
D03*
X2249D02*
D03*
Y1414D02*
D03*
X1788Y1394D02*
D03*
X2249Y1610D02*
D03*
Y1335D02*
D03*
Y1473D02*
D03*
Y1394D02*
D03*
Y1532D02*
D03*
D57*
X1767Y880D02*
D03*
X1507Y1140D02*
D03*
X1627Y1324D02*
D03*
X1573Y1140D02*
D03*
X1669Y2260D02*
D03*
X1735D02*
D03*
X973Y2531D02*
D03*
X907D02*
D03*
X1113D02*
D03*
X1047D02*
D03*
X2013Y2260D02*
D03*
X1419Y2325D02*
D03*
X1485D02*
D03*
X2022Y1866D02*
D03*
X2089D02*
D03*
X1560Y1324D02*
D03*
X1647Y1660D02*
D03*
X1663Y1804D02*
D03*
X1730D02*
D03*
X1488Y1407D02*
D03*
X1421D02*
D03*
X1730Y1864D02*
D03*
X1421Y1467D02*
D03*
X807Y1591D02*
D03*
X1289Y2121D02*
D03*
X1663Y1864D02*
D03*
X1488Y1467D02*
D03*
X740Y1591D02*
D03*
X1222Y2121D02*
D03*
X527Y1739D02*
D03*
Y1419D02*
D03*
X522Y1810D02*
D03*
X662D02*
D03*
X595D02*
D03*
X862Y2121D02*
D03*
X929D02*
D03*
X1947Y2260D02*
D03*
X1833Y880D02*
D03*
X2088Y2130D02*
D03*
X2021D02*
D03*
X1741D02*
D03*
X1808D02*
D03*
X1753Y600D02*
D03*
X1687D02*
D03*
X1733Y820D02*
D03*
X1667D02*
D03*
X1693Y1380D02*
D03*
X1627D02*
D03*
X1848Y1180D02*
D03*
X1781D02*
D03*
X455Y1810D02*
D03*
X460Y1739D02*
D03*
Y1419D02*
D03*
X1713Y1660D02*
D03*
D58*
X1680Y1533D02*
D03*
X1860Y733D02*
D03*
Y667D02*
D03*
X2180Y633D02*
D03*
Y327D02*
D03*
X653Y1425D02*
D03*
Y1492D02*
D03*
X1680Y1600D02*
D03*
X1802Y1868D02*
D03*
X1438Y1924D02*
D03*
Y1997D02*
D03*
X1802Y1801D02*
D03*
X1438Y2063D02*
D03*
X653Y1732D02*
D03*
X1438Y1857D02*
D03*
X1800Y733D02*
D03*
Y667D02*
D03*
X1680Y733D02*
D03*
Y667D02*
D03*
X1740Y733D02*
D03*
Y667D02*
D03*
X1600Y747D02*
D03*
Y813D02*
D03*
X1873Y1801D02*
D03*
Y1868D02*
D03*
X2145Y1801D02*
D03*
Y1868D02*
D03*
X1940Y1133D02*
D03*
Y1067D02*
D03*
X1966Y1801D02*
D03*
Y1868D02*
D03*
X2320Y1620D02*
D03*
Y1687D02*
D03*
X653Y1665D02*
D03*
X453Y1608D02*
D03*
Y1545D02*
D03*
Y1675D02*
D03*
Y1478D02*
D03*
X2180Y567D02*
D03*
Y393D02*
D03*
X760Y2033D02*
D03*
Y1967D02*
D03*
X215Y1463D02*
D03*
Y1530D02*
D03*
X393Y1478D02*
D03*
Y1545D02*
D03*
X593Y1425D02*
D03*
Y1492D02*
D03*
X1530Y1903D02*
D03*
Y1836D02*
D03*
X393Y1608D02*
D03*
Y1675D02*
D03*
X593Y1665D02*
D03*
Y1732D02*
D03*
X215Y1687D02*
D03*
Y1620D02*
D03*
D59*
X709Y1217D02*
D03*
Y1101D02*
D03*
Y2115D02*
D03*
Y2231D02*
D03*
D60*
X769Y1159D02*
D03*
Y2173D02*
D03*
X1443Y2393D02*
D03*
D61*
X1501Y2453D02*
D03*
X1385D02*
D03*
D62*
X2080Y1800D02*
D03*
X2300Y1780D02*
D03*
X1400Y1620D02*
D03*
X2252Y1839D02*
D03*
X1360Y2120D02*
D03*
X2323Y1520D02*
D03*
D63*
X1861Y83D02*
D03*
Y298D02*
D03*
X1510D02*
D03*
Y83D02*
D03*
D64*
X2006Y2421D02*
D03*
D65*
X1749Y309D02*
D03*
X1686D02*
D03*
X1654D02*
D03*
X1717D02*
D03*
X1623D02*
D03*
D66*
X2177Y2497D02*
D03*
Y2397D02*
D03*
X2240Y2497D02*
D03*
Y2397D02*
D03*
D67*
X2177Y2463D02*
D03*
Y2431D02*
D03*
X2240Y2463D02*
D03*
Y2431D02*
D03*
D68*
X2105Y328D02*
D03*
X2030D02*
D03*
X2105Y628D02*
D03*
X2030D02*
D03*
X1643Y1720D02*
D03*
X1417Y1547D02*
D03*
X670Y1579D02*
D03*
X596D02*
D03*
X1492Y1547D02*
D03*
X1717Y1720D02*
D03*
X1537Y1620D02*
D03*
X1463D02*
D03*
D69*
X1460Y886D02*
D03*
Y634D02*
D03*
X955Y887D02*
D03*
Y636D02*
D03*
D70*
X1276Y1568D02*
D03*
X889Y1468D02*
D03*
X1276Y1068D02*
D03*
Y1118D02*
D03*
Y1168D02*
D03*
Y1218D02*
D03*
Y1268D02*
D03*
Y1318D02*
D03*
Y1368D02*
D03*
Y1468D02*
D03*
Y1618D02*
D03*
Y1668D02*
D03*
Y1768D02*
D03*
X889Y1068D02*
D03*
Y1118D02*
D03*
Y1168D02*
D03*
Y1218D02*
D03*
Y1268D02*
D03*
Y1318D02*
D03*
Y1368D02*
D03*
Y1418D02*
D03*
Y1518D02*
D03*
Y1618D02*
D03*
Y1668D02*
D03*
Y1768D02*
D03*
Y1818D02*
D03*
X1276D02*
D03*
X889Y1568D02*
D03*
X1276Y1518D02*
D03*
Y1718D02*
D03*
Y1418D02*
D03*
X889Y1718D02*
D03*
D71*
X1243Y1981D02*
D03*
X908D02*
D03*
X2081Y2000D02*
D03*
X1747D02*
D03*
D72*
X1600Y677D02*
D03*
Y603D02*
D03*
D73*
X1208Y887D02*
D03*
D74*
X1299Y627D02*
D03*
X1208D02*
D03*
D75*
X1118Y627D02*
D03*
D76*
X1534Y1768D02*
D03*
Y1693D02*
D03*
X1416D02*
D03*
Y1731D02*
D03*
Y1768D02*
D03*
D77*
X753Y1787D02*
D03*
Y1677D02*
D03*
Y1374D02*
D03*
Y1484D02*
D03*
D78*
X914Y2280D02*
D03*
X1086D02*
D03*
D79*
X2320Y2157D02*
D03*
D80*
X920Y2440D02*
D03*
X2441Y1740D02*
D03*
X305Y1675D02*
D03*
X2441Y1000D02*
D03*
Y2220D02*
D03*
D81*
X1020Y2441D02*
D03*
X1120D02*
D03*
X1220D02*
D03*
X2441Y1540D02*
D03*
Y1240D02*
D03*
Y1340D02*
D03*
Y1440D02*
D03*
Y1640D02*
D03*
Y1920D02*
D03*
Y2020D02*
D03*
X305Y1475D02*
D03*
Y1575D02*
D03*
X2341Y1000D02*
D03*
X2241D02*
D03*
X2141D02*
D03*
X2041D02*
D03*
X2441Y2120D02*
D03*
D82*
Y2441D02*
D03*
X709D02*
D03*
X2441Y709D02*
D03*
X709D02*
D03*
M02*
