%FSLAX23Y23*%
%MOIN*%
G70*
G01*
G75*
G04 Layer_Physical_Order=1*
G04 Layer_Color=255*
%ADD10C,0.089*%
%ADD11R,0.031X0.039*%
%ADD12R,0.012X0.059*%
%ADD13R,0.059X0.012*%
%ADD14R,0.043X0.039*%
%ADD15R,0.039X0.043*%
%ADD16R,0.087X0.043*%
%ADD17R,0.039X0.039*%
%ADD18R,0.043X0.087*%
%ADD19C,0.047*%
%ADD20R,0.079X0.098*%
%ADD21R,0.098X0.055*%
%ADD22R,0.118X0.055*%
%ADD23R,0.020X0.098*%
%ADD24R,0.039X0.024*%
%ADD25R,0.039X0.020*%
%ADD26R,0.051X0.059*%
%ADD27R,0.094X0.102*%
%ADD28R,0.079X0.020*%
%ADD29R,0.217X0.079*%
%ADD30R,0.059X0.051*%
%ADD31R,0.134X0.069*%
%ADD32R,0.041X0.069*%
%ADD33R,0.041X0.069*%
%ADD34R,0.047X0.024*%
%ADD35R,0.106X0.063*%
%ADD36R,0.079X0.114*%
%ADD37C,0.020*%
%ADD38C,0.012*%
%ADD39C,0.039*%
%ADD40C,0.008*%
%ADD41R,2.402X0.089*%
%ADD42R,0.089X2.411*%
%ADD43R,0.089X1.191*%
%ADD44C,0.098*%
%ADD45R,0.059X0.059*%
%ADD46C,0.059*%
%ADD47C,0.031*%
%ADD48C,0.039*%
%ADD49C,0.276*%
%ADD50C,0.035*%
G36*
X1207Y1021D02*
X1211Y1018D01*
X1216Y1017D01*
X1378D01*
Y709D01*
X867D01*
X865Y733D01*
X859Y757D01*
X849Y780D01*
X836Y802D01*
X820Y820D01*
X802Y836D01*
X780Y849D01*
X757Y859D01*
X733Y865D01*
X709Y867D01*
X684Y865D01*
X660Y859D01*
X637Y849D01*
X616Y836D01*
X597Y820D01*
X581Y802D01*
X568Y780D01*
X558Y757D01*
X556Y748D01*
X551Y749D01*
Y1024D01*
X819D01*
X821Y1022D01*
X825Y1019D01*
X831Y1017D01*
X1086D01*
X1091Y1019D01*
X1096Y1022D01*
Y1022D01*
X1096D01*
D01*
D01*
D01*
D01*
D01*
D01*
X1096D01*
D01*
X1096D01*
Y1022D01*
D01*
D01*
D01*
D01*
Y1022D01*
D01*
D01*
D01*
D01*
D01*
D01*
Y1022D01*
D01*
D01*
X1096D01*
D01*
D01*
D01*
X1098Y1024D01*
X1204D01*
X1207Y1021D01*
D02*
G37*
G36*
X1765Y1091D02*
X1765D01*
Y1012D01*
X1772D01*
X1775Y1008D01*
X1774Y1002D01*
X1776Y992D01*
X1774Y988D01*
X1727D01*
Y919D01*
X1725D01*
Y894D01*
X1665D01*
X1636Y924D01*
X1637Y927D01*
X1641D01*
Y927D01*
X1712D01*
Y1006D01*
X1641D01*
D01*
D01*
X1641Y1006D01*
X1637D01*
Y1006D01*
X1566D01*
Y991D01*
X1562Y989D01*
X1557Y992D01*
X1547Y994D01*
X1537Y992D01*
X1529Y986D01*
X1495D01*
Y1011D01*
X1425D01*
Y957D01*
X1398D01*
Y1017D01*
X1530D01*
X1535Y1018D01*
X1540Y1021D01*
X1599Y1080D01*
X1604Y1078D01*
Y1030D01*
X1674D01*
Y1055D01*
X1691D01*
X1694Y1049D01*
X1703Y1044D01*
X1713Y1042D01*
X1723Y1044D01*
X1731Y1049D01*
X1737Y1058D01*
X1739Y1068D01*
X1737Y1078D01*
X1731Y1086D01*
X1723Y1092D01*
X1714Y1094D01*
Y1094D01*
X1714Y1094D01*
X1713Y1094D01*
Y1094D01*
X1713Y1094D01*
X1765D01*
Y1091D01*
D02*
G37*
G36*
X1641Y1605D02*
X1680D01*
Y1595D01*
X1641D01*
Y1588D01*
X1637Y1585D01*
X1627Y1583D01*
X1618Y1578D01*
X1613Y1569D01*
X1611Y1559D01*
X1613Y1549D01*
X1618Y1541D01*
X1627Y1535D01*
X1637Y1533D01*
X1641Y1530D01*
Y1521D01*
X1637Y1518D01*
X1627Y1516D01*
X1618Y1511D01*
X1613Y1502D01*
X1611Y1492D01*
X1613Y1482D01*
X1618Y1474D01*
X1623Y1471D01*
Y1446D01*
X1624Y1440D01*
X1627Y1436D01*
X1639Y1424D01*
X1637Y1419D01*
X1632D01*
Y1380D01*
X1627D01*
Y1375D01*
X1585D01*
Y1363D01*
X1529D01*
Y1367D01*
X1529D01*
Y1402D01*
X1493D01*
Y1367D01*
X1518D01*
Y1363D01*
X1518D01*
Y1353D01*
X1514Y1350D01*
X1514Y1350D01*
X1504Y1348D01*
X1495Y1342D01*
X1490Y1334D01*
X1488Y1324D01*
X1490Y1314D01*
X1495Y1305D01*
X1504Y1300D01*
X1514Y1298D01*
X1514Y1298D01*
X1516Y1297D01*
X1514Y1292D01*
X1438D01*
X1389Y1341D01*
X1390Y1346D01*
X1388Y1356D01*
X1383Y1365D01*
X1381Y1366D01*
X1382Y1367D01*
D01*
D01*
D01*
Y1367D01*
D01*
D01*
D01*
X1392D01*
X1395Y1364D01*
X1397Y1354D01*
X1403Y1346D01*
X1411Y1340D01*
X1421Y1338D01*
X1431Y1340D01*
X1440Y1346D01*
X1445Y1354D01*
X1447Y1364D01*
X1450Y1367D01*
X1483D01*
Y1407D01*
X1488D01*
Y1412D01*
X1529D01*
Y1427D01*
Y1462D01*
X1488D01*
Y1472D01*
X1529D01*
Y1497D01*
X1537D01*
Y1533D01*
X1541Y1536D01*
X1546Y1535D01*
X1556Y1537D01*
X1565Y1543D01*
X1568Y1547D01*
X1569D01*
X1574Y1548D01*
X1579Y1551D01*
X1610Y1583D01*
X1613Y1587D01*
X1614Y1593D01*
Y1621D01*
X1641D01*
Y1605D01*
D02*
G37*
G36*
X1217Y1638D02*
Y1623D01*
X1276D01*
Y1613D01*
X1217D01*
Y1588D01*
Y1538D01*
Y1488D01*
Y1438D01*
Y1432D01*
X1160D01*
X1155Y1431D01*
X1150Y1428D01*
X1124Y1402D01*
X1121Y1397D01*
X1120Y1392D01*
Y1113D01*
X1121Y1108D01*
X1124Y1103D01*
X1179Y1048D01*
X1177Y1044D01*
X1098D01*
X1090Y1042D01*
X1083Y1038D01*
X1083Y1038D01*
X1048D01*
X1046Y1042D01*
X1099Y1094D01*
X1102Y1099D01*
X1103Y1104D01*
D01*
D01*
D01*
D01*
D01*
X1103D01*
D01*
D01*
D01*
D01*
Y1104D01*
X1103D01*
D01*
Y1104D01*
D01*
D01*
D01*
D01*
D01*
D01*
D01*
D01*
D01*
D01*
D01*
D01*
Y1104D01*
D01*
X1103D01*
D01*
D01*
D01*
D01*
X1103Y1104D01*
Y1502D01*
X1141Y1541D01*
X1142Y1541D01*
X1152Y1539D01*
X1162Y1541D01*
X1170Y1547D01*
X1176Y1555D01*
X1178Y1565D01*
X1176Y1575D01*
X1170Y1583D01*
X1162Y1589D01*
X1160Y1589D01*
Y1594D01*
X1163Y1595D01*
X1171Y1601D01*
X1177Y1609D01*
X1179Y1619D01*
X1178Y1624D01*
X1208Y1654D01*
X1217D01*
Y1638D01*
D02*
G37*
G36*
X2677Y2474D02*
Y675D01*
X2514Y512D01*
X2194D01*
Y525D01*
X2219D01*
Y540D01*
X2223Y544D01*
X2227Y543D01*
X2237Y545D01*
X2246Y550D01*
X2251Y559D01*
X2253Y569D01*
X2251Y579D01*
X2246Y587D01*
X2237Y593D01*
X2227Y595D01*
X2223Y594D01*
X2219Y597D01*
Y675D01*
X2150D01*
Y677D01*
X2010D01*
Y830D01*
X2015Y832D01*
X2021Y828D01*
X2031Y826D01*
X2040Y828D01*
X2049Y834D01*
X2055Y842D01*
X2057Y852D01*
X2055Y862D01*
X2049Y871D01*
X2045Y874D01*
Y903D01*
X2097Y955D01*
X2100Y960D01*
X2101Y964D01*
X2106Y965D01*
X2106Y965D01*
X2116Y957D01*
X2128Y952D01*
X2141Y950D01*
X2154Y952D01*
X2166Y957D01*
X2176Y965D01*
X2184Y975D01*
X2188Y986D01*
X2193D01*
X2198Y975D01*
X2206Y965D01*
X2216Y957D01*
X2228Y952D01*
X2241Y950D01*
X2254Y952D01*
X2266Y957D01*
X2276Y965D01*
X2284Y975D01*
X2288Y986D01*
X2293D01*
X2298Y975D01*
X2306Y965D01*
X2316Y957D01*
X2328Y952D01*
X2341Y950D01*
X2354Y952D01*
X2366Y957D01*
X2376Y965D01*
X2384Y975D01*
X2387Y982D01*
X2392Y981D01*
Y951D01*
X2436D01*
Y1000D01*
Y1049D01*
X2392D01*
Y1019D01*
X2387Y1018D01*
X2384Y1025D01*
X2376Y1035D01*
X2366Y1043D01*
X2354Y1048D01*
X2341Y1050D01*
X2328Y1048D01*
X2316Y1043D01*
X2306Y1035D01*
X2298Y1025D01*
X2293Y1014D01*
X2288D01*
X2284Y1025D01*
X2276Y1035D01*
X2266Y1043D01*
X2254Y1048D01*
X2241Y1050D01*
X2228Y1048D01*
X2216Y1043D01*
X2206Y1035D01*
X2198Y1025D01*
X2193Y1014D01*
X2188D01*
X2184Y1025D01*
X2176Y1035D01*
X2166Y1043D01*
X2154Y1048D01*
X2141Y1050D01*
X2128Y1048D01*
X2116Y1043D01*
X2106Y1035D01*
X2101Y1037D01*
Y1178D01*
X2106Y1179D01*
X2127Y1158D01*
X2127D01*
X2127Y1158D01*
X2127D01*
X2127Y1158D01*
Y1158D01*
X2127Y1158D01*
Y1158D01*
X2131Y1155D01*
X2137Y1154D01*
X2284D01*
X2290Y1155D01*
X2294Y1158D01*
X2388Y1252D01*
X2393Y1250D01*
X2391Y1240D01*
X2393Y1227D01*
X2398Y1215D01*
X2406Y1205D01*
X2416Y1197D01*
X2428Y1192D01*
X2441Y1190D01*
X2454Y1192D01*
X2466Y1197D01*
X2476Y1205D01*
X2484Y1215D01*
X2489Y1227D01*
X2491Y1240D01*
X2489Y1253D01*
X2484Y1264D01*
X2505Y1284D01*
X2508Y1289D01*
X2509Y1294D01*
Y1586D01*
X2508Y1591D01*
X2505Y1596D01*
X2484Y1616D01*
X2489Y1627D01*
X2491Y1640D01*
X2489Y1653D01*
X2484Y1665D01*
X2476Y1675D01*
X2466Y1683D01*
X2454Y1688D01*
X2441Y1690D01*
X2442Y1691D01*
X2436D01*
Y1740D01*
Y1789D01*
X2397D01*
Y1889D01*
X2402Y1890D01*
X2406Y1885D01*
X2416Y1877D01*
X2428Y1872D01*
X2436Y1871D01*
Y1920D01*
Y1969D01*
X2428Y1968D01*
X2416Y1963D01*
X2406Y1955D01*
X2402Y1950D01*
X2397Y1951D01*
Y1989D01*
X2402Y1990D01*
X2406Y1985D01*
X2416Y1977D01*
X2428Y1972D01*
X2441Y1970D01*
X2454Y1972D01*
X2466Y1977D01*
X2476Y1985D01*
X2484Y1995D01*
X2489Y2007D01*
X2491Y2020D01*
X2489Y2033D01*
X2484Y2045D01*
X2476Y2055D01*
X2466Y2063D01*
X2455Y2068D01*
Y2072D01*
X2466Y2077D01*
X2476Y2085D01*
X2484Y2095D01*
X2489Y2107D01*
X2491Y2120D01*
X2489Y2133D01*
X2484Y2145D01*
X2476Y2155D01*
X2466Y2163D01*
X2459Y2166D01*
X2460Y2171D01*
X2490D01*
Y2269D01*
X2392D01*
Y2175D01*
X2387Y2175D01*
X2384Y2184D01*
X2378Y2196D01*
X2369Y2206D01*
X2358Y2215D01*
X2346Y2221D01*
X2334Y2225D01*
X2325Y2226D01*
Y2162D01*
X2389D01*
X2388Y2167D01*
X2391Y2171D01*
X2392Y2171D01*
X2392Y2171D01*
X2392Y2171D01*
X2422D01*
X2423Y2166D01*
X2416Y2163D01*
X2406Y2155D01*
X2398Y2145D01*
X2393Y2133D01*
X2391Y2120D01*
X2393Y2107D01*
X2398Y2095D01*
X2406Y2085D01*
X2416Y2077D01*
X2427Y2072D01*
Y2068D01*
X2416Y2063D01*
X2406Y2055D01*
X2398Y2045D01*
X2393Y2033D01*
X2391Y2020D01*
X2393Y2010D01*
X2388Y2008D01*
X2311Y2084D01*
X2314Y2089D01*
X2315Y2089D01*
Y2152D01*
X2251D01*
X2251Y2151D01*
X2247Y2149D01*
X2130Y2266D01*
X2125Y2269D01*
X2120Y2270D01*
X2055D01*
Y2285D01*
X2085D01*
Y2360D01*
X2089Y2363D01*
X2098Y2361D01*
X2101Y2361D01*
X2103Y2361D01*
X2106Y2358D01*
Y2350D01*
X2102Y2347D01*
X2096Y2339D01*
X2094Y2329D01*
X2096Y2319D01*
X2102Y2310D01*
X2110Y2305D01*
X2120Y2303D01*
X2130Y2305D01*
X2139Y2310D01*
X2144Y2319D01*
X2146Y2329D01*
X2144Y2339D01*
X2139Y2347D01*
X2134Y2350D01*
Y2354D01*
X2145Y2366D01*
X2213D01*
X2216Y2362D01*
X2214Y2352D01*
X2216Y2342D01*
X2222Y2334D01*
X2230Y2328D01*
X2240Y2326D01*
X2250Y2328D01*
X2258Y2334D01*
X2264Y2342D01*
X2266Y2352D01*
X2264Y2362D01*
X2266Y2366D01*
X2279D01*
Y2402D01*
Y2423D01*
X2284Y2423D01*
X2285Y2416D01*
X2291Y2392D01*
X2300Y2369D01*
X2313Y2348D01*
X2329Y2329D01*
X2348Y2313D01*
X2369Y2300D01*
X2392Y2291D01*
X2416Y2285D01*
X2441Y2283D01*
X2466Y2285D01*
X2490Y2291D01*
X2513Y2300D01*
X2534Y2313D01*
X2553Y2329D01*
X2569Y2348D01*
X2582Y2369D01*
X2591Y2392D01*
X2597Y2416D01*
X2599Y2441D01*
X2597Y2466D01*
X2591Y2490D01*
X2582Y2513D01*
X2569Y2534D01*
X2553Y2553D01*
X2534Y2569D01*
X2513Y2582D01*
X2490Y2591D01*
X2466Y2597D01*
X2441Y2599D01*
X2416Y2597D01*
X2392Y2591D01*
X2369Y2582D01*
X2348Y2569D01*
X2329Y2553D01*
X2313Y2534D01*
X2300Y2513D01*
X2291Y2490D01*
X2285Y2466D01*
X2284Y2459D01*
X2279Y2459D01*
Y2466D01*
Y2529D01*
X2158D01*
X2100Y2587D01*
X2096Y2590D01*
X2091Y2591D01*
X2091Y2591D01*
X2091Y2591D01*
X1917D01*
X1912Y2590D01*
X1907Y2587D01*
X1882Y2561D01*
X1882Y2561D01*
X1838Y2517D01*
X1834Y2512D01*
X1833Y2507D01*
Y2400D01*
X1825Y2392D01*
X1820Y2393D01*
X1810Y2391D01*
X1802Y2386D01*
X1796Y2377D01*
X1794Y2367D01*
X1796Y2357D01*
X1800Y2351D01*
X1798Y2347D01*
X1754D01*
Y2380D01*
X1632D01*
Y2386D01*
X1637Y2389D01*
X1642Y2397D01*
X1644Y2407D01*
X1642Y2417D01*
X1637Y2426D01*
X1628Y2432D01*
X1618Y2434D01*
X1608Y2432D01*
X1600Y2426D01*
X1594Y2417D01*
X1592Y2407D01*
X1594Y2397D01*
X1600Y2389D01*
X1604Y2386D01*
Y2272D01*
X1605Y2266D01*
X1608Y2262D01*
X1624Y2246D01*
X1627Y2244D01*
Y2220D01*
X1777D01*
Y2276D01*
X1781Y2277D01*
X1789Y2283D01*
X1795Y2291D01*
X1797Y2301D01*
X1795Y2311D01*
X1793Y2314D01*
X1795Y2319D01*
X1947D01*
Y2299D01*
X1947D01*
Y2285D01*
X1952D01*
Y2260D01*
Y2220D01*
X2055D01*
Y2242D01*
X2114D01*
X2369Y1987D01*
Y1961D01*
X2364Y1959D01*
X2115Y2209D01*
X2110Y2212D01*
X2105Y2213D01*
X1717D01*
X1711Y2212D01*
X1707Y2209D01*
X1687Y2189D01*
X1687Y2189D01*
X1687Y2189D01*
X1632Y2134D01*
X1401D01*
X1398Y2142D01*
X1391Y2151D01*
X1382Y2158D01*
X1371Y2162D01*
X1360Y2164D01*
X1349Y2162D01*
X1338Y2158D01*
X1335Y2155D01*
X1330Y2157D01*
Y2160D01*
X1227D01*
Y2121D01*
Y2081D01*
X1271D01*
Y2040D01*
X1115D01*
Y1922D01*
X1258D01*
Y1848D01*
X1217D01*
Y1788D01*
Y1782D01*
X1211D01*
X1206Y1781D01*
X1201Y1778D01*
X1177Y1754D01*
X1173Y1757D01*
X1174Y1759D01*
X1176Y1769D01*
X1174Y1779D01*
X1168Y1787D01*
X1160Y1793D01*
X1150Y1795D01*
X1140Y1793D01*
X1132Y1787D01*
X1128Y1782D01*
X948D01*
Y1788D01*
Y1848D01*
X907D01*
Y1922D01*
X1036D01*
Y2040D01*
X880D01*
Y2081D01*
X924D01*
Y2121D01*
Y2160D01*
X820D01*
Y2081D01*
X844D01*
Y2040D01*
X799D01*
Y2075D01*
X789D01*
X787Y2078D01*
Y2134D01*
X808D01*
Y2212D01*
X772D01*
Y2226D01*
X646D01*
Y2190D01*
X654D01*
Y2156D01*
X646D01*
Y2120D01*
X709D01*
Y2115D01*
X714D01*
Y2074D01*
X721D01*
Y1992D01*
Y1925D01*
X746D01*
Y1924D01*
X747Y1919D01*
X750Y1914D01*
X812Y1852D01*
Y1839D01*
X703D01*
Y1850D01*
X691D01*
X688Y1854D01*
X688Y1855D01*
X686Y1865D01*
X680Y1874D01*
X672Y1879D01*
X662Y1881D01*
X652Y1879D01*
X643Y1874D01*
X638Y1865D01*
X636Y1855D01*
X636Y1854D01*
X633Y1850D01*
X472D01*
Y2474D01*
X472Y2474D01*
X472D01*
X472Y2474D01*
X636Y2638D01*
X2514D01*
X2677Y2474D01*
D02*
G37*
G36*
X1382Y1249D02*
X1382Y1249D01*
X1382Y1249D01*
X1382Y1249D01*
Y1249D01*
X1387Y1246D01*
X1392Y1245D01*
X1674D01*
X1680Y1246D01*
X1684Y1249D01*
X1701Y1265D01*
X1840D01*
X1841Y1266D01*
X1845Y1263D01*
Y1257D01*
X1865D01*
Y1247D01*
X1845D01*
Y1219D01*
X1838D01*
X1821Y1236D01*
X1816Y1239D01*
X1811Y1240D01*
X1765D01*
X1763Y1245D01*
X1754Y1250D01*
X1744Y1252D01*
X1734Y1250D01*
X1726Y1245D01*
X1720Y1236D01*
X1718Y1226D01*
X1720Y1216D01*
X1726Y1208D01*
X1734Y1202D01*
X1740Y1201D01*
Y1185D01*
X1782D01*
Y1175D01*
X1740D01*
Y1146D01*
X1615D01*
Y1179D01*
X1465D01*
Y1114D01*
X1462Y1114D01*
D01*
X1458D01*
Y1114D01*
X1428D01*
Y1074D01*
X1423D01*
Y1069D01*
X1387D01*
Y1045D01*
X1335D01*
Y1088D01*
Y1138D01*
Y1188D01*
Y1238D01*
Y1288D01*
Y1289D01*
X1340Y1291D01*
X1382Y1249D01*
D02*
G37*
G36*
X1217Y1388D02*
Y1373D01*
X1276D01*
Y1363D01*
X1217D01*
Y1338D01*
Y1294D01*
X1213Y1292D01*
X1212Y1292D01*
X1202Y1294D01*
X1192Y1292D01*
X1184Y1286D01*
X1178Y1278D01*
X1176Y1268D01*
X1178Y1258D01*
X1184Y1250D01*
X1192Y1244D01*
X1202Y1242D01*
X1212Y1244D01*
X1213Y1244D01*
X1217Y1242D01*
Y1238D01*
Y1188D01*
Y1138D01*
Y1088D01*
Y1056D01*
X1213Y1054D01*
X1148Y1119D01*
Y1386D01*
X1166Y1404D01*
X1217D01*
Y1388D01*
D02*
G37*
G36*
X1901Y1112D02*
Y1092D01*
Y1072D01*
X1940D01*
Y1067D01*
X1945D01*
Y1025D01*
X1962D01*
Y592D01*
Y592D01*
D01*
X1963Y586D01*
X1966Y582D01*
X1971Y577D01*
X1970Y572D01*
X1964Y571D01*
X1952Y566D01*
X1942Y558D01*
X1934Y548D01*
X1929Y536D01*
X1927Y523D01*
X1928Y516D01*
X1925Y512D01*
X1806D01*
X1804Y516D01*
X1873Y585D01*
X1877Y591D01*
X1878Y598D01*
Y625D01*
X1899D01*
Y665D01*
X1941Y707D01*
X1944Y711D01*
X1945Y717D01*
D01*
D01*
D01*
D01*
D01*
X1945D01*
D01*
D01*
D01*
D01*
Y717D01*
X1945D01*
D01*
Y717D01*
D01*
D01*
D01*
D01*
D01*
D01*
D01*
D01*
D01*
D01*
D01*
D01*
Y717D01*
D01*
X1945D01*
D01*
D01*
D01*
D01*
X1945Y717D01*
Y924D01*
X1944Y930D01*
X1941Y934D01*
X1874Y1001D01*
Y1048D01*
X1883Y1053D01*
X1888Y1062D01*
X1890Y1072D01*
X1888Y1082D01*
X1883Y1090D01*
X1875Y1095D01*
X1875Y1095D01*
X1880Y1098D01*
Y1098D01*
X1880D01*
D01*
D01*
D01*
D01*
D01*
D01*
X1880D01*
D01*
X1880D01*
Y1098D01*
D01*
D01*
D01*
D01*
Y1098D01*
D01*
D01*
D01*
D01*
D01*
D01*
Y1098D01*
D01*
D01*
X1880D01*
D01*
D01*
D01*
X1896Y1114D01*
X1901Y1112D01*
D02*
G37*
G36*
X1503Y2101D02*
X1502Y2100D01*
X1496Y2092D01*
X1494Y2082D01*
X1496Y2072D01*
X1502Y2063D01*
X1510Y2058D01*
X1520Y2056D01*
X1525Y2057D01*
X1561Y2021D01*
Y1944D01*
X1535D01*
Y1903D01*
X1530D01*
Y1898D01*
X1491D01*
Y1861D01*
Y1800D01*
X1490D01*
Y1799D01*
X1486Y1796D01*
X1479Y1801D01*
X1469Y1803D01*
X1460Y1801D01*
X1458Y1800D01*
X1383D01*
Y1825D01*
X1394Y1836D01*
X1399Y1834D01*
Y1815D01*
X1477D01*
Y1882D01*
Y1955D01*
Y2022D01*
Y2058D01*
X1399D01*
Y2022D01*
Y1955D01*
Y1930D01*
X1334Y1865D01*
X1331Y1861D01*
X1329Y1855D01*
Y1848D01*
X1294D01*
Y1922D01*
X1371D01*
Y2040D01*
X1307D01*
Y2081D01*
X1330D01*
Y2083D01*
X1335Y2085D01*
X1338Y2082D01*
X1349Y2078D01*
X1360Y2076D01*
X1371Y2078D01*
X1382Y2082D01*
X1391Y2089D01*
X1394Y2093D01*
X1399Y2091D01*
Y2068D01*
X1477D01*
Y2105D01*
D01*
Y2105D01*
X1479Y2106D01*
X1502D01*
X1503Y2101D01*
D02*
G37*
G36*
X1699Y2155D02*
Y2091D01*
X1733D01*
Y2059D01*
X1619D01*
Y1941D01*
X1875D01*
Y1976D01*
X1879Y1978D01*
X1896Y1961D01*
Y1909D01*
X1878D01*
Y1868D01*
X1868D01*
Y1909D01*
X1833D01*
Y1909D01*
X1763D01*
Y1903D01*
X1668D01*
Y1864D01*
X1663D01*
Y1859D01*
X1622D01*
Y1846D01*
X1617Y1843D01*
X1616Y1844D01*
X1606Y1846D01*
X1596Y1844D01*
X1593Y1842D01*
X1589Y1844D01*
Y2027D01*
X1588Y2032D01*
X1585Y2037D01*
Y2037D01*
X1585D01*
D01*
D01*
D01*
D01*
D01*
D01*
X1585Y2037D01*
D01*
X1585Y2037D01*
D01*
D01*
X1585D01*
D01*
D01*
Y2037D01*
D01*
X1545Y2077D01*
X1546Y2082D01*
X1544Y2092D01*
X1538Y2100D01*
X1530Y2106D01*
D01*
X1530D01*
Y2106D01*
D01*
D01*
X1530Y2106D01*
X1530Y2106D01*
X1638D01*
Y2106D01*
X1638Y2106D01*
X1638D01*
D01*
Y2106D01*
X1638D01*
D01*
D01*
D01*
D01*
X1643Y2107D01*
X1648Y2110D01*
X1695Y2157D01*
X1699Y2155D01*
D02*
G37*
G36*
X1537Y943D02*
X1547Y941D01*
X1557Y943D01*
X1562Y946D01*
X1566Y944D01*
Y927D01*
X1592D01*
X1649Y870D01*
X1654Y867D01*
X1659Y866D01*
X1725D01*
Y859D01*
X1672D01*
Y820D01*
X1662D01*
Y859D01*
X1625D01*
Y855D01*
X1605D01*
Y813D01*
X1600D01*
Y808D01*
X1561D01*
Y772D01*
Y723D01*
X1551D01*
Y703D01*
X1546Y701D01*
X1541Y697D01*
X1532Y688D01*
X1527Y690D01*
Y705D01*
X1401D01*
X1398Y709D01*
Y815D01*
X1455D01*
Y886D01*
X1460D01*
Y891D01*
X1527D01*
Y945D01*
X1531Y947D01*
X1537Y943D01*
D02*
G37*
G36*
X2110Y2174D02*
X2108Y2169D01*
X2026D01*
Y2130D01*
Y2091D01*
X2067D01*
Y2059D01*
X1953D01*
Y2006D01*
X1924Y1977D01*
X1920Y1977D01*
X1887Y2010D01*
X1882Y2013D01*
X1877Y2014D01*
X1875D01*
Y2059D01*
X1761D01*
Y2091D01*
X1803D01*
Y2130D01*
Y2169D01*
X1714D01*
X1712Y2174D01*
X1722Y2185D01*
X2099D01*
X2110Y2174D01*
D02*
G37*
G36*
X2347Y1937D02*
Y1792D01*
X2342Y1791D01*
X2338Y1802D01*
X2331Y1811D01*
X2322Y1818D01*
X2311Y1822D01*
X2300Y1824D01*
X2297Y1823D01*
X2294Y1827D01*
X2296Y1839D01*
X2294Y1850D01*
X2290Y1860D01*
X2283Y1869D01*
X2274Y1876D01*
X2263Y1881D01*
X2252Y1882D01*
X2241Y1881D01*
X2230Y1876D01*
X2221Y1869D01*
X2214Y1860D01*
X2210Y1850D01*
X2208Y1839D01*
X2210Y1827D01*
X2211Y1824D01*
X2207Y1821D01*
X2204Y1823D01*
X2194Y1825D01*
X2188Y1824D01*
X2184Y1827D01*
Y1863D01*
X2145D01*
Y1868D01*
X2140D01*
Y1909D01*
X2106D01*
Y1906D01*
X2027D01*
Y1866D01*
X2017D01*
Y1906D01*
X2005D01*
Y1909D01*
X1971D01*
Y1868D01*
X1961D01*
Y1909D01*
X1944D01*
Y1956D01*
X1949Y1961D01*
X1953Y1960D01*
Y1941D01*
X2209D01*
Y2059D01*
X2095D01*
Y2091D01*
X2129D01*
Y2148D01*
X2134Y2150D01*
X2347Y1937D01*
D02*
G37*
G36*
X1099Y1750D02*
X1094Y1742D01*
X1092Y1732D01*
X1094Y1722D01*
X1100Y1714D01*
X1108Y1708D01*
X1118Y1706D01*
X1128Y1708D01*
X1137Y1714D01*
X1140Y1718D01*
X1175D01*
X1181Y1719D01*
X1185Y1722D01*
X1213Y1750D01*
X1217Y1748D01*
Y1738D01*
Y1688D01*
Y1682D01*
X1202D01*
X1196Y1681D01*
X1192Y1678D01*
X1158Y1644D01*
X1153Y1645D01*
X1143Y1643D01*
X1135Y1638D01*
X1129Y1629D01*
X1127Y1619D01*
X1129Y1609D01*
X1135Y1601D01*
X1143Y1595D01*
X1145Y1595D01*
Y1590D01*
X1142Y1589D01*
X1133Y1583D01*
X1127Y1575D01*
X1125Y1565D01*
X1126Y1565D01*
X1079Y1518D01*
X1076Y1513D01*
X1075Y1508D01*
Y1110D01*
X1010Y1046D01*
X948D01*
Y1088D01*
Y1138D01*
Y1188D01*
Y1195D01*
X952Y1197D01*
X957Y1194D01*
X967Y1192D01*
X977Y1194D01*
X985Y1200D01*
X991Y1209D01*
X993Y1219D01*
X991Y1228D01*
X985Y1237D01*
X977Y1243D01*
X967Y1245D01*
X957Y1243D01*
X952Y1240D01*
X948Y1242D01*
Y1263D01*
X830D01*
Y1238D01*
Y1188D01*
Y1138D01*
Y1088D01*
Y1059D01*
X825Y1057D01*
X783Y1099D01*
Y1119D01*
X808D01*
Y1198D01*
X772D01*
Y1212D01*
X646D01*
Y1175D01*
X654D01*
Y1142D01*
X646D01*
Y1106D01*
X709D01*
Y1101D01*
X714D01*
Y1059D01*
X772D01*
Y1064D01*
X776Y1066D01*
X794Y1048D01*
X792Y1044D01*
X551D01*
X544Y1042D01*
X537Y1038D01*
X533Y1031D01*
X531Y1024D01*
Y749D01*
X532Y746D01*
X532Y743D01*
X532Y742D01*
X533Y741D01*
X534Y739D01*
X535Y736D01*
X536Y735D01*
X537Y734D01*
X539Y733D01*
X541Y731D01*
X543Y731D01*
X544Y730D01*
X546Y729D01*
X549Y729D01*
X552Y728D01*
X551Y709D01*
X553Y684D01*
X558Y660D01*
X568Y637D01*
X581Y616D01*
X597Y597D01*
X616Y581D01*
X637Y568D01*
X660Y558D01*
X684Y553D01*
X709Y551D01*
X733Y553D01*
X757Y558D01*
X780Y568D01*
X802Y581D01*
X820Y597D01*
X836Y616D01*
X849Y637D01*
X859Y660D01*
X865Y684D01*
X865Y687D01*
X867Y689D01*
X889D01*
Y641D01*
X1022D01*
Y689D01*
X1181D01*
Y681D01*
X1168D01*
Y573D01*
X1249D01*
Y681D01*
X1236D01*
Y689D01*
X1378D01*
X1386Y690D01*
X1389Y692D01*
X1393Y690D01*
Y655D01*
X1339D01*
Y681D01*
X1259D01*
Y573D01*
X1339D01*
Y599D01*
X1366D01*
X1369Y599D01*
X1372Y599D01*
X1393D01*
Y563D01*
X1527D01*
Y608D01*
X1531Y610D01*
X1537Y614D01*
X1546Y624D01*
X1551Y622D01*
Y557D01*
X1604D01*
Y512D01*
X636D01*
X472Y675D01*
Y1379D01*
X568D01*
Y1384D01*
X632D01*
Y1384D01*
X680D01*
Y1323D01*
X826D01*
Y1323D01*
X826D01*
X830Y1319D01*
Y1288D01*
Y1273D01*
X948D01*
Y1288D01*
Y1301D01*
X951Y1301D01*
X957Y1305D01*
X965Y1313D01*
X968Y1313D01*
X977Y1319D01*
X982Y1328D01*
X984Y1338D01*
X982Y1348D01*
X977Y1356D01*
X972Y1359D01*
X971Y1361D01*
X951Y1381D01*
X948Y1383D01*
Y1388D01*
Y1413D01*
X889D01*
Y1423D01*
X948D01*
Y1438D01*
Y1463D01*
X889D01*
Y1473D01*
X948D01*
Y1488D01*
Y1538D01*
Y1588D01*
Y1638D01*
Y1640D01*
X952Y1643D01*
X960Y1641D01*
X970Y1643D01*
X978Y1649D01*
X984Y1657D01*
X986Y1667D01*
X984Y1677D01*
X978Y1686D01*
X970Y1691D01*
X968Y1692D01*
Y1694D01*
X976Y1700D01*
X982Y1708D01*
X984Y1718D01*
X982Y1728D01*
X976Y1736D01*
X968Y1742D01*
X958Y1744D01*
X952Y1743D01*
X948Y1746D01*
Y1754D01*
X1097D01*
X1099Y1750D01*
D02*
G37*
G36*
X1947Y2469D02*
X1927D01*
Y2426D01*
X2006D01*
Y2416D01*
X1927D01*
Y2396D01*
X1923Y2393D01*
X1920Y2393D01*
X1915Y2392D01*
X1884Y2423D01*
Y2495D01*
X1932Y2543D01*
X1947D01*
Y2469D01*
D02*
G37*
G36*
X2199Y1585D02*
Y1577D01*
Y1571D01*
X2195Y1568D01*
X2188Y1570D01*
X2178Y1568D01*
X2170Y1562D01*
X2164Y1553D01*
X2162Y1543D01*
X2163Y1542D01*
X2159Y1538D01*
X2156Y1539D01*
X2146Y1537D01*
X2137Y1531D01*
X2131Y1523D01*
X2129Y1513D01*
X2131Y1503D01*
X2137Y1494D01*
X2140Y1492D01*
Y1487D01*
X2138Y1486D01*
X2136Y1484D01*
X2132Y1485D01*
X2130Y1490D01*
X2125Y1499D01*
X2116Y1504D01*
X2106Y1506D01*
X2096Y1504D01*
X2088Y1499D01*
X2082Y1490D01*
X2080Y1480D01*
X2082Y1470D01*
X2088Y1462D01*
X2092Y1459D01*
Y1408D01*
X2093Y1403D01*
X2096Y1399D01*
X2131Y1364D01*
X2135Y1361D01*
X2141Y1360D01*
X2199D01*
Y1349D01*
Y1329D01*
Y1309D01*
X2285D01*
X2286Y1306D01*
X2292Y1297D01*
X2300Y1292D01*
X2310Y1290D01*
X2320Y1292D01*
X2328Y1297D01*
X2334Y1306D01*
X2336Y1316D01*
X2334Y1326D01*
X2328Y1334D01*
X2320Y1340D01*
X2310Y1342D01*
X2303Y1341D01*
X2299Y1345D01*
X2298Y1346D01*
Y1347D01*
X2302Y1350D01*
X2303Y1349D01*
X2313Y1347D01*
X2323Y1349D01*
X2331Y1355D01*
X2337Y1363D01*
X2339Y1373D01*
X2337Y1383D01*
X2331Y1391D01*
X2323Y1397D01*
X2314Y1399D01*
Y1399D01*
X2314Y1399D01*
X2313Y1399D01*
Y1399D01*
X2313Y1399D01*
X2338D01*
X2343Y1401D01*
X2348Y1404D01*
X2387Y1443D01*
X2391Y1441D01*
X2391Y1440D01*
X2393Y1427D01*
X2397Y1416D01*
X2388Y1407D01*
X2387Y1407D01*
X2383Y1404D01*
X2365Y1386D01*
X2362Y1381D01*
X2361Y1376D01*
Y1296D01*
X2268Y1203D01*
X2191D01*
Y1301D01*
X2080D01*
X2077Y1306D01*
X2054Y1329D01*
X2050Y1332D01*
X2044Y1333D01*
X1936D01*
X1933Y1337D01*
X1936Y1340D01*
X1938Y1350D01*
X1936Y1360D01*
X1930Y1369D01*
X1921Y1374D01*
X1911Y1376D01*
X1901Y1374D01*
X1893Y1369D01*
X1887Y1360D01*
X1886Y1354D01*
X1881Y1354D01*
X1879Y1357D01*
X1881Y1360D01*
X1883Y1370D01*
X1881Y1380D01*
X1876Y1389D01*
X1867Y1394D01*
X1857Y1396D01*
X1858Y1397D01*
X2031D01*
X2037Y1398D01*
X2041Y1401D01*
Y1401D01*
X2041D01*
D01*
D01*
D01*
D01*
D01*
D01*
X2041D01*
D01*
X2041D01*
Y1401D01*
D01*
D01*
D01*
D01*
Y1401D01*
D01*
D01*
D01*
D01*
D01*
D01*
Y1401D01*
D01*
D01*
X2041D01*
D01*
D01*
D01*
X2060Y1420D01*
X2063Y1425D01*
X2064Y1430D01*
D01*
D01*
D01*
D01*
D01*
X2064D01*
D01*
D01*
D01*
D01*
Y1430D01*
X2064D01*
D01*
Y1430D01*
D01*
D01*
D01*
D01*
D01*
D01*
D01*
D01*
D01*
D01*
D01*
D01*
Y1430D01*
D01*
X2064D01*
D01*
D01*
D01*
D01*
X2064Y1430D01*
Y1514D01*
X2147Y1596D01*
X2199D01*
Y1585D01*
D02*
G37*
G36*
X1968Y1654D02*
X1973Y1651D01*
X1978Y1650D01*
X1980D01*
X1986Y1651D01*
X1990Y1654D01*
X1994Y1652D01*
Y1501D01*
X1968Y1475D01*
X1963Y1476D01*
X1953Y1474D01*
X1944Y1468D01*
X1938Y1460D01*
X1937Y1450D01*
X1938Y1440D01*
X1944Y1431D01*
X1946Y1430D01*
X1944Y1425D01*
X1874D01*
X1872Y1430D01*
X1874Y1431D01*
X1879Y1440D01*
X1881Y1450D01*
X1879Y1460D01*
X1874Y1468D01*
X1865Y1474D01*
X1858Y1475D01*
X1858Y1476D01*
X1858Y1476D01*
X1858D01*
X1868Y1478D01*
X1877Y1484D01*
X1882Y1492D01*
X1884Y1502D01*
X1882Y1512D01*
X1877Y1520D01*
X1868Y1526D01*
X1868Y1526D01*
X1868Y1526D01*
X1868Y1526D01*
X1869Y1531D01*
X1873Y1532D01*
X1882Y1538D01*
X1887Y1546D01*
X1889Y1556D01*
X1889Y1557D01*
X1893Y1561D01*
X1898Y1560D01*
X1908Y1562D01*
X1916Y1567D01*
X1922Y1576D01*
X1924Y1586D01*
X1922Y1596D01*
X1916Y1604D01*
X1908Y1610D01*
X1898Y1612D01*
X1888Y1610D01*
X1880Y1605D01*
X1837D01*
Y1653D01*
X1881D01*
X1886Y1654D01*
X1891Y1657D01*
X1897Y1664D01*
X1959D01*
X1968Y1654D01*
D02*
G37*
G36*
X554Y1691D02*
Y1670D01*
X593D01*
Y1660D01*
X554D01*
Y1628D01*
X550D01*
Y1606D01*
X547Y1603D01*
X538Y1605D01*
X528Y1603D01*
X520Y1597D01*
X514Y1589D01*
X512Y1579D01*
X514Y1569D01*
X520Y1560D01*
X528Y1554D01*
X538Y1552D01*
X547Y1554D01*
X550Y1551D01*
Y1529D01*
X554D01*
Y1497D01*
X593D01*
Y1487D01*
X554D01*
Y1466D01*
Y1458D01*
X492D01*
Y1504D01*
Y1540D01*
X453D01*
Y1550D01*
X492D01*
Y1567D01*
Y1603D01*
X453D01*
Y1613D01*
X492D01*
Y1634D01*
Y1699D01*
X554D01*
Y1691D01*
D02*
G37*
%LPC*%
G36*
X2490Y1789D02*
X2446D01*
Y1745D01*
X2490D01*
Y1789D01*
D02*
G37*
G36*
X1658Y1903D02*
X1622D01*
Y1869D01*
X1658D01*
Y1903D01*
D02*
G37*
G36*
X1622Y1419D02*
X1585D01*
Y1385D01*
X1622D01*
Y1419D01*
D02*
G37*
G36*
X2490Y1735D02*
X2446D01*
Y1691D01*
X2490D01*
Y1735D01*
D02*
G37*
G36*
X772Y1258D02*
X714D01*
Y1222D01*
X772D01*
Y1258D01*
D02*
G37*
G36*
X1158Y622D02*
X1123D01*
Y573D01*
X1158D01*
Y622D01*
D02*
G37*
G36*
X1113Y681D02*
X1077D01*
Y632D01*
X1113D01*
Y681D01*
D02*
G37*
G36*
X1158D02*
X1123D01*
Y632D01*
X1158D01*
Y681D01*
D02*
G37*
G36*
X1113Y622D02*
X1077D01*
Y573D01*
X1113D01*
Y622D01*
D02*
G37*
G36*
X2441Y867D02*
X2416Y865D01*
X2392Y859D01*
X2369Y849D01*
X2348Y836D01*
X2329Y820D01*
X2313Y802D01*
X2300Y780D01*
X2291Y757D01*
X2285Y733D01*
X2283Y709D01*
X2285Y684D01*
X2291Y660D01*
X2300Y637D01*
X2313Y616D01*
X2329Y597D01*
X2348Y581D01*
X2369Y568D01*
X2392Y558D01*
X2416Y553D01*
X2441Y551D01*
X2466Y553D01*
X2490Y558D01*
X2513Y568D01*
X2534Y581D01*
X2553Y597D01*
X2569Y616D01*
X2582Y637D01*
X2591Y660D01*
X2597Y684D01*
X2599Y709D01*
X2597Y733D01*
X2591Y757D01*
X2582Y780D01*
X2569Y802D01*
X2553Y820D01*
X2534Y836D01*
X2513Y849D01*
X2490Y859D01*
X2466Y865D01*
X2441Y867D01*
D02*
G37*
G36*
X950Y631D02*
X889D01*
Y565D01*
X950D01*
Y631D01*
D02*
G37*
G36*
X1022D02*
X960D01*
Y565D01*
X1022D01*
Y631D01*
D02*
G37*
G36*
X1527Y881D02*
X1465D01*
Y815D01*
X1527D01*
Y881D01*
D02*
G37*
G36*
X704Y1096D02*
X646D01*
Y1059D01*
X704D01*
Y1096D01*
D02*
G37*
G36*
X1418Y1114D02*
X1387D01*
Y1079D01*
X1418D01*
Y1114D01*
D02*
G37*
G36*
X704Y1258D02*
X646D01*
Y1222D01*
X704D01*
Y1258D01*
D02*
G37*
G36*
X1935Y1062D02*
X1901D01*
Y1025D01*
X1935D01*
Y1062D01*
D02*
G37*
G36*
X1595Y855D02*
X1561D01*
Y818D01*
X1595D01*
Y855D01*
D02*
G37*
G36*
X2490Y995D02*
X2446D01*
Y951D01*
X2490D01*
Y995D01*
D02*
G37*
G36*
Y1049D02*
X2446D01*
Y1005D01*
X2490D01*
Y1049D01*
D02*
G37*
G36*
X1081Y2357D02*
X1027D01*
Y2285D01*
X1081D01*
Y2357D01*
D02*
G37*
G36*
X1942Y2299D02*
X1905D01*
Y2265D01*
X1942D01*
Y2299D01*
D02*
G37*
G36*
X1380Y2448D02*
X1344D01*
Y2390D01*
X1380D01*
Y2448D01*
D02*
G37*
G36*
X1145Y2357D02*
X1091D01*
Y2285D01*
X1145D01*
Y2357D01*
D02*
G37*
G36*
X1942Y2255D02*
X1905D01*
Y2220D01*
X1942D01*
Y2255D01*
D02*
G37*
G36*
X1145Y2275D02*
X1091D01*
Y2203D01*
X1145D01*
Y2275D01*
D02*
G37*
G36*
X772Y2272D02*
X714D01*
Y2236D01*
X772D01*
Y2272D01*
D02*
G37*
G36*
X704D02*
X646D01*
Y2236D01*
X704D01*
Y2272D01*
D02*
G37*
G36*
X1543Y2516D02*
X1506D01*
Y2458D01*
X1543D01*
Y2516D01*
D02*
G37*
G36*
X1380D02*
X1344D01*
Y2458D01*
X1380D01*
Y2516D01*
D02*
G37*
G36*
X1496D02*
X1460D01*
Y2508D01*
X1427D01*
Y2516D01*
X1390D01*
Y2453D01*
Y2390D01*
X1404D01*
Y2364D01*
X1377D01*
Y2363D01*
X1373Y2360D01*
X1368Y2361D01*
X1358Y2359D01*
X1350Y2353D01*
X1344Y2345D01*
X1342Y2335D01*
X1344Y2325D01*
X1350Y2316D01*
X1358Y2311D01*
X1368Y2309D01*
X1373Y2310D01*
X1377Y2306D01*
Y2285D01*
X1527D01*
Y2364D01*
X1483D01*
Y2390D01*
X1496D01*
Y2453D01*
Y2516D01*
D02*
G37*
G36*
X1754Y2557D02*
X1616D01*
Y2509D01*
X1580Y2473D01*
X1575Y2474D01*
X1565Y2472D01*
X1556Y2466D01*
X1551Y2458D01*
X1549Y2448D01*
X1551Y2438D01*
X1556Y2429D01*
X1565Y2424D01*
X1575Y2422D01*
X1585Y2424D01*
X1593Y2429D01*
X1599Y2438D01*
X1601Y2448D01*
X1600Y2453D01*
X1612Y2465D01*
X1616Y2463D01*
Y2463D01*
X1754D01*
Y2557D01*
D02*
G37*
G36*
X1269Y2436D02*
X1225D01*
Y2392D01*
X1233Y2393D01*
X1245Y2398D01*
X1255Y2406D01*
X1263Y2416D01*
X1268Y2428D01*
X1269Y2436D01*
D02*
G37*
G36*
X1543Y2448D02*
X1506D01*
Y2390D01*
X1543D01*
Y2448D01*
D02*
G37*
G36*
X1021Y2618D02*
X939D01*
X932Y2617D01*
X925Y2615D01*
X919Y2610D01*
X888Y2579D01*
X883Y2573D01*
X883Y2571D01*
X865D01*
Y2492D01*
X871D01*
Y2489D01*
X871D01*
Y2452D01*
X866Y2452D01*
X865Y2466D01*
X859Y2490D01*
X849Y2513D01*
X836Y2534D01*
X820Y2553D01*
X802Y2569D01*
X780Y2582D01*
X757Y2591D01*
X733Y2597D01*
X709Y2599D01*
X684Y2597D01*
X660Y2591D01*
X637Y2582D01*
X616Y2569D01*
X597Y2553D01*
X581Y2534D01*
X568Y2513D01*
X558Y2490D01*
X553Y2466D01*
X551Y2441D01*
X553Y2416D01*
X558Y2392D01*
X568Y2369D01*
X581Y2348D01*
X597Y2329D01*
X616Y2313D01*
X637Y2300D01*
X660Y2291D01*
X684Y2285D01*
X709Y2283D01*
X733Y2285D01*
X757Y2291D01*
X780Y2300D01*
X802Y2313D01*
X820Y2329D01*
X836Y2348D01*
X849Y2369D01*
X859Y2392D01*
X865Y2416D01*
X866Y2430D01*
X871Y2430D01*
Y2391D01*
X892D01*
Y2357D01*
X855D01*
Y2203D01*
X973D01*
Y2357D01*
X948D01*
Y2391D01*
X969D01*
Y2422D01*
X974Y2423D01*
X977Y2416D01*
X985Y2406D01*
X995Y2398D01*
X1007Y2393D01*
X1020Y2391D01*
X1033Y2393D01*
X1045Y2398D01*
X1055Y2406D01*
X1063Y2416D01*
X1067Y2427D01*
X1072D01*
X1077Y2416D01*
X1085Y2406D01*
X1095Y2398D01*
X1107Y2393D01*
X1120Y2391D01*
X1133Y2393D01*
X1145Y2398D01*
X1155Y2406D01*
X1163Y2416D01*
X1168Y2427D01*
X1173D01*
X1177Y2416D01*
X1185Y2406D01*
X1195Y2398D01*
X1207Y2393D01*
X1215Y2392D01*
Y2441D01*
Y2490D01*
X1207Y2489D01*
X1195Y2484D01*
X1185Y2476D01*
X1177Y2466D01*
X1173Y2455D01*
X1168D01*
X1163Y2466D01*
X1155Y2476D01*
X1145Y2484D01*
X1134Y2488D01*
Y2492D01*
X1155D01*
Y2571D01*
X1074D01*
X1073Y2572D01*
X1071Y2579D01*
X1066Y2584D01*
X1040Y2610D01*
X1035Y2615D01*
X1028Y2617D01*
X1021Y2618D01*
D02*
G37*
G36*
X1225Y2490D02*
Y2446D01*
X1269D01*
X1268Y2454D01*
X1263Y2466D01*
X1255Y2476D01*
X1245Y2484D01*
X1233Y2489D01*
X1225Y2490D01*
D02*
G37*
G36*
X970Y2116D02*
X934D01*
Y2081D01*
X970D01*
Y2116D01*
D02*
G37*
G36*
X704Y2110D02*
X646D01*
Y2074D01*
X704D01*
Y2110D01*
D02*
G37*
G36*
X2389Y2152D02*
X2325D01*
Y2089D01*
X2334Y2090D01*
X2346Y2094D01*
X2358Y2100D01*
X2369Y2109D01*
X2378Y2119D01*
X2384Y2131D01*
X2388Y2144D01*
X2389Y2152D01*
D02*
G37*
G36*
X1217Y2116D02*
X1180D01*
Y2081D01*
X1217D01*
Y2116D01*
D02*
G37*
G36*
X2184Y1909D02*
X2150D01*
Y1873D01*
X2184D01*
Y1909D01*
D02*
G37*
G36*
X2490Y1915D02*
X2446D01*
Y1871D01*
X2454Y1872D01*
X2466Y1877D01*
X2476Y1885D01*
X2484Y1895D01*
X2489Y1907D01*
X2490Y1915D01*
D02*
G37*
G36*
X2446Y1969D02*
Y1925D01*
X2490D01*
X2489Y1933D01*
X2484Y1945D01*
X2476Y1955D01*
X2466Y1963D01*
X2454Y1968D01*
X2446Y1969D01*
D02*
G37*
G36*
X1525Y1944D02*
X1491D01*
Y1908D01*
X1525D01*
Y1944D01*
D02*
G37*
G36*
X2016Y2169D02*
X1979D01*
Y2135D01*
X2016D01*
Y2169D01*
D02*
G37*
G36*
X1849D02*
X1813D01*
Y2135D01*
X1849D01*
Y2169D01*
D02*
G37*
G36*
X1081Y2275D02*
X1027D01*
Y2203D01*
X1081D01*
Y2275D01*
D02*
G37*
G36*
X2315Y2226D02*
X2306Y2225D01*
X2294Y2221D01*
X2282Y2215D01*
X2271Y2206D01*
X2262Y2196D01*
X2256Y2184D01*
X2252Y2171D01*
X2251Y2162D01*
X2315D01*
Y2226D01*
D02*
G37*
G36*
X2016Y2125D02*
X1979D01*
Y2091D01*
X2016D01*
Y2125D01*
D02*
G37*
G36*
X1849D02*
X1813D01*
Y2091D01*
X1849D01*
Y2125D01*
D02*
G37*
G36*
X1217Y2160D02*
X1180D01*
Y2126D01*
X1217D01*
Y2160D01*
D02*
G37*
G36*
X970D02*
X934D01*
Y2126D01*
X970D01*
Y2160D01*
D02*
G37*
%LPD*%
D10*
X3066Y2776D02*
G03*
X2776Y3066I-290J0D01*
G01*
X374D02*
G03*
X84Y2776I0J-290D01*
G01*
X2776Y84D02*
G03*
X3066Y374I0J290D01*
G01*
X84D02*
G03*
X374Y84I290J0D01*
G01*
X374Y3066D02*
X2805D01*
D11*
X1497Y1074D02*
D03*
X1423D02*
D03*
X1460Y972D02*
D03*
X1763Y949D02*
D03*
X1800Y1051D02*
D03*
X1837Y949D02*
D03*
X1639Y1069D02*
D03*
X1676Y967D02*
D03*
X1602D02*
D03*
D12*
X1910Y1252D02*
D03*
X1949D02*
D03*
X1871D02*
D03*
X1890D02*
D03*
X1969D02*
D03*
X2008D02*
D03*
X2067D02*
D03*
X2087D02*
D03*
X2067Y1713D02*
D03*
X2048D02*
D03*
X2028D02*
D03*
X2008D02*
D03*
X1989D02*
D03*
X1969D02*
D03*
X1949D02*
D03*
X1930D02*
D03*
X1910D02*
D03*
X1890D02*
D03*
X1871D02*
D03*
X2107D02*
D03*
X2126Y1252D02*
D03*
X2107D02*
D03*
X2028D02*
D03*
X2048D02*
D03*
X2166D02*
D03*
X2146D02*
D03*
X1989D02*
D03*
X1930D02*
D03*
X2146Y1713D02*
D03*
X2087D02*
D03*
X2166D02*
D03*
X2126D02*
D03*
D13*
X1788Y1374D02*
D03*
Y1492D02*
D03*
Y1512D02*
D03*
Y1354D02*
D03*
X2249Y1630D02*
D03*
Y1492D02*
D03*
Y1374D02*
D03*
X1788Y1335D02*
D03*
Y1473D02*
D03*
Y1453D02*
D03*
Y1532D02*
D03*
Y1551D02*
D03*
Y1571D02*
D03*
Y1591D02*
D03*
Y1610D02*
D03*
Y1414D02*
D03*
X2249Y1453D02*
D03*
Y1512D02*
D03*
Y1571D02*
D03*
Y1591D02*
D03*
X1788Y1630D02*
D03*
X2249Y1551D02*
D03*
Y1354D02*
D03*
X1788Y1433D02*
D03*
X2249D02*
D03*
Y1414D02*
D03*
X1788Y1394D02*
D03*
X2249Y1610D02*
D03*
Y1335D02*
D03*
Y1473D02*
D03*
Y1394D02*
D03*
Y1532D02*
D03*
D14*
X1767Y880D02*
D03*
X1507Y1140D02*
D03*
X1627Y1324D02*
D03*
X1573Y1140D02*
D03*
X1669Y2260D02*
D03*
X1735D02*
D03*
X973Y2531D02*
D03*
X907D02*
D03*
X1113D02*
D03*
X1047D02*
D03*
X2013Y2260D02*
D03*
X1419Y2325D02*
D03*
X1485D02*
D03*
X2022Y1866D02*
D03*
X2089D02*
D03*
X1560Y1324D02*
D03*
X1647Y1660D02*
D03*
X1663Y1804D02*
D03*
X1730D02*
D03*
X1488Y1407D02*
D03*
X1421D02*
D03*
X1730Y1864D02*
D03*
X1421Y1467D02*
D03*
X807Y1591D02*
D03*
X1289Y2121D02*
D03*
X1663Y1864D02*
D03*
X1488Y1467D02*
D03*
X740Y1591D02*
D03*
X1222Y2121D02*
D03*
X527Y1739D02*
D03*
Y1419D02*
D03*
X522Y1810D02*
D03*
X662D02*
D03*
X595D02*
D03*
X862Y2121D02*
D03*
X929D02*
D03*
X1947Y2260D02*
D03*
X1833Y880D02*
D03*
X2088Y2130D02*
D03*
X2021D02*
D03*
X1741D02*
D03*
X1808D02*
D03*
X1753Y600D02*
D03*
X1687D02*
D03*
X1733Y820D02*
D03*
X1667D02*
D03*
X1693Y1380D02*
D03*
X1627D02*
D03*
X1848Y1180D02*
D03*
X1781D02*
D03*
X455Y1810D02*
D03*
X460Y1739D02*
D03*
Y1419D02*
D03*
X1713Y1660D02*
D03*
D15*
X1680Y1533D02*
D03*
X1860Y733D02*
D03*
Y667D02*
D03*
X2180Y633D02*
D03*
Y327D02*
D03*
X653Y1425D02*
D03*
Y1492D02*
D03*
X1680Y1600D02*
D03*
X1802Y1868D02*
D03*
X1438Y1924D02*
D03*
Y1997D02*
D03*
X1802Y1801D02*
D03*
X1438Y2063D02*
D03*
X653Y1732D02*
D03*
X1438Y1857D02*
D03*
X1800Y733D02*
D03*
Y667D02*
D03*
X1680Y733D02*
D03*
Y667D02*
D03*
X1740Y733D02*
D03*
Y667D02*
D03*
X1600Y747D02*
D03*
Y813D02*
D03*
X1873Y1801D02*
D03*
Y1868D02*
D03*
X2145Y1801D02*
D03*
Y1868D02*
D03*
X1940Y1133D02*
D03*
Y1067D02*
D03*
X1966Y1801D02*
D03*
Y1868D02*
D03*
X2320Y1620D02*
D03*
Y1687D02*
D03*
X653Y1665D02*
D03*
X453Y1608D02*
D03*
Y1545D02*
D03*
Y1675D02*
D03*
Y1478D02*
D03*
X2180Y567D02*
D03*
Y393D02*
D03*
X760Y2033D02*
D03*
Y1967D02*
D03*
X215Y1463D02*
D03*
Y1530D02*
D03*
X393Y1478D02*
D03*
Y1545D02*
D03*
X593Y1425D02*
D03*
Y1492D02*
D03*
X1530Y1903D02*
D03*
Y1836D02*
D03*
X393Y1608D02*
D03*
Y1675D02*
D03*
X593Y1665D02*
D03*
Y1732D02*
D03*
X215Y1687D02*
D03*
Y1620D02*
D03*
D16*
X709Y1217D02*
D03*
Y1101D02*
D03*
Y2115D02*
D03*
Y2231D02*
D03*
D17*
X769Y1159D02*
D03*
Y2173D02*
D03*
X1443Y2393D02*
D03*
D18*
X1501Y2453D02*
D03*
X1385D02*
D03*
D19*
X2080Y1800D02*
D03*
X2300Y1780D02*
D03*
X1400Y1620D02*
D03*
X2252Y1839D02*
D03*
X1360Y2120D02*
D03*
X2323Y1520D02*
D03*
D20*
X1861Y83D02*
D03*
Y298D02*
D03*
X1510D02*
D03*
Y83D02*
D03*
D21*
X1685Y2510D02*
D03*
X2016D02*
D03*
X1685Y2333D02*
D03*
X2016D02*
D03*
D22*
X2006Y2421D02*
D03*
D23*
X1749Y309D02*
D03*
X1686D02*
D03*
X1654D02*
D03*
X1717D02*
D03*
X1623D02*
D03*
D24*
X2177Y2497D02*
D03*
Y2397D02*
D03*
X2240Y2497D02*
D03*
Y2397D02*
D03*
D25*
X2177Y2463D02*
D03*
Y2431D02*
D03*
X2240Y2463D02*
D03*
Y2431D02*
D03*
D26*
X2105Y328D02*
D03*
X2030D02*
D03*
X2105Y628D02*
D03*
X2030D02*
D03*
X1643Y1720D02*
D03*
X1417Y1547D02*
D03*
X670Y1579D02*
D03*
X596D02*
D03*
X1492Y1547D02*
D03*
X1717Y1720D02*
D03*
X1537Y1620D02*
D03*
X1463D02*
D03*
D27*
X1460Y886D02*
D03*
Y634D02*
D03*
X955Y887D02*
D03*
Y636D02*
D03*
D28*
X1276Y1568D02*
D03*
X889Y1468D02*
D03*
X1276Y1068D02*
D03*
Y1118D02*
D03*
Y1168D02*
D03*
Y1218D02*
D03*
Y1268D02*
D03*
Y1318D02*
D03*
Y1368D02*
D03*
Y1468D02*
D03*
Y1618D02*
D03*
Y1668D02*
D03*
Y1768D02*
D03*
X889Y1068D02*
D03*
Y1118D02*
D03*
Y1168D02*
D03*
Y1218D02*
D03*
Y1268D02*
D03*
Y1318D02*
D03*
Y1368D02*
D03*
Y1418D02*
D03*
Y1518D02*
D03*
Y1618D02*
D03*
Y1668D02*
D03*
Y1768D02*
D03*
Y1818D02*
D03*
X1276D02*
D03*
X889Y1568D02*
D03*
X1276Y1518D02*
D03*
Y1718D02*
D03*
Y1418D02*
D03*
X889Y1718D02*
D03*
D29*
X1243Y1981D02*
D03*
X908D02*
D03*
X2081Y2000D02*
D03*
X1747D02*
D03*
D30*
X1600Y677D02*
D03*
Y603D02*
D03*
D31*
X1208Y887D02*
D03*
D32*
X1299Y627D02*
D03*
X1208D02*
D03*
D33*
X1118Y627D02*
D03*
D34*
X1534Y1768D02*
D03*
Y1693D02*
D03*
X1416D02*
D03*
Y1731D02*
D03*
Y1768D02*
D03*
D35*
X753Y1787D02*
D03*
Y1677D02*
D03*
Y1374D02*
D03*
Y1484D02*
D03*
D36*
X914Y2280D02*
D03*
X1086D02*
D03*
D37*
X1932Y2421D02*
X2006D01*
X1411Y2532D02*
X1472D01*
X1385Y2506D02*
X1411Y2532D01*
X1385Y2453D02*
Y2506D01*
X1472Y2532D02*
X1501Y2504D01*
Y2453D02*
Y2504D01*
X628Y1122D02*
Y1199D01*
Y1122D02*
X649Y1101D01*
X709D01*
X628Y1199D02*
X646Y1217D01*
X709D01*
X629Y2134D02*
Y2201D01*
Y2134D02*
X648Y2115D01*
X709D01*
X629Y2201D02*
X659Y2231D01*
X709D01*
X1663Y1804D02*
Y1898D01*
X2145Y1868D02*
X2192D01*
X1967Y1867D02*
Y1919D01*
Y1867D02*
X1968Y1866D01*
X2022D01*
X2320Y1729D02*
X2323Y1732D01*
X1749Y418D02*
X1888Y557D01*
X1749Y309D02*
Y418D01*
X61Y1575D02*
X305D01*
X1289Y2121D02*
X1359D01*
X1837Y949D02*
X1855D01*
X1880Y924D01*
Y846D02*
Y924D01*
X1800Y767D02*
X1880Y846D01*
X1800Y733D02*
Y767D01*
X1600Y813D02*
X1607Y820D01*
X1667D01*
X1753Y545D02*
Y653D01*
X1740Y667D02*
X1800D01*
X1740D02*
X1753Y653D01*
X1687Y529D02*
Y660D01*
X1680Y667D02*
X1687Y660D01*
X1600Y603D02*
X1623Y580D01*
Y309D02*
Y580D01*
X1654Y497D02*
X1687Y529D01*
X1654Y309D02*
Y497D01*
X1686Y477D02*
X1753Y545D01*
X1686Y309D02*
Y477D01*
X1860Y598D02*
Y667D01*
X1717Y455D02*
X1860Y598D01*
X1717Y309D02*
Y455D01*
X393Y1545D02*
Y1608D01*
X172Y1535D02*
X178Y1530D01*
X533Y1732D02*
X653D01*
X653Y1732D02*
X677D01*
X733Y1787D01*
X753D01*
Y1673D02*
X804D01*
X859Y1618D01*
X889D01*
X1203Y1368D02*
X1276D01*
X889Y1268D02*
X960D01*
X889Y1368D02*
X939D01*
X1325Y1468D02*
X1386Y1407D01*
X1205Y1619D02*
X1275D01*
X1276Y1618D01*
X839Y1518D02*
X889D01*
X806Y1484D02*
X839Y1518D01*
X753Y1484D02*
X806D01*
X788Y1543D02*
X807Y1562D01*
X706Y1543D02*
X788D01*
X670Y1579D02*
X706Y1543D01*
X710Y1627D02*
X736Y1601D01*
X672Y1627D02*
X710D01*
X653Y1646D02*
X672Y1627D01*
X653Y1646D02*
Y1665D01*
X455Y1743D02*
Y1810D01*
X734Y1374D02*
X753D01*
X683Y1425D02*
X734Y1374D01*
X593Y1425D02*
X683D01*
X587Y1419D02*
X593Y1425D01*
X527Y1419D02*
X587D01*
X593Y1492D02*
X653D01*
X540Y1492D02*
X593D01*
X487Y1545D02*
X540Y1492D01*
X493Y1608D02*
X550Y1665D01*
X393Y1608D02*
X493D01*
X550Y1665D02*
X653D01*
X538Y1579D02*
X596D01*
X662Y1810D02*
Y1855D01*
X522Y1810D02*
X595D01*
X889Y1818D02*
Y1961D01*
X908Y1981D01*
X906D02*
X908D01*
X862Y2025D02*
X906Y1981D01*
X862Y2025D02*
Y2121D01*
X1276Y1818D02*
Y1947D01*
X1243Y1981D02*
X1276Y1947D01*
X1243Y1981D02*
X1243D01*
X1289Y2027D01*
Y2121D01*
X929D02*
X1222D01*
X889Y1418D02*
X940D01*
X957Y1435D01*
Y1457D01*
X946Y1468D02*
X957Y1457D01*
X889Y1468D02*
X946D01*
X939Y1368D02*
X958Y1348D01*
X889Y1318D02*
X944D01*
X958Y1332D01*
Y1348D01*
X854Y1568D02*
X889D01*
X807Y1591D02*
X831D01*
X854Y1568D01*
X807Y1562D02*
Y1591D01*
X736Y1587D02*
Y1601D01*
X453Y1425D02*
Y1478D01*
Y1425D02*
X460Y1419D01*
X393Y1675D02*
X453D01*
X393Y1675D02*
X393Y1675D01*
X303Y1675D02*
X393D01*
X290Y1687D02*
X303Y1675D01*
X215Y1687D02*
X290D01*
X453Y1675D02*
Y1741D01*
X293Y1463D02*
X309Y1478D01*
X215Y1463D02*
X293D01*
X309Y1478D02*
X453D01*
X172Y1614D02*
X178Y1620D01*
X305Y1572D02*
Y1575D01*
X178Y1620D02*
X215D01*
X178Y1530D02*
X215D01*
X305Y1575D02*
X335Y1545D01*
X487D01*
X1733Y1180D02*
X1781D01*
X1386Y1407D02*
X1421D01*
X1416Y1731D02*
X1465D01*
X1808Y2130D02*
X2021D01*
X1873Y1868D02*
Y1905D01*
X1860Y1917D02*
X1873Y1905D01*
X1682Y1917D02*
X1860D01*
X1663Y1898D02*
X1682Y1917D01*
X1530Y1903D02*
Y1952D01*
X1391Y2063D02*
X1438D01*
X1640Y1656D02*
X1645Y1650D01*
X1533Y813D02*
X1600D01*
X1460Y886D02*
X1533Y813D01*
X1465Y1731D02*
X1466Y1730D01*
X1577Y1380D02*
X1627D01*
X1488Y1365D02*
Y1467D01*
X1421Y1364D02*
Y1407D01*
X1277Y1468D02*
X1325D01*
X1276Y1469D02*
X1277Y1468D01*
X2320Y1687D02*
Y1729D01*
X1644Y1660D02*
X1647D01*
X1637Y1652D02*
X1644Y1660D01*
X1637Y1607D02*
Y1652D01*
X1644Y1600D02*
X1680D01*
X1637Y1607D02*
X1644Y1600D01*
X1921Y2410D02*
X1932Y2421D01*
D38*
X2098Y2402D02*
X2128Y2431D01*
X2049Y2510D02*
X2097Y2462D01*
X2016Y2510D02*
X2049D01*
X1684Y1492D02*
X1788D01*
X1728Y1559D02*
X1730Y1557D01*
Y1553D02*
Y1557D01*
X1701Y1512D02*
X1788D01*
X1677Y1462D02*
X1688Y1473D01*
X1730Y1553D02*
X1752Y1532D01*
X1788D01*
X1637Y1446D02*
X1695Y1388D01*
X2105Y328D02*
X2106Y327D01*
X2180D01*
X1637Y2510D02*
X1685D01*
Y2333D02*
X2016D01*
Y2246D02*
Y2306D01*
X1618Y2272D02*
X1634Y2256D01*
X2013Y2244D02*
X2016Y2246D01*
X1618Y2272D02*
Y2407D01*
X2156Y1760D02*
X2223D01*
X2252Y1788D02*
Y1839D01*
X2223Y1760D02*
X2252Y1788D01*
X2145Y1801D02*
X2192D01*
X2145Y1786D02*
Y1801D01*
X2019Y1802D02*
X2083Y1866D01*
X2089D01*
X1966Y1801D02*
X2018D01*
X1969Y1674D02*
Y1798D01*
X1972Y1801D01*
X2048Y1713D02*
Y1768D01*
X2080Y1800D01*
X2119Y1760D02*
X2145Y1786D01*
X2077Y1760D02*
X2119D01*
X2067Y1750D02*
X2077Y1760D01*
X2146Y1749D02*
X2156Y1760D01*
X2146Y1713D02*
Y1749D01*
X2249Y1729D02*
X2300Y1780D01*
X2300Y1473D02*
X2310Y1463D01*
X2441Y1640D02*
X2495Y1586D01*
X1800Y913D02*
Y1051D01*
Y913D02*
X1833Y880D01*
X2157Y1579D02*
X2169Y1591D01*
X2249D01*
Y1630D02*
Y1729D01*
X2193Y1656D02*
X2218Y1630D01*
X2249D01*
X2156Y1468D02*
X2181Y1492D01*
X2249D01*
X2106Y1408D02*
Y1480D01*
Y1408D02*
X2141Y1374D01*
X2249D01*
X2141Y1610D02*
X2249D01*
X1848Y1411D02*
X2031D01*
X1833Y1473D02*
X1855Y1450D01*
X1788Y1354D02*
X1825D01*
X1841Y1370D02*
X1857D01*
X1825Y1354D02*
X1841Y1370D01*
X1831Y1394D02*
X1848Y1411D01*
X1788Y1394D02*
X1831D01*
X1900Y1339D02*
X1911Y1350D01*
X1837Y1339D02*
X1900D01*
X1833Y1335D02*
X1837Y1339D01*
X1788Y1335D02*
X1833D01*
X769Y2173D02*
X773Y2169D01*
Y2078D02*
Y2169D01*
X760Y2065D02*
X773Y2078D01*
X760Y2033D02*
Y2065D01*
Y1924D02*
Y1967D01*
Y1924D02*
X826Y1858D01*
Y1693D02*
Y1858D01*
Y1693D02*
X851Y1668D01*
X1327Y1718D02*
X1344Y1734D01*
X1276Y1718D02*
X1327D01*
X1600Y747D02*
X1613Y733D01*
X1680D01*
X1733Y820D02*
X1740Y813D01*
Y733D02*
Y813D01*
X889Y1768D02*
X1149D01*
X1276Y1518D02*
X1333D01*
X1384Y1467D01*
X653Y1665D02*
X653Y1665D01*
X453Y1741D02*
X455Y1743D01*
X593Y1492D02*
X593Y1492D01*
X736Y1587D02*
X740Y1583D01*
X889Y1718D02*
X958D01*
X959Y1668D02*
X960Y1667D01*
X1153Y1619D02*
X1202Y1668D01*
X2030Y328D02*
Y538D01*
X2105Y332D02*
X2175D01*
X2180Y327D01*
Y393D02*
Y567D01*
X1733Y820D02*
X1789D01*
X1680Y733D02*
Y737D01*
X1644Y774D02*
X1680Y737D01*
X1276Y1318D02*
X1333D01*
X1113Y2434D02*
X1120Y2441D01*
X1211Y1768D02*
X1276D01*
X889Y1218D02*
X966D01*
X2067Y1713D02*
Y1750D01*
X1930Y1713D02*
Y1962D01*
X1968Y2000D01*
X2081D01*
X1910Y1713D02*
Y1967D01*
X1877Y2000D02*
X1910Y1967D01*
X1747Y2000D02*
X1877D01*
X1871Y1799D02*
X1873Y1801D01*
X1890Y1677D02*
Y1713D01*
X1881Y1667D02*
X1890Y1677D01*
X1732Y1801D02*
X1802D01*
X1730Y1804D02*
X1732Y1801D01*
X2008Y1207D02*
Y1252D01*
X1940Y1133D02*
Y1139D01*
Y1133D02*
X1942Y1136D01*
X1992D01*
X1940Y1139D02*
X2008Y1207D01*
X1969Y1252D02*
Y1288D01*
X1859Y1299D02*
X1958D01*
X1969Y1288D01*
X2067Y1252D02*
Y1296D01*
X2044Y1319D02*
X2067Y1296D01*
X1849Y1319D02*
X2044D01*
X1905Y1165D02*
X1949Y1210D01*
X1870Y1108D02*
X1905Y1143D01*
Y1165D01*
X1890Y1213D02*
Y1252D01*
X1857Y1180D02*
X1890Y1213D01*
X1848Y1180D02*
X1857D01*
X1364Y1346D02*
X1432Y1278D01*
X1848Y1180D02*
Y1189D01*
X1760Y1226D02*
X1811D01*
X1848Y1189D01*
X1747Y1414D02*
X1788D01*
X1714Y1380D02*
X1747Y1414D01*
X1693Y1380D02*
X1714D01*
X1693D02*
X1695Y1381D01*
Y1388D01*
X2126Y1209D02*
Y1252D01*
Y1209D02*
X2147Y1189D01*
X2107Y1198D02*
Y1252D01*
Y1198D02*
X2137Y1168D01*
X2375Y1290D02*
Y1376D01*
X2393Y1394D01*
X2274Y1189D02*
X2375Y1290D01*
X2394Y1393D02*
X2441Y1440D01*
X2147Y1189D02*
X2274D01*
X2441Y1325D02*
Y1340D01*
X2284Y1168D02*
X2441Y1325D01*
X2137Y1168D02*
X2284D01*
X2249Y1571D02*
X2287D01*
X2320Y1604D01*
X2087Y1672D02*
Y1713D01*
X2066Y1651D02*
X2087Y1672D01*
X2107Y1626D02*
Y1713D01*
X2126Y1668D02*
Y1713D01*
Y1668D02*
X2144Y1651D01*
X2166Y1713D02*
X2199D01*
X2200Y1532D02*
X2249D01*
X2189Y1453D02*
X2249D01*
X2157Y1421D02*
X2189Y1453D01*
X2156Y1513D02*
X2156Y1512D01*
X2188Y1543D02*
X2200Y1532D01*
X1175Y1732D02*
X1211Y1768D01*
X1788Y1571D02*
X1848D01*
X1788Y1551D02*
X1823D01*
X2320Y1604D02*
Y1620D01*
X2317D02*
X2320D01*
X2249Y1473D02*
X2300D01*
X2315Y1512D02*
X2323Y1520D01*
X2441Y1240D02*
X2495Y1294D01*
X2324Y1433D02*
X2361Y1470D01*
X2249Y1433D02*
X2324D01*
X2249Y1414D02*
X2338D01*
X2383Y1459D01*
X2249Y1394D02*
X2293D01*
X2313Y1374D01*
X2249Y1335D02*
X2289D01*
X2308Y1316D01*
X2313Y1373D02*
Y1374D01*
X2128Y2431D02*
X2177D01*
X1332Y1668D02*
X1369Y1705D01*
X1730Y1453D02*
X1788D01*
X1711Y1433D02*
X1730Y1453D01*
X1118Y1732D02*
X1175D01*
X1276Y1568D02*
X1348D01*
X1400Y1620D01*
Y1678D01*
X1416Y1693D01*
X1384Y1467D02*
X1421D01*
X1417Y1471D02*
X1421Y1467D01*
X1417Y1471D02*
Y1547D01*
X1416Y1768D02*
X1461D01*
X1412Y1924D02*
X1438D01*
X1344Y1855D02*
X1412Y1924D01*
X1344Y1734D02*
Y1855D01*
X1395Y1857D02*
X1438D01*
X1369Y1831D02*
X1395Y1857D01*
X1369Y1705D02*
Y1831D01*
X1202Y1668D02*
X1332D01*
X1438Y1924D02*
Y1997D01*
X1530Y1771D02*
Y1836D01*
Y1771D02*
X1534Y1768D01*
X1607Y1108D02*
X1870D01*
X1443Y2379D02*
Y2393D01*
Y2379D02*
X1485Y2336D01*
Y2325D02*
Y2336D01*
X1747Y2000D02*
Y2124D01*
X1741Y2130D02*
X1747Y2124D01*
X2081Y2000D02*
Y2124D01*
X2088Y2130D01*
X2328Y1571D02*
Y1612D01*
X2320Y1620D02*
X2328Y1612D01*
X1734Y1868D02*
X1802D01*
X1730Y1864D02*
X1734Y1868D01*
X1823Y1551D02*
X1858Y1516D01*
Y1502D02*
Y1516D01*
X1848Y1571D02*
X1863Y1556D01*
X1893Y1591D02*
X1898Y1586D01*
X1788Y1591D02*
X1893D01*
X1749Y1630D02*
X1788D01*
X1989Y1673D02*
Y1713D01*
X1980Y1664D02*
X1989Y1673D01*
X1978Y1664D02*
X1980D01*
X1969Y1674D02*
X1978Y1664D01*
X1949Y1665D02*
Y1713D01*
X1910Y1626D02*
X1949Y1665D01*
X1858Y1626D02*
X1910D01*
X1639Y1069D02*
X1712D01*
X1333Y1318D02*
X1392Y1259D01*
X1860Y995D02*
Y1073D01*
X1922Y1067D02*
X1940D01*
X1894Y1038D02*
X1922Y1067D01*
X1881Y667D02*
X1931Y717D01*
Y924D01*
X1860Y667D02*
X1881D01*
X1860Y995D02*
X1931Y924D01*
X1860Y733D02*
Y768D01*
X1877Y785D01*
X1537Y1620D02*
X1562D01*
X1579Y1637D01*
Y1714D01*
X1534Y1759D02*
Y1768D01*
Y1759D02*
X1579Y1714D01*
X1731Y1648D02*
X1749Y1630D01*
X1713Y1660D02*
Y1716D01*
X1717Y1720D01*
X1643D02*
Y1752D01*
X1606Y1788D02*
Y1820D01*
Y1788D02*
X1643Y1752D01*
X1575Y1753D02*
Y2027D01*
Y1753D02*
X1600Y1727D01*
X1461Y1768D02*
X1469Y1777D01*
X1534Y1693D02*
Y1701D01*
X1497Y1737D02*
Y1748D01*
X1469Y1776D02*
X1497Y1748D01*
X1469Y1776D02*
Y1777D01*
X1497Y1737D02*
X1534Y1701D01*
X769Y1094D02*
X831Y1031D01*
X769Y1094D02*
Y1159D01*
X1216Y1031D02*
X1530D01*
X1832Y1301D02*
X1849Y1319D01*
X1840Y1280D02*
X1859Y1299D01*
X1871Y1252D02*
Y1252D01*
X1864Y1259D02*
X1871Y1252D01*
X1726Y1187D02*
X1733Y1180D01*
X1791Y1699D02*
X1823Y1667D01*
X1791Y1699D02*
Y1790D01*
X1802Y1801D01*
X1823Y1667D02*
X1881D01*
X1871Y1790D02*
Y1799D01*
Y1713D02*
Y1788D01*
X1873Y1799D02*
Y1801D01*
X1827Y1744D02*
X1873Y1790D01*
X1827Y1711D02*
Y1744D01*
X1202Y1268D02*
X1276D01*
X2157Y2397D02*
X2177D01*
X2120Y2360D02*
X2157Y2397D01*
X2031Y1411D02*
X2050Y1430D01*
Y1519D01*
X2141Y1610D01*
X1089Y1508D02*
X1146Y1565D01*
X1089Y1104D02*
Y1508D01*
X831Y1031D02*
X1016D01*
X1089Y1104D01*
X1146Y1565D02*
X1152D01*
X1134Y1392D02*
X1160Y1418D01*
X1134Y1113D02*
Y1392D01*
Y1113D02*
X1216Y1031D01*
X1160Y1418D02*
X1276D01*
X1949Y1210D02*
Y1254D01*
X2495Y1294D02*
Y1586D01*
X1892Y2551D02*
X1917Y2577D01*
X2091D01*
X2170Y2497D02*
X2177D01*
X2091Y2577D02*
X2170Y2497D01*
X2156Y2463D02*
X2177D01*
X2134Y2485D02*
X2156Y2463D01*
X2081Y2557D02*
X2134Y2504D01*
Y2485D02*
Y2504D01*
X2156Y1512D02*
X2315D01*
X851Y1668D02*
X959D01*
X1680Y1533D02*
X1701Y1512D01*
X1637Y1446D02*
Y1492D01*
X1690Y1610D02*
X1788D01*
X1680Y1600D02*
X1690Y1610D01*
X1752Y1374D02*
X1788D01*
X1702Y1324D02*
X1752Y1374D01*
X1627Y1324D02*
X1702D01*
X1514D02*
X1560D01*
X1530Y1031D02*
X1607Y1108D01*
X1530Y1031D02*
X1530Y1031D01*
X1530Y1031D02*
X1530D01*
X1767Y880D02*
Y945D01*
X1763Y949D02*
X1767Y945D01*
X1659Y880D02*
X1767D01*
X1602Y938D02*
X1659Y880D01*
X1602Y938D02*
Y967D01*
X1548D02*
X1602D01*
X1460Y972D02*
X1543D01*
X1547Y968D01*
X1910Y1201D02*
Y1252D01*
X1885Y1176D02*
X1910Y1201D01*
X1885Y1153D02*
Y1176D01*
X1864Y1132D02*
X1885Y1153D01*
X1582Y1132D02*
X1864D01*
X1573Y1140D02*
X1582Y1132D01*
X1497Y1074D02*
Y1131D01*
X1507Y1140D01*
X1423Y1074D02*
Y1122D01*
X2028Y1124D02*
Y1252D01*
X1976Y1072D02*
X2028Y1124D01*
X1996Y1063D02*
X2048Y1115D01*
Y1252D01*
X1976Y592D02*
X1984Y584D01*
Y584D02*
X2030Y538D01*
X1976Y592D02*
Y1072D01*
X1996Y661D02*
X2030Y628D01*
X1996Y661D02*
Y1063D01*
X1120Y2441D02*
Y2525D01*
X1113Y2531D02*
X1120Y2525D01*
X1019Y2441D02*
X1020D01*
X973Y2486D02*
X1019Y2441D01*
X973Y2486D02*
Y2531D01*
X1637Y1492D02*
X1684D01*
X1432Y1278D02*
X1665D01*
X1688Y1301D01*
X1832D01*
X1392Y1259D02*
X1674D01*
X1695Y1280D01*
X1840D01*
X1689Y1242D02*
X1706Y1259D01*
X1689Y1199D02*
Y1242D01*
Y1199D02*
X1708Y1180D01*
X1733D01*
X1706Y1259D02*
X1864D01*
X1677Y1461D02*
Y1462D01*
X1688Y1473D02*
X1833D01*
X1662Y1533D02*
X1680D01*
X1637Y1559D02*
X1662Y1533D01*
X1569Y1561D02*
X1600Y1593D01*
Y1727D01*
X1546Y1561D02*
X1569D01*
X1378Y2325D02*
X1419D01*
X1368Y2335D02*
X1378Y2325D01*
X1696Y2179D02*
Y2179D01*
X1638Y2120D02*
X1696Y2179D01*
X1359Y2121D02*
X1360Y2120D01*
X1638D01*
X1947Y2260D02*
Y2262D01*
X2361Y1470D02*
Y1943D01*
X1520Y2082D02*
X1575Y2027D01*
X1870Y2501D02*
X1926Y2557D01*
X1870Y2417D02*
X1920Y2367D01*
X1870Y2417D02*
Y2501D01*
X1926Y2557D02*
X2081D01*
X1847Y2507D02*
X1892Y2551D01*
X1820Y2367D02*
X1847Y2395D01*
Y2507D01*
X1735Y2260D02*
Y2266D01*
X1771Y2301D01*
X1575Y2258D02*
Y2369D01*
X2120Y2329D02*
Y2360D01*
X2098Y2387D02*
Y2402D01*
X2097Y2448D02*
Y2462D01*
X1575Y2448D02*
X1637Y2510D01*
X2240Y2352D02*
Y2497D01*
X1773Y2223D02*
X1810Y2260D01*
X1610Y2223D02*
X1773D01*
X1575Y2258D02*
X1610Y2223D01*
X1810Y2260D02*
X1947D01*
X1717Y2199D02*
X2105D01*
X1696Y2179D02*
X1717Y2199D01*
X2105D02*
X2361Y1943D01*
X2120Y2256D02*
X2383Y1993D01*
X2013Y2256D02*
X2120D01*
X2383Y1459D02*
Y1993D01*
X2031Y852D02*
Y908D01*
X2087Y965D01*
Y1252D01*
X1634Y2256D02*
X1669D01*
X2111Y633D02*
X2180D01*
X2105Y628D02*
X2111Y633D01*
X2180Y567D02*
X2225D01*
X2227Y569D01*
X2010Y1452D02*
X2028Y1470D01*
Y1713D01*
X1963Y1450D02*
X2008Y1496D01*
Y1713D01*
D39*
X955Y636D02*
X964Y627D01*
X955Y887D02*
X1208D01*
X1208Y887D01*
Y627D02*
Y887D01*
X1861Y83D02*
Y298D01*
X1510Y83D02*
Y298D01*
X1453Y627D02*
X1460Y634D01*
X1517D01*
X1560Y677D01*
X1600D01*
X907Y2427D02*
X920Y2440D01*
X1492Y1547D02*
Y1570D01*
X1463Y1599D02*
X1492Y1570D01*
Y1547D02*
X1502D01*
X1494Y1554D02*
X1502Y1547D01*
X1463Y1666D02*
X1476Y1680D01*
X1463Y1620D02*
Y1666D01*
X1299Y627D02*
X1453D01*
X964Y627D02*
X1118D01*
X916Y2440D02*
X920D01*
X907Y2450D02*
X916Y2440D01*
X907Y2450D02*
Y2531D01*
X907Y2532D01*
Y2559D01*
X939Y2591D01*
X1021D01*
X1047Y2565D01*
Y2531D02*
Y2565D01*
X920Y2286D02*
Y2440D01*
X914Y2280D02*
X920Y2286D01*
X1086Y2280D02*
X1102D01*
X1220Y2398D01*
Y2441D01*
D40*
X2698Y696D02*
X2702Y692D01*
X2709Y688D01*
X2717Y683D01*
X2728Y681D01*
X2737D01*
X2748Y683D01*
X2756Y688D01*
X2763Y692D01*
X2767Y696D01*
X2702Y692D02*
X2711Y688D01*
X2717Y685D01*
X2728Y683D01*
X2737D01*
X2748Y685D01*
X2754Y688D01*
X2763Y692D01*
X2728Y731D02*
X2724Y726D01*
X2722Y722D01*
Y716D01*
X2724Y711D01*
X2728Y707D01*
X2735Y705D01*
X2739D01*
X2746Y707D01*
X2750Y711D01*
X2752Y716D01*
Y722D01*
X2750Y726D01*
X2746Y731D01*
X2698Y740D02*
X2702Y745D01*
X2709Y749D01*
X2717Y753D01*
X2728Y755D01*
X2737D01*
X2748Y753D01*
X2756Y749D01*
X2763Y745D01*
X2767Y740D01*
X2702Y745D02*
X2711Y749D01*
X2717Y751D01*
X2728Y753D01*
X2737D01*
X2748Y751D01*
X2754Y749D01*
X2763Y745D01*
X2717Y804D02*
X2715D01*
X2711Y806D01*
X2709Y808D01*
X2707Y813D01*
Y821D01*
X2709Y826D01*
X2711Y828D01*
X2715Y830D01*
X2720D01*
X2724Y828D01*
X2730Y824D01*
X2752Y802D01*
Y832D01*
X2707Y855D02*
X2709Y849D01*
X2715Y844D01*
X2726Y842D01*
X2733D01*
X2743Y844D01*
X2750Y849D01*
X2752Y855D01*
Y860D01*
X2750Y866D01*
X2743Y870D01*
X2733Y873D01*
X2726D01*
X2715Y870D01*
X2709Y866D01*
X2707Y860D01*
Y855D01*
Y896D02*
X2709Y889D01*
X2715Y885D01*
X2726Y883D01*
X2733D01*
X2743Y885D01*
X2750Y889D01*
X2752Y896D01*
Y900D01*
X2750Y906D01*
X2743Y911D01*
X2733Y913D01*
X2726D01*
X2715Y911D01*
X2709Y906D01*
X2707Y900D01*
Y896D01*
X2713Y949D02*
X2709Y947D01*
X2707Y940D01*
Y936D01*
X2709Y929D01*
X2715Y925D01*
X2726Y923D01*
X2737D01*
X2746Y925D01*
X2750Y929D01*
X2752Y936D01*
Y938D01*
X2750Y945D01*
X2746Y949D01*
X2739Y951D01*
X2737D01*
X2730Y949D01*
X2726Y945D01*
X2724Y938D01*
Y936D01*
X2726Y929D01*
X2730Y925D01*
X2737Y923D01*
X2713Y1031D02*
X2733Y996D01*
X2752Y1031D01*
X2707Y1044D02*
X2752D01*
X2728D02*
X2724Y1048D01*
X2722Y1052D01*
Y1059D01*
X2724Y1063D01*
X2728Y1068D01*
X2735Y1070D01*
X2739D01*
X2746Y1068D01*
X2750Y1063D01*
X2752Y1059D01*
Y1052D01*
X2750Y1048D01*
X2746Y1044D01*
X2722Y1079D02*
X2752D01*
X2735D02*
X2728Y1082D01*
X2724Y1086D01*
X2722Y1090D01*
Y1097D01*
X2707Y1105D02*
X2709Y1107D01*
X2707Y1109D01*
X2705Y1107D01*
X2707Y1105D01*
X2722Y1107D02*
X2752D01*
X2707Y1124D02*
X2743D01*
X2750Y1126D01*
X2752Y1130D01*
Y1135D01*
X2722Y1117D02*
Y1132D01*
Y1167D02*
X2752D01*
X2728D02*
X2724Y1163D01*
X2722Y1158D01*
Y1152D01*
X2724Y1148D01*
X2728Y1143D01*
X2735Y1141D01*
X2739D01*
X2746Y1143D01*
X2750Y1148D01*
X2752Y1152D01*
Y1158D01*
X2750Y1163D01*
X2746Y1167D01*
X2748Y1181D02*
X2750Y1179D01*
X2752Y1181D01*
X2750Y1183D01*
X2748Y1181D01*
X2722Y1193D02*
X2752D01*
X2730D02*
X2724Y1200D01*
X2722Y1204D01*
Y1210D01*
X2724Y1215D01*
X2730Y1217D01*
X2752D01*
X2730D02*
X2724Y1223D01*
X2722Y1228D01*
Y1234D01*
X2724Y1239D01*
X2730Y1241D01*
X2752D01*
X2735Y1255D02*
Y1281D01*
X2730D01*
X2726Y1279D01*
X2724Y1276D01*
X2722Y1272D01*
Y1266D01*
X2724Y1261D01*
X2728Y1257D01*
X2735Y1255D01*
X2739D01*
X2746Y1257D01*
X2750Y1261D01*
X2752Y1266D01*
Y1272D01*
X2750Y1276D01*
X2746Y1281D01*
X2722Y1290D02*
X2752D01*
X2735D02*
X2728Y1293D01*
X2724Y1297D01*
X2722Y1301D01*
Y1308D01*
X2707Y1316D02*
X2709Y1318D01*
X2707Y1320D01*
X2705Y1318D01*
X2707Y1316D01*
X2722Y1318D02*
X2752D01*
X2722Y1354D02*
X2752D01*
X2728D02*
X2724Y1350D01*
X2722Y1346D01*
Y1339D01*
X2724Y1335D01*
X2728Y1331D01*
X2735Y1328D01*
X2739D01*
X2746Y1331D01*
X2750Y1335D01*
X2752Y1339D01*
Y1346D01*
X2750Y1350D01*
X2746Y1354D01*
X2728Y1392D02*
X2724Y1388D01*
X2722Y1384D01*
Y1377D01*
X2724Y1373D01*
X2728Y1368D01*
X2735Y1366D01*
X2739D01*
X2746Y1368D01*
X2750Y1373D01*
X2752Y1377D01*
Y1384D01*
X2750Y1388D01*
X2746Y1392D01*
X2724Y1434D02*
X2720Y1432D01*
X2717Y1428D01*
Y1421D01*
X2720Y1417D01*
X2722Y1415D01*
X2728Y1413D01*
X2735D01*
X2739Y1415D01*
X2741Y1419D01*
Y1426D01*
X2739Y1430D01*
X2735Y1432D01*
X2717Y1421D02*
X2722Y1417D01*
X2728Y1415D01*
X2735D01*
X2739Y1417D01*
X2741Y1419D01*
X2717Y1434D02*
X2735Y1432D01*
X2739D01*
X2741Y1436D01*
Y1441D01*
X2737Y1445D01*
X2730Y1447D01*
X2726D01*
X2720Y1445D01*
X2715Y1443D01*
X2711Y1439D01*
X2709Y1434D01*
X2707Y1428D01*
Y1421D01*
X2709Y1415D01*
X2711Y1411D01*
X2715Y1406D01*
X2720Y1404D01*
X2726Y1402D01*
X2733D01*
X2739Y1404D01*
X2743Y1406D01*
X2748Y1411D01*
X2750Y1415D01*
X2752Y1421D01*
Y1428D01*
X2750Y1434D01*
X2748Y1439D01*
X2746Y1441D01*
X2717Y1436D02*
X2735Y1434D01*
X2739D01*
X2741Y1436D01*
X2707Y1459D02*
X2752D01*
X2728D02*
X2724Y1463D01*
X2722Y1467D01*
Y1474D01*
X2724Y1478D01*
X2728Y1483D01*
X2735Y1485D01*
X2739D01*
X2746Y1483D01*
X2750Y1478D01*
X2752Y1474D01*
Y1467D01*
X2750Y1463D01*
X2746Y1459D01*
X2707Y1499D02*
X2709Y1501D01*
X2707Y1503D01*
X2705Y1501D01*
X2707Y1499D01*
X2722Y1501D02*
X2752D01*
X2707Y1517D02*
X2743D01*
X2750Y1520D01*
X2752Y1524D01*
Y1528D01*
X2722Y1511D02*
Y1526D01*
Y1535D02*
X2752D01*
X2730D02*
X2724Y1541D01*
X2722Y1545D01*
Y1552D01*
X2724Y1556D01*
X2730Y1558D01*
X2752D01*
X2730D02*
X2724Y1565D01*
X2722Y1569D01*
Y1576D01*
X2724Y1580D01*
X2730Y1582D01*
X2752D01*
X2722Y1622D02*
X2752D01*
X2728D02*
X2724Y1618D01*
X2722Y1614D01*
Y1607D01*
X2724Y1603D01*
X2728Y1598D01*
X2735Y1596D01*
X2739D01*
X2746Y1598D01*
X2750Y1603D01*
X2752Y1607D01*
Y1614D01*
X2750Y1618D01*
X2746Y1622D01*
X2722Y1634D02*
X2752D01*
X2730D02*
X2724Y1641D01*
X2722Y1645D01*
Y1652D01*
X2724Y1656D01*
X2730Y1658D01*
X2752D01*
X2722Y1670D02*
X2743D01*
X2750Y1672D01*
X2752Y1676D01*
Y1683D01*
X2750Y1687D01*
X2743Y1694D01*
X2722D02*
X2752D01*
X2707Y1723D02*
Y1718D01*
X2709Y1714D01*
X2715Y1712D01*
X2752D01*
X2722Y1705D02*
Y1720D01*
Y1755D02*
X2752D01*
X2728D02*
X2724Y1751D01*
X2722Y1746D01*
Y1740D01*
X2724Y1736D01*
X2728Y1731D01*
X2735Y1729D01*
X2739D01*
X2746Y1731D01*
X2750Y1736D01*
X2752Y1740D01*
Y1746D01*
X2750Y1751D01*
X2746Y1755D01*
X2707Y1767D02*
X2752D01*
X2722Y1789D02*
X2743Y1767D01*
X2735Y1776D02*
X2752Y1791D01*
X2707Y1804D02*
X2743D01*
X2750Y1806D01*
X2752Y1811D01*
Y1815D01*
X2722Y1798D02*
Y1813D01*
Y1822D02*
X2743D01*
X2750Y1824D01*
X2752Y1828D01*
Y1835D01*
X2750Y1839D01*
X2743Y1845D01*
X2722D02*
X2752D01*
X2722Y1857D02*
X2752D01*
X2735D02*
X2728Y1859D01*
X2724Y1864D01*
X2722Y1868D01*
Y1874D01*
X2748Y1881D02*
X2750Y1878D01*
X2752Y1881D01*
X2750Y1883D01*
X2748Y1881D01*
X2707Y1919D02*
X2752D01*
X2728D02*
X2724Y1914D01*
X2722Y1910D01*
Y1903D01*
X2724Y1899D01*
X2728Y1895D01*
X2735Y1893D01*
X2739D01*
X2746Y1895D01*
X2750Y1899D01*
X2752Y1903D01*
Y1910D01*
X2750Y1914D01*
X2746Y1919D01*
X2735Y1931D02*
Y1957D01*
X2730D01*
X2726Y1954D01*
X2724Y1952D01*
X2722Y1948D01*
Y1941D01*
X2724Y1937D01*
X2728Y1933D01*
X2735Y1931D01*
X2739D01*
X2746Y1933D01*
X2750Y1937D01*
X2752Y1941D01*
Y1948D01*
X2750Y1952D01*
X2746Y1957D01*
X2713Y1966D02*
X2733Y2001D01*
X2752Y1966D01*
X642Y2722D02*
Y2677D01*
Y2722D02*
X661D01*
X668Y2720D01*
X670Y2718D01*
X672Y2714D01*
Y2709D01*
X670Y2705D01*
X668Y2703D01*
X661Y2701D01*
X642D01*
X657D02*
X672Y2677D01*
X682Y2722D02*
Y2677D01*
Y2722D02*
X710D01*
X682Y2701D02*
X699D01*
X715Y2722D02*
Y2677D01*
X725Y2722D02*
Y2677D01*
Y2722D02*
X740D01*
X746Y2720D01*
X751Y2716D01*
X753Y2712D01*
X755Y2705D01*
Y2694D01*
X753Y2688D01*
X751Y2684D01*
X746Y2679D01*
X740Y2677D01*
X725D01*
X765Y2697D02*
X804D01*
X817Y2722D02*
Y2677D01*
Y2722D02*
X837D01*
X843Y2720D01*
X845Y2718D01*
X847Y2714D01*
Y2709D01*
X845Y2705D01*
X843Y2703D01*
X837Y2701D01*
X817D01*
X832D02*
X847Y2677D01*
X886Y2722D02*
X858D01*
Y2677D01*
X886D01*
X858Y2701D02*
X875D01*
X928Y2677D02*
X910Y2722D01*
X893Y2677D01*
X900Y2692D02*
X921D01*
X938Y2722D02*
Y2677D01*
Y2722D02*
X953D01*
X960Y2720D01*
X964Y2716D01*
X966Y2712D01*
X968Y2705D01*
Y2694D01*
X966Y2688D01*
X964Y2684D01*
X960Y2679D01*
X953Y2677D01*
X938D01*
X1006Y2722D02*
X978D01*
Y2677D01*
X1006D01*
X978Y2701D02*
X996D01*
X1014Y2722D02*
Y2677D01*
Y2722D02*
X1033D01*
X1040Y2720D01*
X1042Y2718D01*
X1044Y2714D01*
Y2709D01*
X1042Y2705D01*
X1040Y2703D01*
X1033Y2701D01*
X1014D01*
X1029D02*
X1044Y2677D01*
X1090Y2707D02*
X1103Y2677D01*
X1116Y2707D02*
X1103Y2677D01*
X1136Y2722D02*
X1130Y2720D01*
X1125Y2714D01*
X1123Y2703D01*
Y2697D01*
X1125Y2686D01*
X1130Y2679D01*
X1136Y2677D01*
X1140D01*
X1147Y2679D01*
X1151Y2686D01*
X1153Y2697D01*
Y2703D01*
X1151Y2714D01*
X1147Y2720D01*
X1140Y2722D01*
X1136D01*
X1166Y2681D02*
X1163Y2679D01*
X1166Y2677D01*
X1168Y2679D01*
X1166Y2681D01*
X1199Y2722D02*
X1178Y2692D01*
X1210D01*
X1199Y2722D02*
Y2677D01*
X2004Y2707D02*
X2013Y2677D01*
X2021Y2707D02*
X2013Y2677D01*
X2021Y2707D02*
X2030Y2677D01*
X2038Y2707D02*
X2030Y2677D01*
X2049Y2707D02*
X2058Y2677D01*
X2066Y2707D02*
X2058Y2677D01*
X2066Y2707D02*
X2075Y2677D01*
X2083Y2707D02*
X2075Y2677D01*
X2094Y2707D02*
X2103Y2677D01*
X2111Y2707D02*
X2103Y2677D01*
X2111Y2707D02*
X2120Y2677D01*
X2129Y2707D02*
X2120Y2677D01*
X2141Y2681D02*
X2139Y2679D01*
X2141Y2677D01*
X2143Y2679D01*
X2141Y2681D01*
X2164Y2707D02*
X2160Y2705D01*
X2155Y2701D01*
X2153Y2694D01*
Y2690D01*
X2155Y2684D01*
X2160Y2679D01*
X2164Y2677D01*
X2171D01*
X2175Y2679D01*
X2179Y2684D01*
X2181Y2690D01*
Y2694D01*
X2179Y2701D01*
X2175Y2705D01*
X2171Y2707D01*
X2164D01*
X2191D02*
Y2662D01*
Y2701D02*
X2196Y2705D01*
X2200Y2707D01*
X2206D01*
X2211Y2705D01*
X2215Y2701D01*
X2217Y2694D01*
Y2690D01*
X2215Y2684D01*
X2211Y2679D01*
X2206Y2677D01*
X2200D01*
X2196Y2679D01*
X2191Y2684D01*
X2227Y2694D02*
X2253D01*
Y2699D01*
X2251Y2703D01*
X2248Y2705D01*
X2244Y2707D01*
X2238D01*
X2233Y2705D01*
X2229Y2701D01*
X2227Y2694D01*
Y2690D01*
X2229Y2684D01*
X2233Y2679D01*
X2238Y2677D01*
X2244D01*
X2248Y2679D01*
X2253Y2684D01*
X2262Y2707D02*
Y2677D01*
Y2699D02*
X2269Y2705D01*
X2273Y2707D01*
X2280D01*
X2284Y2705D01*
X2286Y2699D01*
Y2677D01*
X2298Y2707D02*
Y2662D01*
Y2701D02*
X2302Y2705D01*
X2307Y2707D01*
X2313D01*
X2317Y2705D01*
X2322Y2701D01*
X2324Y2694D01*
Y2690D01*
X2322Y2684D01*
X2317Y2679D01*
X2313Y2677D01*
X2307D01*
X2302Y2679D01*
X2298Y2684D01*
X2359Y2701D02*
X2355Y2705D01*
X2351Y2707D01*
X2344D01*
X2340Y2705D01*
X2336Y2701D01*
X2334Y2694D01*
Y2690D01*
X2336Y2684D01*
X2340Y2679D01*
X2344Y2677D01*
X2351D01*
X2355Y2679D01*
X2359Y2684D01*
X2395Y2722D02*
Y2677D01*
Y2701D02*
X2391Y2705D01*
X2386Y2707D01*
X2380D01*
X2376Y2705D01*
X2371Y2701D01*
X2369Y2694D01*
Y2690D01*
X2371Y2684D01*
X2376Y2679D01*
X2380Y2677D01*
X2386D01*
X2391Y2679D01*
X2395Y2684D01*
X2409Y2681D02*
X2407Y2679D01*
X2409Y2677D01*
X2411Y2679D01*
X2409Y2681D01*
X2432Y2707D02*
X2428Y2705D01*
X2423Y2701D01*
X2421Y2694D01*
Y2690D01*
X2423Y2684D01*
X2428Y2679D01*
X2432Y2677D01*
X2438D01*
X2443Y2679D01*
X2447Y2684D01*
X2449Y2690D01*
Y2694D01*
X2447Y2701D01*
X2443Y2705D01*
X2438Y2707D01*
X2432D01*
X2459D02*
Y2677D01*
Y2694D02*
X2461Y2701D01*
X2466Y2705D01*
X2470Y2707D01*
X2476D01*
X2506D02*
Y2673D01*
X2504Y2666D01*
X2502Y2664D01*
X2498Y2662D01*
X2491D01*
X2487Y2664D01*
X2506Y2701D02*
X2502Y2705D01*
X2498Y2707D01*
X2491D01*
X2487Y2705D01*
X2483Y2701D01*
X2481Y2694D01*
Y2690D01*
X2483Y2684D01*
X2487Y2679D01*
X2491Y2677D01*
X2498D01*
X2502Y2679D01*
X2506Y2684D01*
D41*
X1575Y84D02*
D03*
D42*
X84Y1570D02*
D03*
D43*
X3066Y2180D02*
D03*
Y969D02*
D03*
D44*
X2320Y2157D02*
D03*
D45*
X920Y2440D02*
D03*
X2441Y1740D02*
D03*
X305Y1675D02*
D03*
X2441Y1000D02*
D03*
Y2220D02*
D03*
D46*
X1020Y2441D02*
D03*
X1120D02*
D03*
X1220D02*
D03*
X2441Y1540D02*
D03*
Y1240D02*
D03*
Y1340D02*
D03*
Y1440D02*
D03*
Y1640D02*
D03*
Y1920D02*
D03*
Y2020D02*
D03*
X305Y1475D02*
D03*
Y1575D02*
D03*
X2341Y1000D02*
D03*
X2241D02*
D03*
X2141D02*
D03*
X2041D02*
D03*
X2441Y2120D02*
D03*
D47*
X1599Y199D02*
D03*
X1772D02*
D03*
D48*
X1977Y423D02*
D03*
Y523D02*
D03*
D49*
X2441Y2441D02*
D03*
X709D02*
D03*
X2441Y709D02*
D03*
X709D02*
D03*
D50*
X1637Y1559D02*
D03*
X1684Y1918D02*
D03*
X2194Y1799D02*
D03*
X2019Y1802D02*
D03*
X1299Y738D02*
D03*
X1240D02*
D03*
X1181D02*
D03*
X1122D02*
D03*
X1063D02*
D03*
X591Y856D02*
D03*
X827D02*
D03*
X1004Y738D02*
D03*
X945D02*
D03*
X886D02*
D03*
X591Y915D02*
D03*
X650D02*
D03*
X709D02*
D03*
X768D02*
D03*
X827D02*
D03*
X886D02*
D03*
Y856D02*
D03*
Y797D02*
D03*
X945D02*
D03*
X1004D02*
D03*
X1063D02*
D03*
Y856D02*
D03*
Y915D02*
D03*
X1122D02*
D03*
Y856D02*
D03*
Y797D02*
D03*
X1181D02*
D03*
X1240D02*
D03*
X1299D02*
D03*
Y856D02*
D03*
Y915D02*
D03*
Y974D02*
D03*
X1240D02*
D03*
X1181D02*
D03*
X1122D02*
D03*
X1063D02*
D03*
X1004D02*
D03*
X945D02*
D03*
X886D02*
D03*
X827D02*
D03*
X768D02*
D03*
X709D02*
D03*
X650D02*
D03*
X591D02*
D03*
X1888Y557D02*
D03*
X1771Y2301D02*
D03*
X2157Y1579D02*
D03*
X2227Y569D02*
D03*
X2193Y1656D02*
D03*
X2156Y1468D02*
D03*
X1855Y1450D02*
D03*
X1857Y1370D02*
D03*
X1152Y1565D02*
D03*
X61Y1575D02*
D03*
X172Y1614D02*
D03*
X1150Y1769D02*
D03*
X958Y1338D02*
D03*
X960Y1268D02*
D03*
X1203Y1368D02*
D03*
X1205Y1619D02*
D03*
X172Y1535D02*
D03*
X538Y1579D02*
D03*
X550Y1665D02*
D03*
X540Y1492D02*
D03*
X1153Y1619D02*
D03*
X662Y1855D02*
D03*
X1070Y2121D02*
D03*
X960Y1667D02*
D03*
X957Y1444D02*
D03*
X958Y1718D02*
D03*
X1789Y820D02*
D03*
X1644Y774D02*
D03*
X2031Y852D02*
D03*
X1270Y2550D02*
D03*
X1118Y1732D02*
D03*
X967Y1219D02*
D03*
X1863Y1556D02*
D03*
X1992Y1136D02*
D03*
X1364Y1346D02*
D03*
X1744Y1226D02*
D03*
X1733Y1180D02*
D03*
X2328Y1571D02*
D03*
X1963Y1450D02*
D03*
X2010Y1452D02*
D03*
X2199Y1713D02*
D03*
X2144Y1651D02*
D03*
X2107Y1626D02*
D03*
X2066Y1651D02*
D03*
X2188Y1543D02*
D03*
X2156Y1513D02*
D03*
X2106Y1480D02*
D03*
X2157Y1421D02*
D03*
X1858Y1502D02*
D03*
X1732Y1559D02*
D03*
X1898Y1586D02*
D03*
X1713Y1068D02*
D03*
X2310Y1466D02*
D03*
X2313Y1373D02*
D03*
X2310Y1316D02*
D03*
X2098Y2387D02*
D03*
X2120Y2329D02*
D03*
X1920Y2367D02*
D03*
X1820D02*
D03*
X2240Y2352D02*
D03*
X2097Y2448D02*
D03*
X1575D02*
D03*
X1711Y1433D02*
D03*
X1677Y1461D02*
D03*
X1476Y1680D02*
D03*
X1466Y1731D02*
D03*
X1368Y2335D02*
D03*
X1882Y2130D02*
D03*
X1921Y2410D02*
D03*
X2194Y1866D02*
D03*
X1967Y1919D02*
D03*
X1530Y1952D02*
D03*
X1391Y2063D02*
D03*
X2323Y1732D02*
D03*
X1637Y1607D02*
D03*
X1858Y1626D02*
D03*
X1606Y1820D02*
D03*
X1911Y1350D02*
D03*
X1864Y1072D02*
D03*
X1894Y1038D02*
D03*
X1800Y1002D02*
D03*
X1877Y785D02*
D03*
X1533Y813D02*
D03*
X1520Y2082D02*
D03*
X1469Y1777D02*
D03*
X1546Y1561D02*
D03*
X1637Y1492D02*
D03*
X1577Y1380D02*
D03*
X1421Y1364D02*
D03*
X1488Y1365D02*
D03*
X1050Y627D02*
D03*
X1369Y625D02*
D03*
X1472Y2532D02*
D03*
X629Y2172D02*
D03*
X628Y1157D02*
D03*
X1514Y1324D02*
D03*
X1827Y1711D02*
D03*
X1202Y1268D02*
D03*
X1618Y2407D02*
D03*
X1547Y968D02*
D03*
X1423Y1122D02*
D03*
X1575Y2369D02*
D03*
X1715Y1002D02*
D03*
M02*
