%FSLAX23Y23*%
%MOIN*%
G70*
G01*
G75*
G04 Layer_Color=12566272*
G04 Layer_Color=12566272*
%ADD10C,0.089*%
%ADD11R,0.031X0.039*%
%ADD12R,0.012X0.059*%
%ADD13R,0.059X0.012*%
%ADD14R,0.043X0.039*%
%ADD15R,0.039X0.043*%
%ADD16R,0.087X0.043*%
%ADD17R,0.039X0.039*%
%ADD18R,0.043X0.087*%
%ADD19C,0.047*%
%ADD20R,0.079X0.098*%
%ADD21R,0.098X0.055*%
%ADD22R,0.118X0.055*%
%ADD23R,0.020X0.098*%
%ADD24R,0.039X0.024*%
%ADD25R,0.039X0.020*%
%ADD26R,0.051X0.059*%
%ADD27R,0.094X0.102*%
%ADD28R,0.079X0.020*%
%ADD29R,0.217X0.079*%
%ADD30R,0.059X0.051*%
%ADD31R,0.134X0.069*%
%ADD32R,0.041X0.069*%
%ADD33R,0.041X0.069*%
%ADD34R,0.047X0.024*%
%ADD35R,0.106X0.063*%
%ADD36R,0.079X0.114*%
%ADD37C,0.020*%
%ADD38C,0.012*%
%ADD39C,0.039*%
%ADD40C,0.008*%
%ADD41R,2.402X0.089*%
%ADD42R,0.089X2.411*%
%ADD43R,0.089X1.191*%
%ADD44C,0.098*%
%ADD45R,0.059X0.059*%
%ADD46C,0.059*%
%ADD47C,0.031*%
%ADD48C,0.039*%
%ADD49C,0.276*%
%ADD50C,0.035*%
%ADD51R,0.039X0.098*%
%ADD52C,0.010*%
%ADD53C,0.010*%
%ADD54R,0.039X0.047*%
%ADD55R,0.020X0.067*%
%ADD56R,0.067X0.020*%
%ADD57R,0.051X0.047*%
%ADD58R,0.047X0.051*%
%ADD59R,0.094X0.051*%
%ADD60R,0.047X0.047*%
%ADD61R,0.051X0.094*%
%ADD62C,0.055*%
%ADD63R,0.087X0.106*%
%ADD64R,0.126X0.063*%
%ADD65R,0.028X0.106*%
%ADD66R,0.047X0.031*%
%ADD67R,0.047X0.028*%
%ADD68R,0.059X0.067*%
%ADD69R,0.102X0.110*%
%ADD70R,0.087X0.028*%
%ADD71R,0.224X0.087*%
%ADD72R,0.067X0.059*%
%ADD73R,0.142X0.077*%
%ADD74R,0.049X0.077*%
%ADD75R,0.049X0.077*%
%ADD76R,0.055X0.031*%
%ADD77R,0.114X0.071*%
%ADD78R,0.087X0.122*%
%ADD79C,0.106*%
%ADD80R,0.067X0.067*%
%ADD81C,0.067*%
%ADD82C,0.283*%
%ADD83R,0.047X0.106*%
D19*
X1977Y423D02*
D03*
Y523D02*
D03*
D38*
X2196Y2151D02*
X2243D01*
X2196D02*
X2219Y2174D01*
X2219D02*
X2243Y2151D01*
D40*
X2235Y2044D02*
X2211D01*
X2207Y2042D01*
X2205Y2041D01*
X2204Y2038D01*
Y2035D01*
X2205Y2032D01*
X2207Y2030D01*
X2211Y2029D01*
X2214D01*
X2235Y2062D02*
X2204D01*
X2235Y2052D02*
Y2073D01*
X2204Y2100D02*
X2235Y2088D01*
X2204Y2076D01*
X2214Y2081D02*
Y2096D01*
X2228Y2130D02*
X2231Y2129D01*
X2234Y2126D01*
X2235Y2123D01*
Y2117D01*
X2234Y2114D01*
X2231Y2111D01*
X2228Y2109D01*
X2223Y2108D01*
X2216D01*
X2211Y2109D01*
X2208Y2111D01*
X2205Y2114D01*
X2204Y2117D01*
Y2123D01*
X2205Y2126D01*
X2208Y2129D01*
X2211Y2130D01*
X2216D01*
Y2123D02*
Y2130D01*
X2504Y2722D02*
Y2677D01*
Y2722D02*
X2485D01*
X2478Y2720D01*
X2476Y2718D01*
X2474Y2714D01*
Y2709D01*
X2476Y2705D01*
X2478Y2703D01*
X2485Y2701D01*
X2504D01*
X2489D02*
X2474Y2677D01*
X2464Y2722D02*
Y2677D01*
Y2722D02*
X2436D01*
X2464Y2701D02*
X2446D01*
X2430Y2722D02*
Y2677D01*
X2421Y2722D02*
Y2677D01*
Y2722D02*
X2406D01*
X2399Y2720D01*
X2395Y2716D01*
X2393Y2712D01*
X2391Y2705D01*
Y2694D01*
X2393Y2688D01*
X2395Y2684D01*
X2399Y2679D01*
X2406Y2677D01*
X2421D01*
X2381Y2697D02*
X2342D01*
X2328Y2722D02*
Y2677D01*
Y2722D02*
X2309D01*
X2303Y2720D01*
X2300Y2718D01*
X2298Y2714D01*
Y2709D01*
X2300Y2705D01*
X2303Y2703D01*
X2309Y2701D01*
X2328D01*
X2313D02*
X2298Y2677D01*
X2260Y2722D02*
X2288D01*
Y2677D01*
X2260D01*
X2288Y2701D02*
X2271D01*
X2218Y2677D02*
X2235Y2722D01*
X2253Y2677D01*
X2246Y2692D02*
X2225D01*
X2208Y2722D02*
Y2677D01*
Y2722D02*
X2192D01*
X2186Y2720D01*
X2182Y2716D01*
X2180Y2712D01*
X2177Y2705D01*
Y2694D01*
X2180Y2688D01*
X2182Y2684D01*
X2186Y2679D01*
X2192Y2677D01*
X2208D01*
X2139Y2722D02*
X2167D01*
Y2677D01*
X2139D01*
X2167Y2701D02*
X2150D01*
X2132Y2722D02*
Y2677D01*
Y2722D02*
X2112D01*
X2106Y2720D01*
X2104Y2718D01*
X2102Y2714D01*
Y2709D01*
X2104Y2705D01*
X2106Y2703D01*
X2112Y2701D01*
X2132D01*
X2117D02*
X2102Y2677D01*
X2056Y2707D02*
X2043Y2677D01*
X2030Y2707D02*
X2043Y2677D01*
X2010Y2722D02*
X2016Y2720D01*
X2020Y2714D01*
X2023Y2703D01*
Y2697D01*
X2020Y2686D01*
X2016Y2679D01*
X2010Y2677D01*
X2005D01*
X1999Y2679D01*
X1995Y2686D01*
X1992Y2697D01*
Y2703D01*
X1995Y2714D01*
X1999Y2720D01*
X2005Y2722D01*
X2010D01*
X1980Y2681D02*
X1982Y2679D01*
X1980Y2677D01*
X1978Y2679D01*
X1980Y2681D01*
X1947Y2722D02*
X1968Y2692D01*
X1936D01*
X1947Y2722D02*
Y2677D01*
X1143Y2707D02*
X1134Y2677D01*
X1125Y2707D02*
X1134Y2677D01*
X1125Y2707D02*
X1117Y2677D01*
X1108Y2707D02*
X1117Y2677D01*
X1098Y2707D02*
X1089Y2677D01*
X1080Y2707D02*
X1089Y2677D01*
X1080Y2707D02*
X1072Y2677D01*
X1063Y2707D02*
X1072Y2677D01*
X1053Y2707D02*
X1044Y2677D01*
X1035Y2707D02*
X1044Y2677D01*
X1035Y2707D02*
X1027Y2677D01*
X1018Y2707D02*
X1027Y2677D01*
X1005Y2681D02*
X1008Y2679D01*
X1005Y2677D01*
X1003Y2679D01*
X1005Y2681D01*
X983Y2707D02*
X987Y2705D01*
X991Y2701D01*
X993Y2694D01*
Y2690D01*
X991Y2684D01*
X987Y2679D01*
X983Y2677D01*
X976D01*
X972Y2679D01*
X967Y2684D01*
X965Y2690D01*
Y2694D01*
X967Y2701D01*
X972Y2705D01*
X976Y2707D01*
X983D01*
X955D02*
Y2662D01*
Y2701D02*
X951Y2705D01*
X947Y2707D01*
X940D01*
X936Y2705D01*
X932Y2701D01*
X930Y2694D01*
Y2690D01*
X932Y2684D01*
X936Y2679D01*
X940Y2677D01*
X947D01*
X951Y2679D01*
X955Y2684D01*
X920Y2694D02*
X894D01*
Y2699D01*
X896Y2703D01*
X898Y2705D01*
X903Y2707D01*
X909D01*
X913Y2705D01*
X918Y2701D01*
X920Y2694D01*
Y2690D01*
X918Y2684D01*
X913Y2679D01*
X909Y2677D01*
X903D01*
X898Y2679D01*
X894Y2684D01*
X884Y2707D02*
Y2677D01*
Y2699D02*
X878Y2705D01*
X873Y2707D01*
X867D01*
X863Y2705D01*
X861Y2699D01*
Y2677D01*
X849Y2707D02*
Y2662D01*
Y2701D02*
X844Y2705D01*
X840Y2707D01*
X834D01*
X829Y2705D01*
X825Y2701D01*
X823Y2694D01*
Y2690D01*
X825Y2684D01*
X829Y2679D01*
X834Y2677D01*
X840D01*
X844Y2679D01*
X849Y2684D01*
X787Y2701D02*
X792Y2705D01*
X796Y2707D01*
X802D01*
X807Y2705D01*
X811Y2701D01*
X813Y2694D01*
Y2690D01*
X811Y2684D01*
X807Y2679D01*
X802Y2677D01*
X796D01*
X792Y2679D01*
X787Y2684D01*
X752Y2722D02*
Y2677D01*
Y2701D02*
X756Y2705D01*
X760Y2707D01*
X767D01*
X771Y2705D01*
X775Y2701D01*
X778Y2694D01*
Y2690D01*
X775Y2684D01*
X771Y2679D01*
X767Y2677D01*
X760D01*
X756Y2679D01*
X752Y2684D01*
X737Y2681D02*
X740Y2679D01*
X737Y2677D01*
X735Y2679D01*
X737Y2681D01*
X715Y2707D02*
X719Y2705D01*
X723Y2701D01*
X725Y2694D01*
Y2690D01*
X723Y2684D01*
X719Y2679D01*
X715Y2677D01*
X708D01*
X704Y2679D01*
X700Y2684D01*
X697Y2690D01*
Y2694D01*
X700Y2701D01*
X704Y2705D01*
X708Y2707D01*
X715D01*
X687D02*
Y2677D01*
Y2694D02*
X685Y2701D01*
X681Y2705D01*
X677Y2707D01*
X670D01*
X640D02*
Y2673D01*
X642Y2666D01*
X645Y2664D01*
X649Y2662D01*
X655D01*
X660Y2664D01*
X640Y2701D02*
X645Y2705D01*
X649Y2707D01*
X655D01*
X660Y2705D01*
X664Y2701D01*
X666Y2694D01*
Y2690D01*
X664Y2684D01*
X660Y2679D01*
X655Y2677D01*
X649D01*
X645Y2679D01*
X640Y2684D01*
X2770Y691D02*
X2766Y687D01*
X2760Y683D01*
X2751Y678D01*
X2740Y676D01*
X2732D01*
X2721Y678D01*
X2712Y683D01*
X2706Y687D01*
X2701Y691D01*
X2766Y687D02*
X2757Y683D01*
X2751Y680D01*
X2740Y678D01*
X2732D01*
X2721Y680D01*
X2714Y683D01*
X2706Y687D01*
X2740Y726D02*
X2745Y721D01*
X2747Y717D01*
Y711D01*
X2745Y706D01*
X2740Y702D01*
X2734Y700D01*
X2729D01*
X2723Y702D01*
X2719Y706D01*
X2717Y711D01*
Y717D01*
X2719Y721D01*
X2723Y726D01*
X2770Y735D02*
X2766Y740D01*
X2760Y744D01*
X2751Y748D01*
X2740Y751D01*
X2732D01*
X2721Y748D01*
X2712Y744D01*
X2706Y740D01*
X2701Y735D01*
X2766Y740D02*
X2757Y744D01*
X2751Y746D01*
X2740Y748D01*
X2732D01*
X2721Y746D01*
X2714Y744D01*
X2706Y740D01*
X2751Y799D02*
X2753D01*
X2757Y801D01*
X2760Y804D01*
X2762Y808D01*
Y817D01*
X2760Y821D01*
X2757Y823D01*
X2753Y825D01*
X2749D01*
X2745Y823D01*
X2738Y819D01*
X2717Y797D01*
Y827D01*
X2762Y850D02*
X2760Y844D01*
X2753Y840D01*
X2742Y837D01*
X2736D01*
X2725Y840D01*
X2719Y844D01*
X2717Y850D01*
Y855D01*
X2719Y861D01*
X2725Y865D01*
X2736Y868D01*
X2742D01*
X2753Y865D01*
X2760Y861D01*
X2762Y855D01*
Y850D01*
Y891D02*
X2760Y884D01*
X2753Y880D01*
X2742Y878D01*
X2736D01*
X2725Y880D01*
X2719Y884D01*
X2717Y891D01*
Y895D01*
X2719Y901D01*
X2725Y906D01*
X2736Y908D01*
X2742D01*
X2753Y906D01*
X2760Y901D01*
X2762Y895D01*
Y891D01*
X2755Y944D02*
X2760Y942D01*
X2762Y935D01*
Y931D01*
X2760Y924D01*
X2753Y920D01*
X2742Y918D01*
X2732D01*
X2723Y920D01*
X2719Y924D01*
X2717Y931D01*
Y933D01*
X2719Y940D01*
X2723Y944D01*
X2729Y946D01*
X2732D01*
X2738Y944D01*
X2742Y940D01*
X2745Y933D01*
Y931D01*
X2742Y924D01*
X2738Y920D01*
X2732Y918D01*
X2755Y1026D02*
X2736Y992D01*
X2717Y1026D01*
X2762Y1039D02*
X2717D01*
X2740D02*
X2745Y1043D01*
X2747Y1048D01*
Y1054D01*
X2745Y1058D01*
X2740Y1063D01*
X2734Y1065D01*
X2729D01*
X2723Y1063D01*
X2719Y1058D01*
X2717Y1054D01*
Y1048D01*
X2719Y1043D01*
X2723Y1039D01*
X2747Y1075D02*
X2717D01*
X2734D02*
X2740Y1077D01*
X2745Y1081D01*
X2747Y1085D01*
Y1092D01*
X2762Y1100D02*
X2760Y1102D01*
X2762Y1104D01*
X2764Y1102D01*
X2762Y1100D01*
X2747Y1102D02*
X2717D01*
X2762Y1119D02*
X2725D01*
X2719Y1121D01*
X2717Y1125D01*
Y1130D01*
X2747Y1112D02*
Y1128D01*
Y1162D02*
X2717D01*
X2740D02*
X2745Y1158D01*
X2747Y1153D01*
Y1147D01*
X2745Y1143D01*
X2740Y1138D01*
X2734Y1136D01*
X2729D01*
X2723Y1138D01*
X2719Y1143D01*
X2717Y1147D01*
Y1153D01*
X2719Y1158D01*
X2723Y1162D01*
X2721Y1176D02*
X2719Y1174D01*
X2717Y1176D01*
X2719Y1178D01*
X2721Y1176D01*
X2747Y1188D02*
X2717D01*
X2738D02*
X2745Y1195D01*
X2747Y1199D01*
Y1206D01*
X2745Y1210D01*
X2738Y1212D01*
X2717D01*
X2738D02*
X2745Y1219D01*
X2747Y1223D01*
Y1229D01*
X2745Y1234D01*
X2738Y1236D01*
X2717D01*
X2734Y1250D02*
Y1276D01*
X2738D01*
X2742Y1274D01*
X2745Y1272D01*
X2747Y1267D01*
Y1261D01*
X2745Y1256D01*
X2740Y1252D01*
X2734Y1250D01*
X2729D01*
X2723Y1252D01*
X2719Y1256D01*
X2717Y1261D01*
Y1267D01*
X2719Y1272D01*
X2723Y1276D01*
X2747Y1286D02*
X2717D01*
X2734D02*
X2740Y1288D01*
X2745Y1292D01*
X2747Y1296D01*
Y1303D01*
X2762Y1311D02*
X2760Y1313D01*
X2762Y1316D01*
X2764Y1313D01*
X2762Y1311D01*
X2747Y1313D02*
X2717D01*
X2747Y1349D02*
X2717D01*
X2740D02*
X2745Y1345D01*
X2747Y1341D01*
Y1334D01*
X2745Y1330D01*
X2740Y1326D01*
X2734Y1323D01*
X2729D01*
X2723Y1326D01*
X2719Y1330D01*
X2717Y1334D01*
Y1341D01*
X2719Y1345D01*
X2723Y1349D01*
X2740Y1387D02*
X2745Y1383D01*
X2747Y1379D01*
Y1372D01*
X2745Y1368D01*
X2740Y1364D01*
X2734Y1361D01*
X2729D01*
X2723Y1364D01*
X2719Y1368D01*
X2717Y1372D01*
Y1379D01*
X2719Y1383D01*
X2723Y1387D01*
X2745Y1429D02*
X2749Y1427D01*
X2751Y1423D01*
Y1416D01*
X2749Y1412D01*
X2747Y1410D01*
X2740Y1408D01*
X2734D01*
X2729Y1410D01*
X2727Y1414D01*
Y1421D01*
X2729Y1425D01*
X2734Y1427D01*
X2751Y1416D02*
X2747Y1412D01*
X2740Y1410D01*
X2734D01*
X2729Y1412D01*
X2727Y1414D01*
X2751Y1429D02*
X2734Y1427D01*
X2729D01*
X2727Y1431D01*
Y1436D01*
X2732Y1440D01*
X2738Y1442D01*
X2742D01*
X2749Y1440D01*
X2753Y1438D01*
X2757Y1434D01*
X2760Y1429D01*
X2762Y1423D01*
Y1416D01*
X2760Y1410D01*
X2757Y1406D01*
X2753Y1401D01*
X2749Y1399D01*
X2742Y1397D01*
X2736D01*
X2729Y1399D01*
X2725Y1401D01*
X2721Y1406D01*
X2719Y1410D01*
X2717Y1416D01*
Y1423D01*
X2719Y1429D01*
X2721Y1434D01*
X2723Y1436D01*
X2751Y1431D02*
X2734Y1429D01*
X2729D01*
X2727Y1431D01*
X2762Y1454D02*
X2717D01*
X2740D02*
X2745Y1458D01*
X2747Y1463D01*
Y1469D01*
X2745Y1473D01*
X2740Y1478D01*
X2734Y1480D01*
X2729D01*
X2723Y1478D01*
X2719Y1473D01*
X2717Y1469D01*
Y1463D01*
X2719Y1458D01*
X2723Y1454D01*
X2762Y1494D02*
X2760Y1496D01*
X2762Y1498D01*
X2764Y1496D01*
X2762Y1494D01*
X2747Y1496D02*
X2717D01*
X2762Y1513D02*
X2725D01*
X2719Y1515D01*
X2717Y1519D01*
Y1523D01*
X2747Y1506D02*
Y1521D01*
Y1530D02*
X2717D01*
X2738D02*
X2745Y1536D01*
X2747Y1541D01*
Y1547D01*
X2745Y1551D01*
X2738Y1553D01*
X2717D01*
X2738D02*
X2745Y1560D01*
X2747Y1564D01*
Y1571D01*
X2745Y1575D01*
X2738Y1577D01*
X2717D01*
X2747Y1617D02*
X2717D01*
X2740D02*
X2745Y1613D01*
X2747Y1609D01*
Y1602D01*
X2745Y1598D01*
X2740Y1594D01*
X2734Y1591D01*
X2729D01*
X2723Y1594D01*
X2719Y1598D01*
X2717Y1602D01*
Y1609D01*
X2719Y1613D01*
X2723Y1617D01*
X2747Y1629D02*
X2717D01*
X2738D02*
X2745Y1636D01*
X2747Y1640D01*
Y1647D01*
X2745Y1651D01*
X2738Y1653D01*
X2717D01*
X2747Y1665D02*
X2725D01*
X2719Y1667D01*
X2717Y1671D01*
Y1678D01*
X2719Y1682D01*
X2725Y1689D01*
X2747D02*
X2717D01*
X2762Y1718D02*
Y1713D01*
X2760Y1709D01*
X2753Y1707D01*
X2717D01*
X2747Y1700D02*
Y1716D01*
Y1750D02*
X2717D01*
X2740D02*
X2745Y1746D01*
X2747Y1741D01*
Y1735D01*
X2745Y1731D01*
X2740Y1726D01*
X2734Y1724D01*
X2729D01*
X2723Y1726D01*
X2719Y1731D01*
X2717Y1735D01*
Y1741D01*
X2719Y1746D01*
X2723Y1750D01*
X2762Y1762D02*
X2717D01*
X2747Y1784D02*
X2725Y1762D01*
X2734Y1771D02*
X2717Y1786D01*
X2762Y1799D02*
X2725D01*
X2719Y1802D01*
X2717Y1806D01*
Y1810D01*
X2747Y1793D02*
Y1808D01*
Y1817D02*
X2725D01*
X2719Y1819D01*
X2717Y1823D01*
Y1830D01*
X2719Y1834D01*
X2725Y1840D01*
X2747D02*
X2717D01*
X2747Y1852D02*
X2717D01*
X2734D02*
X2740Y1854D01*
X2745Y1859D01*
X2747Y1863D01*
Y1869D01*
X2721Y1876D02*
X2719Y1874D01*
X2717Y1876D01*
X2719Y1878D01*
X2721Y1876D01*
X2762Y1914D02*
X2717D01*
X2740D02*
X2745Y1909D01*
X2747Y1905D01*
Y1899D01*
X2745Y1894D01*
X2740Y1890D01*
X2734Y1888D01*
X2729D01*
X2723Y1890D01*
X2719Y1894D01*
X2717Y1899D01*
Y1905D01*
X2719Y1909D01*
X2723Y1914D01*
X2734Y1926D02*
Y1952D01*
X2738D01*
X2742Y1949D01*
X2745Y1947D01*
X2747Y1943D01*
Y1937D01*
X2745Y1932D01*
X2740Y1928D01*
X2734Y1926D01*
X2729D01*
X2723Y1928D01*
X2719Y1932D01*
X2717Y1937D01*
Y1943D01*
X2719Y1947D01*
X2723Y1952D01*
X2755Y1961D02*
X2736Y1996D01*
X2717Y1961D01*
D48*
X1599Y199D02*
D03*
X1772D02*
D03*
D79*
X2320Y2157D02*
D03*
D80*
X920Y2440D02*
D03*
X2441Y1740D02*
D03*
X305Y1675D02*
D03*
X2441Y1000D02*
D03*
Y2220D02*
D03*
D81*
X1020Y2441D02*
D03*
X1120D02*
D03*
X1220D02*
D03*
X2441Y1540D02*
D03*
Y1240D02*
D03*
Y1340D02*
D03*
Y1440D02*
D03*
Y1640D02*
D03*
Y1920D02*
D03*
Y2020D02*
D03*
X305Y1475D02*
D03*
Y1575D02*
D03*
X2341Y1000D02*
D03*
X2241D02*
D03*
X2141D02*
D03*
X2041D02*
D03*
X2441Y2120D02*
D03*
D82*
Y2441D02*
D03*
X709D02*
D03*
X2441Y709D02*
D03*
X709D02*
D03*
D83*
X1320Y2549D02*
D03*
Y2254D02*
D03*
X1420Y2549D02*
D03*
Y2254D02*
D03*
X1520Y2549D02*
D03*
Y2254D02*
D03*
X1620Y2549D02*
D03*
Y2254D02*
D03*
X1720Y2549D02*
D03*
Y2254D02*
D03*
X1820Y2549D02*
D03*
Y2254D02*
D03*
X1920Y2549D02*
D03*
Y2254D02*
D03*
X2020Y2549D02*
D03*
Y2254D02*
D03*
X2120Y2549D02*
D03*
Y2254D02*
D03*
X2220Y2549D02*
D03*
Y2254D02*
D03*
M02*
