%FSLAX23Y23*%
%MOIN*%
G70*
G01*
G75*
G04 Layer_Physical_Order=2*
G04 Layer_Color=36540*
%ADD10C,0.089*%
%ADD11R,0.031X0.039*%
%ADD12R,0.012X0.059*%
%ADD13R,0.059X0.012*%
%ADD14R,0.043X0.039*%
%ADD15R,0.039X0.043*%
%ADD16R,0.087X0.043*%
%ADD17R,0.039X0.039*%
%ADD18R,0.043X0.087*%
%ADD19C,0.047*%
%ADD20R,0.079X0.098*%
%ADD21R,0.098X0.055*%
%ADD22R,0.118X0.055*%
%ADD23R,0.020X0.098*%
%ADD24R,0.039X0.024*%
%ADD25R,0.039X0.020*%
%ADD26R,0.051X0.059*%
%ADD27R,0.094X0.102*%
%ADD28R,0.079X0.020*%
%ADD29R,0.217X0.079*%
%ADD30R,0.059X0.051*%
%ADD31R,0.134X0.069*%
%ADD32R,0.041X0.069*%
%ADD33R,0.041X0.069*%
%ADD34R,0.047X0.024*%
%ADD35R,0.106X0.063*%
%ADD36R,0.079X0.114*%
%ADD37C,0.020*%
%ADD38C,0.012*%
%ADD39C,0.039*%
%ADD40C,0.008*%
%ADD41R,2.402X0.089*%
%ADD42R,0.089X2.411*%
%ADD43R,0.089X1.191*%
%ADD44C,0.098*%
%ADD45R,0.059X0.059*%
%ADD46C,0.059*%
%ADD47C,0.031*%
%ADD48C,0.039*%
%ADD49C,0.276*%
%ADD50C,0.035*%
G36*
X2677Y2474D02*
Y675D01*
X2514Y512D01*
X2029D01*
X2025Y516D01*
X2026Y523D01*
X2025Y536D01*
X2020Y548D01*
X2012Y558D01*
X2002Y566D01*
X1990Y571D01*
X1977Y573D01*
X1964Y571D01*
X1952Y566D01*
X1942Y558D01*
X1934Y548D01*
X1929Y536D01*
X1927Y523D01*
X1928Y516D01*
X1925Y512D01*
X636D01*
X472Y675D01*
Y2474D01*
X472Y2474D01*
X472D01*
X472Y2474D01*
X636Y2638D01*
X2514D01*
X2677Y2474D01*
D02*
G37*
%LPC*%
G36*
X1547Y994D02*
X1537Y992D01*
X1529Y986D01*
X1523Y978D01*
X1521Y968D01*
X1523Y958D01*
X1529Y949D01*
X1537Y943D01*
X1547Y941D01*
X1557Y943D01*
X1566Y949D01*
X1571Y958D01*
X1573Y968D01*
X1571Y978D01*
X1566Y986D01*
X1557Y992D01*
X1547Y994D01*
D02*
G37*
G36*
X1299Y941D02*
X1289Y939D01*
X1281Y934D01*
X1275Y925D01*
X1273Y915D01*
X1275Y905D01*
X1281Y897D01*
X1289Y891D01*
X1299Y889D01*
X1309Y891D01*
X1318Y897D01*
X1323Y905D01*
X1325Y915D01*
X1323Y925D01*
X1318Y934D01*
X1309Y939D01*
X1299Y941D01*
D02*
G37*
G36*
X1122D02*
X1112Y939D01*
X1104Y934D01*
X1098Y925D01*
X1096Y915D01*
X1098Y905D01*
X1104Y897D01*
X1112Y891D01*
X1122Y889D01*
X1132Y891D01*
X1140Y897D01*
X1146Y905D01*
X1148Y915D01*
X1146Y925D01*
X1140Y934D01*
X1132Y939D01*
X1122Y941D01*
D02*
G37*
G36*
X591Y1001D02*
X581Y999D01*
X572Y993D01*
X566Y984D01*
X564Y974D01*
X566Y964D01*
X572Y956D01*
X581Y950D01*
X591Y948D01*
X601Y950D01*
X609Y956D01*
X615Y964D01*
X617Y974D01*
X615Y984D01*
X609Y993D01*
X601Y999D01*
X591Y1001D01*
D02*
G37*
G36*
X768D02*
X758Y999D01*
X749Y993D01*
X744Y984D01*
X742Y974D01*
X744Y964D01*
X749Y956D01*
X758Y950D01*
X768Y948D01*
X778Y950D01*
X786Y956D01*
X792Y964D01*
X794Y974D01*
X792Y984D01*
X786Y993D01*
X778Y999D01*
X768Y1001D01*
D02*
G37*
G36*
X709D02*
X699Y999D01*
X690Y993D01*
X685Y984D01*
X683Y974D01*
X685Y964D01*
X690Y956D01*
X699Y950D01*
X709Y948D01*
X719Y950D01*
X727Y956D01*
X733Y964D01*
X735Y974D01*
X733Y984D01*
X727Y993D01*
X719Y999D01*
X709Y1001D01*
D02*
G37*
G36*
X650D02*
X640Y999D01*
X631Y993D01*
X626Y984D01*
X624Y974D01*
X626Y964D01*
X631Y956D01*
X640Y950D01*
X650Y948D01*
X660Y950D01*
X668Y956D01*
X674Y964D01*
X676Y974D01*
X674Y984D01*
X668Y993D01*
X660Y999D01*
X650Y1001D01*
D02*
G37*
G36*
X709Y941D02*
X699Y939D01*
X690Y934D01*
X685Y925D01*
X683Y915D01*
X685Y905D01*
X690Y897D01*
X699Y891D01*
X709Y889D01*
X719Y891D01*
X727Y897D01*
X733Y905D01*
X735Y915D01*
X733Y925D01*
X727Y934D01*
X719Y939D01*
X709Y941D01*
D02*
G37*
G36*
X650D02*
X640Y939D01*
X631Y934D01*
X626Y925D01*
X624Y915D01*
X626Y905D01*
X631Y897D01*
X640Y891D01*
X650Y889D01*
X660Y891D01*
X668Y897D01*
X674Y905D01*
X676Y915D01*
X674Y925D01*
X668Y934D01*
X660Y939D01*
X650Y941D01*
D02*
G37*
G36*
X591D02*
X581Y939D01*
X572Y934D01*
X566Y925D01*
X564Y915D01*
X566Y905D01*
X572Y897D01*
X581Y891D01*
X591Y889D01*
X601Y891D01*
X609Y897D01*
X615Y905D01*
X617Y915D01*
X615Y925D01*
X609Y934D01*
X601Y939D01*
X591Y941D01*
D02*
G37*
G36*
X768D02*
X758Y939D01*
X749Y934D01*
X744Y925D01*
X742Y915D01*
X744Y905D01*
X749Y897D01*
X758Y891D01*
X768Y889D01*
X778Y891D01*
X786Y897D01*
X792Y905D01*
X794Y915D01*
X792Y925D01*
X786Y934D01*
X778Y939D01*
X768Y941D01*
D02*
G37*
G36*
X1063D02*
X1053Y939D01*
X1045Y934D01*
X1039Y925D01*
X1037Y915D01*
X1039Y905D01*
X1045Y897D01*
X1053Y891D01*
X1063Y889D01*
X1073Y891D01*
X1081Y897D01*
X1087Y905D01*
X1089Y915D01*
X1087Y925D01*
X1081Y934D01*
X1073Y939D01*
X1063Y941D01*
D02*
G37*
G36*
X886D02*
X876Y939D01*
X867Y934D01*
X862Y925D01*
X860Y915D01*
X862Y905D01*
X867Y897D01*
X876Y891D01*
X886Y889D01*
X896Y891D01*
X904Y897D01*
X910Y905D01*
X912Y915D01*
X910Y925D01*
X904Y934D01*
X896Y939D01*
X886Y941D01*
D02*
G37*
G36*
X827D02*
X817Y939D01*
X808Y934D01*
X803Y925D01*
X801Y915D01*
X803Y905D01*
X808Y897D01*
X817Y891D01*
X827Y889D01*
X837Y891D01*
X845Y897D01*
X851Y905D01*
X853Y915D01*
X851Y925D01*
X845Y934D01*
X837Y939D01*
X827Y941D01*
D02*
G37*
G36*
X2490Y995D02*
X2446D01*
Y951D01*
X2490D01*
Y995D01*
D02*
G37*
G36*
X1299Y1001D02*
X1289Y999D01*
X1281Y993D01*
X1275Y984D01*
X1273Y974D01*
X1275Y964D01*
X1281Y956D01*
X1289Y950D01*
X1299Y948D01*
X1309Y950D01*
X1318Y956D01*
X1323Y964D01*
X1325Y974D01*
X1323Y984D01*
X1318Y993D01*
X1309Y999D01*
X1299Y1001D01*
D02*
G37*
G36*
X1240D02*
X1230Y999D01*
X1222Y993D01*
X1216Y984D01*
X1214Y974D01*
X1216Y964D01*
X1222Y956D01*
X1230Y950D01*
X1240Y948D01*
X1250Y950D01*
X1259Y956D01*
X1264Y964D01*
X1266Y974D01*
X1264Y984D01*
X1259Y993D01*
X1250Y999D01*
X1240Y1001D01*
D02*
G37*
G36*
X1800Y1028D02*
X1790Y1026D01*
X1782Y1021D01*
X1776Y1012D01*
X1774Y1002D01*
X1776Y992D01*
X1782Y984D01*
X1790Y978D01*
X1800Y976D01*
X1810Y978D01*
X1818Y984D01*
X1824Y992D01*
X1826Y1002D01*
X1824Y1012D01*
X1818Y1021D01*
X1810Y1026D01*
X1800Y1028D01*
D02*
G37*
G36*
X1713Y1094D02*
X1703Y1092D01*
X1694Y1086D01*
X1688Y1078D01*
X1687Y1068D01*
X1688Y1058D01*
X1694Y1049D01*
X1703Y1044D01*
X1713Y1042D01*
X1723Y1044D01*
X1731Y1049D01*
X1737Y1058D01*
X1739Y1068D01*
X1737Y1078D01*
X1731Y1086D01*
X1723Y1092D01*
X1713Y1094D01*
D02*
G37*
G36*
X2341Y1050D02*
X2328Y1048D01*
X2316Y1043D01*
X2306Y1035D01*
X2298Y1025D01*
X2293Y1014D01*
X2288D01*
X2284Y1025D01*
X2276Y1035D01*
X2266Y1043D01*
X2254Y1048D01*
X2241Y1050D01*
X2228Y1048D01*
X2216Y1043D01*
X2206Y1035D01*
X2198Y1025D01*
X2193Y1014D01*
X2188D01*
X2184Y1025D01*
X2176Y1035D01*
X2166Y1043D01*
X2154Y1048D01*
X2141Y1050D01*
X2128Y1048D01*
X2116Y1043D01*
X2106Y1035D01*
X2098Y1025D01*
X2093Y1014D01*
X2088D01*
X2084Y1025D01*
X2076Y1035D01*
X2066Y1043D01*
X2054Y1048D01*
X2041Y1050D01*
X2028Y1048D01*
X2016Y1043D01*
X2006Y1035D01*
X1998Y1025D01*
X1993Y1013D01*
X1991Y1000D01*
X1993Y987D01*
X1998Y975D01*
X2006Y965D01*
X2016Y957D01*
X2028Y952D01*
X2041Y950D01*
X2054Y952D01*
X2066Y957D01*
X2076Y965D01*
X2084Y975D01*
X2088Y986D01*
X2093D01*
X2098Y975D01*
X2106Y965D01*
X2116Y957D01*
X2128Y952D01*
X2141Y950D01*
X2154Y952D01*
X2166Y957D01*
X2176Y965D01*
X2184Y975D01*
X2188Y986D01*
X2193D01*
X2198Y975D01*
X2206Y965D01*
X2216Y957D01*
X2228Y952D01*
X2241Y950D01*
X2254Y952D01*
X2266Y957D01*
X2276Y965D01*
X2284Y975D01*
X2288Y986D01*
X2293D01*
X2298Y975D01*
X2306Y965D01*
X2316Y957D01*
X2328Y952D01*
X2341Y950D01*
X2354Y952D01*
X2366Y957D01*
X2376Y965D01*
X2384Y975D01*
X2387Y982D01*
X2392Y981D01*
Y951D01*
X2436D01*
Y1000D01*
Y1049D01*
X2392D01*
Y1019D01*
X2387Y1018D01*
X2384Y1025D01*
X2376Y1035D01*
X2366Y1043D01*
X2354Y1048D01*
X2341Y1050D01*
D02*
G37*
G36*
X2490Y1049D02*
X2446D01*
Y1005D01*
X2490D01*
Y1049D01*
D02*
G37*
G36*
X945Y1001D02*
X935Y999D01*
X926Y993D01*
X921Y984D01*
X919Y974D01*
X921Y964D01*
X926Y956D01*
X935Y950D01*
X945Y948D01*
X955Y950D01*
X963Y956D01*
X969Y964D01*
X971Y974D01*
X969Y984D01*
X963Y993D01*
X955Y999D01*
X945Y1001D01*
D02*
G37*
G36*
X886D02*
X876Y999D01*
X867Y993D01*
X862Y984D01*
X860Y974D01*
X862Y964D01*
X867Y956D01*
X876Y950D01*
X886Y948D01*
X896Y950D01*
X904Y956D01*
X910Y964D01*
X912Y974D01*
X910Y984D01*
X904Y993D01*
X896Y999D01*
X886Y1001D01*
D02*
G37*
G36*
X827D02*
X817Y999D01*
X808Y993D01*
X803Y984D01*
X801Y974D01*
X803Y964D01*
X808Y956D01*
X817Y950D01*
X827Y948D01*
X837Y950D01*
X845Y956D01*
X851Y964D01*
X853Y974D01*
X851Y984D01*
X845Y993D01*
X837Y999D01*
X827Y1001D01*
D02*
G37*
G36*
X1004D02*
X994Y999D01*
X985Y993D01*
X980Y984D01*
X978Y974D01*
X980Y964D01*
X985Y956D01*
X994Y950D01*
X1004Y948D01*
X1014Y950D01*
X1022Y956D01*
X1028Y964D01*
X1030Y974D01*
X1028Y984D01*
X1022Y993D01*
X1014Y999D01*
X1004Y1001D01*
D02*
G37*
G36*
X1181D02*
X1171Y999D01*
X1163Y993D01*
X1157Y984D01*
X1155Y974D01*
X1157Y964D01*
X1163Y956D01*
X1171Y950D01*
X1181Y948D01*
X1191Y950D01*
X1200Y956D01*
X1205Y964D01*
X1207Y974D01*
X1205Y984D01*
X1200Y993D01*
X1191Y999D01*
X1181Y1001D01*
D02*
G37*
G36*
X1122D02*
X1112Y999D01*
X1104Y993D01*
X1098Y984D01*
X1096Y974D01*
X1098Y964D01*
X1104Y956D01*
X1112Y950D01*
X1122Y948D01*
X1132Y950D01*
X1140Y956D01*
X1146Y964D01*
X1148Y974D01*
X1146Y984D01*
X1140Y993D01*
X1132Y999D01*
X1122Y1001D01*
D02*
G37*
G36*
X1063D02*
X1053Y999D01*
X1045Y993D01*
X1039Y984D01*
X1037Y974D01*
X1039Y964D01*
X1045Y956D01*
X1053Y950D01*
X1063Y948D01*
X1073Y950D01*
X1081Y956D01*
X1087Y964D01*
X1089Y974D01*
X1087Y984D01*
X1081Y993D01*
X1073Y999D01*
X1063Y1001D01*
D02*
G37*
G36*
X1299Y882D02*
X1289Y880D01*
X1281Y875D01*
X1275Y866D01*
X1273Y856D01*
X1275Y846D01*
X1281Y838D01*
X1289Y832D01*
X1299Y830D01*
X1309Y832D01*
X1318Y838D01*
X1323Y846D01*
X1325Y856D01*
X1323Y866D01*
X1318Y875D01*
X1309Y880D01*
X1299Y882D01*
D02*
G37*
G36*
X1240Y764D02*
X1230Y762D01*
X1222Y757D01*
X1216Y748D01*
X1214Y738D01*
X1216Y728D01*
X1222Y720D01*
X1230Y714D01*
X1240Y712D01*
X1250Y714D01*
X1259Y720D01*
X1264Y728D01*
X1266Y738D01*
X1264Y748D01*
X1259Y757D01*
X1250Y762D01*
X1240Y764D01*
D02*
G37*
G36*
X1181D02*
X1171Y762D01*
X1163Y757D01*
X1157Y748D01*
X1155Y738D01*
X1157Y728D01*
X1163Y720D01*
X1171Y714D01*
X1181Y712D01*
X1191Y714D01*
X1200Y720D01*
X1205Y728D01*
X1207Y738D01*
X1205Y748D01*
X1200Y757D01*
X1191Y762D01*
X1181Y764D01*
D02*
G37*
G36*
X1122D02*
X1112Y762D01*
X1104Y757D01*
X1098Y748D01*
X1096Y738D01*
X1098Y728D01*
X1104Y720D01*
X1112Y714D01*
X1122Y712D01*
X1132Y714D01*
X1140Y720D01*
X1146Y728D01*
X1148Y738D01*
X1146Y748D01*
X1140Y757D01*
X1132Y762D01*
X1122Y764D01*
D02*
G37*
G36*
X1299D02*
X1289Y762D01*
X1281Y757D01*
X1275Y748D01*
X1273Y738D01*
X1275Y728D01*
X1281Y720D01*
X1289Y714D01*
X1299Y712D01*
X1309Y714D01*
X1318Y720D01*
X1323Y728D01*
X1325Y738D01*
X1323Y748D01*
X1318Y757D01*
X1309Y762D01*
X1299Y764D01*
D02*
G37*
G36*
X886Y823D02*
X876Y821D01*
X867Y816D01*
X862Y807D01*
X860Y797D01*
X862Y787D01*
X867Y779D01*
X876Y773D01*
X886Y771D01*
X896Y773D01*
X904Y779D01*
X910Y787D01*
X912Y797D01*
X910Y807D01*
X904Y816D01*
X896Y821D01*
X886Y823D01*
D02*
G37*
G36*
X1877Y812D02*
X1867Y810D01*
X1859Y804D01*
X1853Y795D01*
X1851Y785D01*
X1853Y775D01*
X1859Y767D01*
X1867Y761D01*
X1877Y759D01*
X1887Y761D01*
X1895Y767D01*
X1901Y775D01*
X1903Y785D01*
X1901Y795D01*
X1895Y804D01*
X1887Y810D01*
X1877Y812D01*
D02*
G37*
G36*
X1644Y800D02*
X1634Y798D01*
X1625Y792D01*
X1620Y784D01*
X1618Y774D01*
X1620Y764D01*
X1625Y755D01*
X1634Y750D01*
X1644Y748D01*
X1654Y750D01*
X1662Y755D01*
X1668Y764D01*
X1670Y774D01*
X1668Y784D01*
X1662Y792D01*
X1654Y798D01*
X1644Y800D01*
D02*
G37*
G36*
X1369Y651D02*
X1359Y649D01*
X1351Y643D01*
X1345Y635D01*
X1343Y625D01*
X1345Y615D01*
X1351Y607D01*
X1359Y601D01*
X1369Y599D01*
X1379Y601D01*
X1388Y607D01*
X1393Y615D01*
X1395Y625D01*
X1393Y635D01*
X1388Y643D01*
X1379Y649D01*
X1369Y651D01*
D02*
G37*
G36*
X2441Y867D02*
X2416Y865D01*
X2392Y859D01*
X2369Y849D01*
X2348Y836D01*
X2329Y820D01*
X2313Y802D01*
X2300Y780D01*
X2291Y757D01*
X2285Y733D01*
X2283Y709D01*
X2285Y684D01*
X2291Y660D01*
X2300Y637D01*
X2313Y616D01*
X2329Y597D01*
X2348Y581D01*
X2369Y568D01*
X2392Y558D01*
X2416Y553D01*
X2441Y551D01*
X2466Y553D01*
X2490Y558D01*
X2513Y568D01*
X2534Y581D01*
X2553Y597D01*
X2569Y616D01*
X2582Y637D01*
X2591Y660D01*
X2597Y684D01*
X2599Y709D01*
X2597Y733D01*
X2591Y757D01*
X2582Y780D01*
X2569Y802D01*
X2553Y820D01*
X2534Y836D01*
X2513Y849D01*
X2490Y859D01*
X2466Y865D01*
X2441Y867D01*
D02*
G37*
G36*
X2227Y595D02*
X2217Y593D01*
X2209Y587D01*
X2203Y579D01*
X2201Y569D01*
X2203Y559D01*
X2209Y550D01*
X2217Y545D01*
X2227Y543D01*
X2237Y545D01*
X2246Y550D01*
X2251Y559D01*
X2253Y569D01*
X2251Y579D01*
X2246Y587D01*
X2237Y593D01*
X2227Y595D01*
D02*
G37*
G36*
X709Y867D02*
X684Y865D01*
X660Y859D01*
X637Y849D01*
X616Y836D01*
X597Y820D01*
X581Y802D01*
X568Y780D01*
X558Y757D01*
X553Y733D01*
X551Y709D01*
X553Y684D01*
X558Y660D01*
X568Y637D01*
X581Y616D01*
X597Y597D01*
X616Y581D01*
X637Y568D01*
X660Y558D01*
X684Y553D01*
X709Y551D01*
X733Y553D01*
X757Y558D01*
X780Y568D01*
X802Y581D01*
X820Y597D01*
X836Y616D01*
X849Y637D01*
X859Y660D01*
X865Y684D01*
X867Y709D01*
X866Y715D01*
X870Y718D01*
X876Y714D01*
X886Y712D01*
X896Y714D01*
X904Y720D01*
X910Y728D01*
X912Y738D01*
X910Y748D01*
X904Y757D01*
X896Y762D01*
X886Y764D01*
X876Y762D01*
X867Y757D01*
X865Y753D01*
X860Y754D01*
X859Y757D01*
X849Y780D01*
X836Y802D01*
X820Y820D01*
X802Y836D01*
X780Y849D01*
X757Y859D01*
X733Y865D01*
X709Y867D01*
D02*
G37*
G36*
X1063Y764D02*
X1053Y762D01*
X1045Y757D01*
X1039Y748D01*
X1037Y738D01*
X1039Y728D01*
X1045Y720D01*
X1053Y714D01*
X1063Y712D01*
X1073Y714D01*
X1081Y720D01*
X1087Y728D01*
X1089Y738D01*
X1087Y748D01*
X1081Y757D01*
X1073Y762D01*
X1063Y764D01*
D02*
G37*
G36*
X1004D02*
X994Y762D01*
X985Y757D01*
X980Y748D01*
X978Y738D01*
X980Y728D01*
X985Y720D01*
X994Y714D01*
X1004Y712D01*
X1014Y714D01*
X1022Y720D01*
X1028Y728D01*
X1030Y738D01*
X1028Y748D01*
X1022Y757D01*
X1014Y762D01*
X1004Y764D01*
D02*
G37*
G36*
X945D02*
X935Y762D01*
X926Y757D01*
X921Y748D01*
X919Y738D01*
X921Y728D01*
X926Y720D01*
X935Y714D01*
X945Y712D01*
X955Y714D01*
X963Y720D01*
X969Y728D01*
X971Y738D01*
X969Y748D01*
X963Y757D01*
X955Y762D01*
X945Y764D01*
D02*
G37*
G36*
X591Y882D02*
X581Y880D01*
X572Y875D01*
X566Y866D01*
X564Y856D01*
X566Y846D01*
X572Y838D01*
X581Y832D01*
X591Y830D01*
X601Y832D01*
X609Y838D01*
X615Y846D01*
X617Y856D01*
X615Y866D01*
X609Y875D01*
X601Y880D01*
X591Y882D01*
D02*
G37*
G36*
X2031Y878D02*
X2021Y876D01*
X2012Y871D01*
X2006Y862D01*
X2004Y852D01*
X2006Y842D01*
X2012Y834D01*
X2021Y828D01*
X2031Y826D01*
X2040Y828D01*
X2049Y834D01*
X2055Y842D01*
X2057Y852D01*
X2055Y862D01*
X2049Y871D01*
X2040Y876D01*
X2031Y878D01*
D02*
G37*
G36*
X1789Y846D02*
X1779Y844D01*
X1771Y838D01*
X1765Y830D01*
X1763Y820D01*
X1765Y810D01*
X1771Y801D01*
X1779Y796D01*
X1789Y794D01*
X1799Y796D01*
X1808Y801D01*
X1813Y810D01*
X1815Y820D01*
X1813Y830D01*
X1808Y838D01*
X1799Y844D01*
X1789Y846D01*
D02*
G37*
G36*
X827Y882D02*
X817Y880D01*
X808Y875D01*
X803Y866D01*
X801Y856D01*
X803Y846D01*
X808Y838D01*
X817Y832D01*
X827Y830D01*
X837Y832D01*
X845Y838D01*
X851Y846D01*
X853Y856D01*
X851Y866D01*
X845Y875D01*
X837Y880D01*
X827Y882D01*
D02*
G37*
G36*
X1122D02*
X1112Y880D01*
X1104Y875D01*
X1098Y866D01*
X1096Y856D01*
X1098Y846D01*
X1104Y838D01*
X1112Y832D01*
X1122Y830D01*
X1132Y832D01*
X1140Y838D01*
X1146Y846D01*
X1148Y856D01*
X1146Y866D01*
X1140Y875D01*
X1132Y880D01*
X1122Y882D01*
D02*
G37*
G36*
X1063D02*
X1053Y880D01*
X1045Y875D01*
X1039Y866D01*
X1037Y856D01*
X1039Y846D01*
X1045Y838D01*
X1053Y832D01*
X1063Y830D01*
X1073Y832D01*
X1081Y838D01*
X1087Y846D01*
X1089Y856D01*
X1087Y866D01*
X1081Y875D01*
X1073Y880D01*
X1063Y882D01*
D02*
G37*
G36*
X886D02*
X876Y880D01*
X867Y875D01*
X862Y866D01*
X860Y856D01*
X862Y846D01*
X867Y838D01*
X876Y832D01*
X886Y830D01*
X896Y832D01*
X904Y838D01*
X910Y846D01*
X912Y856D01*
X910Y866D01*
X904Y875D01*
X896Y880D01*
X886Y882D01*
D02*
G37*
G36*
X1063Y823D02*
X1053Y821D01*
X1045Y816D01*
X1039Y807D01*
X1037Y797D01*
X1039Y787D01*
X1045Y779D01*
X1053Y773D01*
X1063Y771D01*
X1073Y773D01*
X1081Y779D01*
X1087Y787D01*
X1089Y797D01*
X1087Y807D01*
X1081Y816D01*
X1073Y821D01*
X1063Y823D01*
D02*
G37*
G36*
X1004D02*
X994Y821D01*
X985Y816D01*
X980Y807D01*
X978Y797D01*
X980Y787D01*
X985Y779D01*
X994Y773D01*
X1004Y771D01*
X1014Y773D01*
X1022Y779D01*
X1028Y787D01*
X1030Y797D01*
X1028Y807D01*
X1022Y816D01*
X1014Y821D01*
X1004Y823D01*
D02*
G37*
G36*
X945D02*
X935Y821D01*
X926Y816D01*
X921Y807D01*
X919Y797D01*
X921Y787D01*
X926Y779D01*
X935Y773D01*
X945Y771D01*
X955Y773D01*
X963Y779D01*
X969Y787D01*
X971Y797D01*
X969Y807D01*
X963Y816D01*
X955Y821D01*
X945Y823D01*
D02*
G37*
G36*
X1122D02*
X1112Y821D01*
X1104Y816D01*
X1098Y807D01*
X1096Y797D01*
X1098Y787D01*
X1104Y779D01*
X1112Y773D01*
X1122Y771D01*
X1132Y773D01*
X1140Y779D01*
X1146Y787D01*
X1148Y797D01*
X1146Y807D01*
X1140Y816D01*
X1132Y821D01*
X1122Y823D01*
D02*
G37*
G36*
X1299D02*
X1289Y821D01*
X1281Y816D01*
X1275Y807D01*
X1273Y797D01*
X1275Y787D01*
X1281Y779D01*
X1289Y773D01*
X1299Y771D01*
X1309Y773D01*
X1318Y779D01*
X1323Y787D01*
X1325Y797D01*
X1323Y807D01*
X1318Y816D01*
X1309Y821D01*
X1299Y823D01*
D02*
G37*
G36*
X1240D02*
X1230Y821D01*
X1222Y816D01*
X1216Y807D01*
X1214Y797D01*
X1216Y787D01*
X1222Y779D01*
X1230Y773D01*
X1240Y771D01*
X1250Y773D01*
X1259Y779D01*
X1264Y787D01*
X1266Y797D01*
X1264Y807D01*
X1259Y816D01*
X1250Y821D01*
X1240Y823D01*
D02*
G37*
G36*
X1181D02*
X1171Y821D01*
X1163Y816D01*
X1157Y807D01*
X1155Y797D01*
X1157Y787D01*
X1163Y779D01*
X1171Y773D01*
X1181Y771D01*
X1191Y773D01*
X1200Y779D01*
X1205Y787D01*
X1207Y797D01*
X1205Y807D01*
X1200Y816D01*
X1191Y821D01*
X1181Y823D01*
D02*
G37*
G36*
X1864Y1098D02*
X1854Y1096D01*
X1846Y1090D01*
X1840Y1082D01*
X1838Y1072D01*
X1840Y1062D01*
X1846Y1053D01*
X1854Y1048D01*
X1864Y1046D01*
X1874Y1048D01*
X1883Y1053D01*
X1888Y1062D01*
X1890Y1072D01*
X1888Y1082D01*
X1883Y1090D01*
X1874Y1096D01*
X1864Y1098D01*
D02*
G37*
G36*
X2490Y1915D02*
X2446D01*
Y1871D01*
X2454Y1872D01*
X2466Y1877D01*
X2476Y1885D01*
X2484Y1895D01*
X2489Y1907D01*
X2490Y1915D01*
D02*
G37*
G36*
X2436D02*
X2392D01*
X2393Y1907D01*
X2398Y1895D01*
X2406Y1885D01*
X2416Y1877D01*
X2428Y1872D01*
X2436Y1871D01*
Y1915D01*
D02*
G37*
G36*
X662Y1881D02*
X652Y1879D01*
X643Y1874D01*
X638Y1865D01*
X636Y1855D01*
X638Y1845D01*
X643Y1837D01*
X652Y1831D01*
X662Y1829D01*
X672Y1831D01*
X680Y1837D01*
X686Y1845D01*
X688Y1855D01*
X686Y1865D01*
X680Y1874D01*
X672Y1879D01*
X662Y1881D01*
D02*
G37*
G36*
X1520Y2108D02*
X1510Y2106D01*
X1502Y2100D01*
X1496Y2092D01*
X1494Y2082D01*
X1496Y2072D01*
X1502Y2063D01*
X1510Y2058D01*
X1520Y2056D01*
X1530Y2058D01*
X1538Y2063D01*
X1544Y2072D01*
X1546Y2082D01*
X1544Y2092D01*
X1538Y2100D01*
X1530Y2106D01*
X1520Y2108D01*
D02*
G37*
G36*
X2315Y2226D02*
X2306Y2225D01*
X2294Y2221D01*
X2282Y2215D01*
X2271Y2206D01*
X2262Y2196D01*
X2256Y2184D01*
X2252Y2171D01*
X2251Y2162D01*
X2315D01*
Y2226D01*
D02*
G37*
G36*
X2389Y2152D02*
X2325D01*
Y2089D01*
X2334Y2090D01*
X2346Y2094D01*
X2358Y2100D01*
X2369Y2109D01*
X2378Y2119D01*
X2384Y2131D01*
X2388Y2144D01*
X2389Y2152D01*
D02*
G37*
G36*
X2315D02*
X2251D01*
X2252Y2144D01*
X2256Y2131D01*
X2262Y2119D01*
X2271Y2109D01*
X2282Y2100D01*
X2294Y2094D01*
X2306Y2090D01*
X2315Y2089D01*
Y2152D01*
D02*
G37*
G36*
X1469Y1803D02*
X1460Y1801D01*
X1451Y1795D01*
X1445Y1787D01*
X1443Y1777D01*
X1445Y1767D01*
X1451Y1758D01*
X1460Y1752D01*
X1469Y1750D01*
X1479Y1752D01*
X1488Y1758D01*
X1494Y1767D01*
X1496Y1777D01*
X1494Y1787D01*
X1488Y1795D01*
X1479Y1801D01*
X1469Y1803D01*
D02*
G37*
G36*
X2490Y1789D02*
X2446D01*
Y1745D01*
X2490D01*
Y1789D01*
D02*
G37*
G36*
X2436D02*
X2392D01*
Y1745D01*
X2436D01*
Y1789D01*
D02*
G37*
G36*
X1150Y1795D02*
X1140Y1793D01*
X1132Y1787D01*
X1126Y1779D01*
X1124Y1769D01*
X1125Y1761D01*
X1122Y1758D01*
X1118Y1758D01*
X1108Y1756D01*
X1100Y1751D01*
X1094Y1742D01*
X1092Y1732D01*
X1094Y1722D01*
X1100Y1714D01*
X1108Y1708D01*
X1118Y1706D01*
X1128Y1708D01*
X1137Y1714D01*
X1142Y1722D01*
X1144Y1732D01*
X1143Y1740D01*
X1146Y1743D01*
X1150Y1743D01*
X1160Y1745D01*
X1168Y1750D01*
X1174Y1759D01*
X1176Y1769D01*
X1174Y1779D01*
X1168Y1787D01*
X1160Y1793D01*
X1150Y1795D01*
D02*
G37*
G36*
X1606Y1846D02*
X1596Y1844D01*
X1588Y1838D01*
X1582Y1830D01*
X1580Y1820D01*
X1582Y1810D01*
X1588Y1801D01*
X1596Y1796D01*
X1606Y1794D01*
X1616Y1796D01*
X1625Y1801D01*
X1630Y1810D01*
X1632Y1820D01*
X1630Y1830D01*
X1625Y1838D01*
X1616Y1844D01*
X1606Y1846D01*
D02*
G37*
G36*
X2019Y1828D02*
X2009Y1826D01*
X2000Y1821D01*
X1995Y1812D01*
X1993Y1802D01*
X1995Y1792D01*
X2000Y1784D01*
X2009Y1778D01*
X2019Y1776D01*
X2029Y1778D01*
X2037Y1784D01*
X2043Y1792D01*
X2045Y1802D01*
X2043Y1812D01*
X2037Y1821D01*
X2029Y1826D01*
X2019Y1828D01*
D02*
G37*
G36*
X2194Y1825D02*
X2184Y1823D01*
X2175Y1818D01*
X2170Y1809D01*
X2168Y1799D01*
X2170Y1789D01*
X2175Y1781D01*
X2184Y1775D01*
X2194Y1773D01*
X2204Y1775D01*
X2212Y1781D01*
X2218Y1789D01*
X2220Y1799D01*
X2218Y1809D01*
X2212Y1818D01*
X2204Y1823D01*
X2194Y1825D01*
D02*
G37*
G36*
X2490Y2269D02*
X2392D01*
Y2175D01*
X2391Y2175D01*
D01*
X2387Y2175D01*
Y2175D01*
X2387Y2175D01*
X2384Y2184D01*
X2378Y2196D01*
X2369Y2206D01*
X2358Y2215D01*
X2346Y2221D01*
X2334Y2225D01*
X2325Y2226D01*
Y2162D01*
X2389D01*
X2388Y2170D01*
X2392Y2171D01*
Y2171D01*
X2392D01*
Y2171D01*
X2422D01*
X2423Y2166D01*
X2416Y2163D01*
X2406Y2155D01*
X2398Y2145D01*
X2393Y2133D01*
X2391Y2120D01*
X2393Y2107D01*
X2398Y2095D01*
X2406Y2085D01*
X2416Y2077D01*
X2427Y2072D01*
Y2068D01*
X2416Y2063D01*
X2406Y2055D01*
X2398Y2045D01*
X2393Y2033D01*
X2391Y2020D01*
X2393Y2007D01*
X2398Y1995D01*
X2406Y1985D01*
X2416Y1977D01*
X2427Y1972D01*
Y1967D01*
X2416Y1963D01*
X2406Y1955D01*
X2398Y1945D01*
X2393Y1933D01*
X2392Y1925D01*
X2490D01*
X2489Y1933D01*
X2484Y1945D01*
X2476Y1955D01*
X2466Y1963D01*
X2455Y1967D01*
Y1972D01*
X2466Y1977D01*
X2476Y1985D01*
X2484Y1995D01*
X2489Y2007D01*
X2491Y2020D01*
X2489Y2033D01*
X2484Y2045D01*
X2476Y2055D01*
X2466Y2063D01*
X2455Y2068D01*
Y2072D01*
X2466Y2077D01*
X2476Y2085D01*
X2484Y2095D01*
X2489Y2107D01*
X2491Y2120D01*
X2489Y2133D01*
X2484Y2145D01*
X2476Y2155D01*
X2466Y2163D01*
X2459Y2166D01*
X2460Y2171D01*
X2490D01*
Y2269D01*
D02*
G37*
G36*
X709Y2599D02*
X684Y2597D01*
X660Y2591D01*
X637Y2582D01*
X616Y2569D01*
X597Y2553D01*
X581Y2534D01*
X568Y2513D01*
X558Y2490D01*
X553Y2466D01*
X551Y2441D01*
X553Y2416D01*
X558Y2392D01*
X568Y2369D01*
X581Y2348D01*
X597Y2329D01*
X616Y2313D01*
X637Y2300D01*
X660Y2291D01*
X684Y2285D01*
X709Y2283D01*
X733Y2285D01*
X757Y2291D01*
X780Y2300D01*
X802Y2313D01*
X820Y2329D01*
X836Y2348D01*
X849Y2369D01*
X859Y2392D01*
X865Y2416D01*
X866Y2430D01*
X871Y2430D01*
Y2391D01*
X969D01*
Y2422D01*
X974Y2423D01*
X977Y2416D01*
X985Y2406D01*
X995Y2398D01*
X1007Y2393D01*
X1020Y2391D01*
X1033Y2393D01*
X1045Y2398D01*
X1055Y2406D01*
X1063Y2416D01*
X1067Y2427D01*
X1072D01*
X1077Y2416D01*
X1085Y2406D01*
X1095Y2398D01*
X1107Y2393D01*
X1120Y2391D01*
X1133Y2393D01*
X1145Y2398D01*
X1155Y2406D01*
X1163Y2416D01*
X1168Y2427D01*
X1173D01*
X1177Y2416D01*
X1185Y2406D01*
X1195Y2398D01*
X1207Y2393D01*
X1215Y2392D01*
Y2441D01*
Y2490D01*
X1207Y2489D01*
X1195Y2484D01*
X1185Y2476D01*
X1177Y2466D01*
X1173Y2455D01*
X1168D01*
X1163Y2466D01*
X1155Y2476D01*
X1145Y2484D01*
X1133Y2489D01*
X1120Y2491D01*
X1107Y2489D01*
X1095Y2484D01*
X1085Y2476D01*
X1077Y2466D01*
X1072Y2455D01*
X1067D01*
X1063Y2466D01*
X1055Y2476D01*
X1045Y2484D01*
X1033Y2489D01*
X1020Y2491D01*
X1007Y2489D01*
X995Y2484D01*
X985Y2476D01*
X977Y2466D01*
X974Y2459D01*
X969Y2460D01*
Y2489D01*
X871D01*
Y2452D01*
X866Y2452D01*
X865Y2466D01*
X859Y2490D01*
X849Y2513D01*
X836Y2534D01*
X820Y2553D01*
X802Y2569D01*
X780Y2582D01*
X757Y2591D01*
X733Y2597D01*
X709Y2599D01*
D02*
G37*
G36*
X1618Y2434D02*
X1608Y2432D01*
X1600Y2426D01*
X1594Y2417D01*
X1592Y2407D01*
X1594Y2397D01*
X1600Y2389D01*
X1608Y2383D01*
X1618Y2381D01*
X1628Y2383D01*
X1637Y2389D01*
X1642Y2397D01*
X1644Y2407D01*
X1642Y2417D01*
X1637Y2426D01*
X1628Y2432D01*
X1618Y2434D01*
D02*
G37*
G36*
X2098Y2413D02*
X2088Y2411D01*
X2080Y2405D01*
X2074Y2397D01*
X2072Y2387D01*
X2074Y2377D01*
X2080Y2368D01*
X2088Y2363D01*
X2098Y2361D01*
X2108Y2363D01*
X2117Y2368D01*
X2123Y2377D01*
X2125Y2387D01*
X2123Y2397D01*
X2117Y2405D01*
X2108Y2411D01*
X2098Y2413D01*
D02*
G37*
G36*
X1269Y2436D02*
X1225D01*
Y2392D01*
X1233Y2393D01*
X1245Y2398D01*
X1255Y2406D01*
X1263Y2416D01*
X1268Y2428D01*
X1269Y2436D01*
D02*
G37*
G36*
X1225Y2490D02*
Y2446D01*
X1269D01*
X1268Y2454D01*
X1263Y2466D01*
X1255Y2476D01*
X1245Y2484D01*
X1233Y2489D01*
X1225Y2490D01*
D02*
G37*
G36*
X2097Y2474D02*
X2087Y2472D01*
X2079Y2466D01*
X2073Y2458D01*
X2071Y2448D01*
X2073Y2438D01*
X2079Y2429D01*
X2087Y2424D01*
X2097Y2422D01*
X2107Y2424D01*
X2116Y2429D01*
X2122Y2438D01*
X2124Y2448D01*
X2122Y2458D01*
X2116Y2466D01*
X2107Y2472D01*
X2097Y2474D01*
D02*
G37*
G36*
X1575D02*
X1565Y2472D01*
X1556Y2466D01*
X1551Y2458D01*
X1549Y2448D01*
X1551Y2438D01*
X1556Y2429D01*
X1565Y2424D01*
X1575Y2422D01*
X1585Y2424D01*
X1593Y2429D01*
X1599Y2438D01*
X1601Y2448D01*
X1599Y2458D01*
X1593Y2466D01*
X1585Y2472D01*
X1575Y2474D01*
D02*
G37*
G36*
X2120Y2355D02*
X2110Y2353D01*
X2102Y2347D01*
X2096Y2339D01*
X2094Y2329D01*
X2096Y2319D01*
X2102Y2310D01*
X2110Y2305D01*
X2120Y2303D01*
X2130Y2305D01*
X2139Y2310D01*
X2144Y2319D01*
X2146Y2329D01*
X2144Y2339D01*
X2139Y2347D01*
X2130Y2353D01*
X2120Y2355D01*
D02*
G37*
G36*
X2441Y2599D02*
X2416Y2597D01*
X2392Y2591D01*
X2369Y2582D01*
X2348Y2569D01*
X2329Y2553D01*
X2313Y2534D01*
X2300Y2513D01*
X2291Y2490D01*
X2285Y2466D01*
X2283Y2441D01*
X2285Y2416D01*
X2291Y2392D01*
X2300Y2369D01*
X2313Y2348D01*
X2329Y2329D01*
X2348Y2313D01*
X2369Y2300D01*
X2392Y2291D01*
X2416Y2285D01*
X2441Y2283D01*
X2466Y2285D01*
X2490Y2291D01*
X2513Y2300D01*
X2534Y2313D01*
X2553Y2329D01*
X2569Y2348D01*
X2582Y2369D01*
X2591Y2392D01*
X2597Y2416D01*
X2599Y2441D01*
X2597Y2466D01*
X2591Y2490D01*
X2582Y2513D01*
X2569Y2534D01*
X2553Y2553D01*
X2534Y2569D01*
X2513Y2582D01*
X2490Y2591D01*
X2466Y2597D01*
X2441Y2599D01*
D02*
G37*
G36*
X1771Y2327D02*
X1761Y2325D01*
X1752Y2320D01*
X1747Y2311D01*
X1745Y2301D01*
X1747Y2291D01*
X1752Y2283D01*
X1761Y2277D01*
X1771Y2275D01*
X1781Y2277D01*
X1789Y2283D01*
X1795Y2291D01*
X1797Y2301D01*
X1795Y2311D01*
X1789Y2320D01*
X1781Y2325D01*
X1771Y2327D01*
D02*
G37*
G36*
X1368Y2361D02*
X1358Y2359D01*
X1350Y2353D01*
X1344Y2345D01*
X1342Y2335D01*
X1344Y2325D01*
X1350Y2316D01*
X1358Y2311D01*
X1368Y2309D01*
X1378Y2311D01*
X1387Y2316D01*
X1392Y2325D01*
X1394Y2335D01*
X1392Y2345D01*
X1387Y2353D01*
X1378Y2359D01*
X1368Y2361D01*
D02*
G37*
G36*
X1920Y2393D02*
X1910Y2391D01*
X1902Y2386D01*
X1896Y2377D01*
X1894Y2367D01*
X1896Y2357D01*
X1902Y2349D01*
X1910Y2343D01*
X1920Y2341D01*
X1930Y2343D01*
X1938Y2349D01*
X1944Y2357D01*
X1946Y2367D01*
X1944Y2377D01*
X1938Y2386D01*
X1930Y2391D01*
X1920Y2393D01*
D02*
G37*
G36*
X1820D02*
X1810Y2391D01*
X1802Y2386D01*
X1796Y2377D01*
X1794Y2367D01*
X1796Y2357D01*
X1802Y2349D01*
X1810Y2343D01*
X1820Y2341D01*
X1830Y2343D01*
X1838Y2349D01*
X1844Y2357D01*
X1846Y2367D01*
X1844Y2377D01*
X1838Y2386D01*
X1830Y2391D01*
X1820Y2393D01*
D02*
G37*
G36*
X2240Y2378D02*
X2230Y2376D01*
X2222Y2371D01*
X2216Y2362D01*
X2214Y2352D01*
X2216Y2342D01*
X2222Y2334D01*
X2230Y2328D01*
X2240Y2326D01*
X2250Y2328D01*
X2258Y2334D01*
X2264Y2342D01*
X2266Y2352D01*
X2264Y2362D01*
X2258Y2371D01*
X2250Y2376D01*
X2240Y2378D01*
D02*
G37*
G36*
X1911Y1376D02*
X1901Y1374D01*
X1893Y1369D01*
X1887Y1360D01*
X1885Y1350D01*
X1887Y1340D01*
X1893Y1332D01*
X1901Y1326D01*
X1911Y1324D01*
X1921Y1326D01*
X1930Y1332D01*
X1936Y1340D01*
X1938Y1350D01*
X1936Y1360D01*
X1930Y1369D01*
X1921Y1374D01*
X1911Y1376D01*
D02*
G37*
G36*
X1364Y1373D02*
X1354Y1371D01*
X1346Y1365D01*
X1340Y1356D01*
X1338Y1346D01*
X1340Y1336D01*
X1346Y1328D01*
X1354Y1322D01*
X1364Y1320D01*
X1374Y1322D01*
X1383Y1328D01*
X1388Y1336D01*
X1390Y1346D01*
X1388Y1356D01*
X1383Y1365D01*
X1374Y1371D01*
X1364Y1373D01*
D02*
G37*
G36*
X958Y1364D02*
X948Y1362D01*
X940Y1356D01*
X934Y1348D01*
X932Y1338D01*
X934Y1328D01*
X940Y1319D01*
X948Y1313D01*
X958Y1312D01*
X968Y1313D01*
X977Y1319D01*
X982Y1328D01*
X984Y1338D01*
X982Y1348D01*
X977Y1356D01*
X968Y1362D01*
X958Y1364D01*
D02*
G37*
G36*
X1421Y1390D02*
X1411Y1388D01*
X1403Y1383D01*
X1397Y1374D01*
X1395Y1364D01*
X1397Y1354D01*
X1403Y1346D01*
X1411Y1340D01*
X1421Y1338D01*
X1431Y1340D01*
X1440Y1346D01*
X1445Y1354D01*
X1447Y1364D01*
X1445Y1374D01*
X1440Y1383D01*
X1431Y1388D01*
X1421Y1390D01*
D02*
G37*
G36*
X1637Y1518D02*
X1627Y1516D01*
X1618Y1511D01*
X1613Y1502D01*
X1611Y1492D01*
X1613Y1482D01*
X1618Y1474D01*
X1627Y1468D01*
X1637Y1466D01*
X1647Y1468D01*
X1648Y1469D01*
X1652Y1466D01*
X1651Y1461D01*
X1653Y1451D01*
X1659Y1442D01*
X1667Y1437D01*
X1677Y1435D01*
X1681Y1435D01*
X1685Y1432D01*
X1687Y1423D01*
X1692Y1415D01*
X1701Y1409D01*
X1711Y1407D01*
X1721Y1409D01*
X1729Y1415D01*
X1735Y1423D01*
X1737Y1433D01*
X1735Y1443D01*
X1729Y1452D01*
X1721Y1457D01*
X1711Y1459D01*
X1707Y1458D01*
X1703Y1461D01*
X1701Y1471D01*
X1696Y1479D01*
X1687Y1485D01*
X1677Y1487D01*
X1667Y1485D01*
X1666Y1484D01*
X1662Y1487D01*
X1663Y1492D01*
X1661Y1502D01*
X1655Y1511D01*
X1647Y1516D01*
X1637Y1518D01*
D02*
G37*
G36*
X2313Y1399D02*
X2303Y1397D01*
X2295Y1391D01*
X2289Y1383D01*
X2287Y1373D01*
X2289Y1363D01*
X2295Y1355D01*
X2303Y1349D01*
X2313Y1347D01*
X2323Y1349D01*
X2331Y1355D01*
X2337Y1363D01*
X2339Y1373D01*
X2337Y1383D01*
X2331Y1391D01*
X2323Y1397D01*
X2313Y1399D01*
D02*
G37*
G36*
X1857Y1396D02*
X1847Y1394D01*
X1839Y1389D01*
X1833Y1380D01*
X1831Y1370D01*
X1833Y1360D01*
X1839Y1352D01*
X1847Y1346D01*
X1857Y1344D01*
X1867Y1346D01*
X1876Y1352D01*
X1881Y1360D01*
X1883Y1370D01*
X1881Y1380D01*
X1876Y1389D01*
X1867Y1394D01*
X1857Y1396D01*
D02*
G37*
G36*
X967Y1245D02*
X957Y1243D01*
X948Y1237D01*
X942Y1228D01*
X940Y1219D01*
X942Y1209D01*
X948Y1200D01*
X957Y1194D01*
X967Y1192D01*
X977Y1194D01*
X985Y1200D01*
X991Y1209D01*
X993Y1219D01*
X991Y1228D01*
X985Y1237D01*
X977Y1243D01*
X967Y1245D01*
D02*
G37*
G36*
X2490Y1735D02*
X2392D01*
Y1691D01*
X2422D01*
X2423Y1686D01*
X2416Y1683D01*
X2406Y1675D01*
X2398Y1665D01*
X2393Y1653D01*
X2391Y1640D01*
X2393Y1627D01*
X2398Y1615D01*
X2406Y1605D01*
X2416Y1597D01*
X2427Y1592D01*
Y1587D01*
X2416Y1583D01*
X2406Y1575D01*
X2398Y1565D01*
X2393Y1553D01*
X2391Y1540D01*
X2393Y1527D01*
X2398Y1515D01*
X2406Y1505D01*
X2416Y1497D01*
X2427Y1492D01*
Y1487D01*
X2416Y1483D01*
X2406Y1475D01*
X2398Y1465D01*
X2393Y1453D01*
X2391Y1440D01*
X2393Y1427D01*
X2398Y1415D01*
X2406Y1405D01*
X2416Y1397D01*
X2427Y1393D01*
Y1388D01*
X2416Y1383D01*
X2406Y1375D01*
X2398Y1365D01*
X2393Y1353D01*
X2391Y1340D01*
X2393Y1327D01*
X2398Y1315D01*
X2406Y1305D01*
X2416Y1297D01*
X2427Y1293D01*
Y1288D01*
X2416Y1283D01*
X2406Y1275D01*
X2398Y1265D01*
X2393Y1253D01*
X2391Y1240D01*
X2393Y1227D01*
X2398Y1215D01*
X2406Y1205D01*
X2416Y1197D01*
X2428Y1192D01*
X2441Y1190D01*
X2454Y1192D01*
X2466Y1197D01*
X2476Y1205D01*
X2484Y1215D01*
X2489Y1227D01*
X2491Y1240D01*
X2489Y1253D01*
X2484Y1265D01*
X2476Y1275D01*
X2466Y1283D01*
X2455Y1288D01*
Y1293D01*
X2466Y1297D01*
X2476Y1305D01*
X2484Y1315D01*
X2489Y1327D01*
X2491Y1340D01*
X2489Y1353D01*
X2484Y1365D01*
X2476Y1375D01*
X2466Y1383D01*
X2455Y1388D01*
Y1393D01*
X2466Y1397D01*
X2476Y1405D01*
X2484Y1415D01*
X2489Y1427D01*
X2491Y1440D01*
X2489Y1453D01*
X2484Y1465D01*
X2476Y1475D01*
X2466Y1483D01*
X2455Y1487D01*
Y1492D01*
X2466Y1497D01*
X2476Y1505D01*
X2484Y1515D01*
X2489Y1527D01*
X2491Y1540D01*
X2489Y1553D01*
X2484Y1565D01*
X2476Y1575D01*
X2466Y1583D01*
X2455Y1587D01*
Y1592D01*
X2466Y1597D01*
X2476Y1605D01*
X2484Y1615D01*
X2489Y1627D01*
X2491Y1640D01*
X2489Y1653D01*
X2484Y1665D01*
X2476Y1675D01*
X2466Y1683D01*
X2459Y1686D01*
X2460Y1691D01*
X2490D01*
Y1735D01*
D02*
G37*
G36*
X1992Y1162D02*
X1982Y1160D01*
X1974Y1154D01*
X1968Y1146D01*
X1966Y1136D01*
X1968Y1126D01*
X1974Y1117D01*
X1982Y1112D01*
X1992Y1110D01*
X2002Y1112D01*
X2011Y1117D01*
X2016Y1126D01*
X2018Y1136D01*
X2016Y1146D01*
X2011Y1154D01*
X2002Y1160D01*
X1992Y1162D01*
D02*
G37*
G36*
X1744Y1252D02*
X1734Y1250D01*
X1726Y1245D01*
X1720Y1236D01*
X1718Y1226D01*
X1720Y1216D01*
X1726Y1208D01*
X1734Y1202D01*
X1744Y1200D01*
X1754Y1202D01*
X1763Y1208D01*
X1768Y1216D01*
X1770Y1226D01*
X1768Y1236D01*
X1763Y1245D01*
X1754Y1250D01*
X1744Y1252D01*
D02*
G37*
G36*
X1514Y1350D02*
X1504Y1348D01*
X1495Y1342D01*
X1490Y1334D01*
X1488Y1324D01*
X1490Y1314D01*
X1495Y1305D01*
X1504Y1300D01*
X1514Y1298D01*
X1524Y1300D01*
X1532Y1305D01*
X1538Y1314D01*
X1540Y1324D01*
X1538Y1334D01*
X1532Y1342D01*
X1524Y1348D01*
X1514Y1350D01*
D02*
G37*
G36*
X2310Y1342D02*
X2300Y1340D01*
X2292Y1334D01*
X2286Y1326D01*
X2284Y1316D01*
X2286Y1306D01*
X2292Y1297D01*
X2300Y1292D01*
X2310Y1290D01*
X2320Y1292D01*
X2328Y1297D01*
X2334Y1306D01*
X2336Y1316D01*
X2334Y1326D01*
X2328Y1334D01*
X2320Y1340D01*
X2310Y1342D01*
D02*
G37*
G36*
X1202Y1294D02*
X1192Y1292D01*
X1184Y1286D01*
X1178Y1278D01*
X1176Y1268D01*
X1178Y1258D01*
X1184Y1250D01*
X1192Y1244D01*
X1202Y1242D01*
X1212Y1244D01*
X1221Y1250D01*
X1227Y1258D01*
X1229Y1268D01*
X1227Y1278D01*
X1221Y1286D01*
X1212Y1292D01*
X1202Y1294D01*
D02*
G37*
G36*
X2310Y1492D02*
X2300Y1490D01*
X2292Y1484D01*
X2286Y1476D01*
X2284Y1466D01*
X2286Y1456D01*
X2292Y1447D01*
X2300Y1441D01*
X2310Y1439D01*
X2320Y1441D01*
X2328Y1447D01*
X2334Y1456D01*
X2336Y1466D01*
X2334Y1476D01*
X2328Y1484D01*
X2320Y1490D01*
X2310Y1492D01*
D02*
G37*
G36*
X958Y1744D02*
X948Y1742D01*
X939Y1736D01*
X933Y1728D01*
X932Y1718D01*
X933Y1708D01*
X939Y1700D01*
X947Y1694D01*
Y1690D01*
X947Y1689D01*
X942Y1686D01*
X936Y1677D01*
X934Y1667D01*
X936Y1657D01*
X942Y1649D01*
X950Y1643D01*
X960Y1641D01*
X970Y1643D01*
X978Y1649D01*
X984Y1657D01*
X986Y1667D01*
X984Y1677D01*
X978Y1686D01*
X970Y1691D01*
X968Y1692D01*
Y1694D01*
X976Y1700D01*
X982Y1708D01*
X984Y1718D01*
X982Y1728D01*
X976Y1736D01*
X968Y1742D01*
X958Y1744D01*
D02*
G37*
G36*
X1898Y1612D02*
X1888Y1610D01*
X1879Y1604D01*
X1874Y1596D01*
X1872Y1586D01*
X1872Y1585D01*
X1868Y1581D01*
X1863Y1582D01*
X1853Y1580D01*
X1845Y1575D01*
X1839Y1566D01*
X1837Y1556D01*
X1839Y1546D01*
X1845Y1538D01*
X1853Y1532D01*
X1852Y1527D01*
X1848Y1526D01*
X1840Y1520D01*
X1834Y1512D01*
X1832Y1502D01*
X1834Y1492D01*
X1840Y1484D01*
X1847Y1479D01*
X1846Y1474D01*
X1845Y1474D01*
X1837Y1468D01*
X1831Y1460D01*
X1829Y1450D01*
X1831Y1440D01*
X1837Y1431D01*
X1845Y1426D01*
X1855Y1424D01*
X1865Y1426D01*
X1874Y1431D01*
X1879Y1440D01*
X1881Y1450D01*
X1879Y1460D01*
X1874Y1468D01*
X1867Y1473D01*
X1868Y1478D01*
X1868Y1478D01*
X1877Y1484D01*
X1882Y1492D01*
X1884Y1502D01*
X1882Y1512D01*
X1877Y1520D01*
X1868Y1526D01*
X1869Y1531D01*
X1873Y1532D01*
X1882Y1538D01*
X1887Y1546D01*
X1889Y1556D01*
X1889Y1557D01*
X1893Y1561D01*
X1898Y1560D01*
X1908Y1562D01*
X1916Y1567D01*
X1922Y1576D01*
X1924Y1586D01*
X1922Y1596D01*
X1916Y1604D01*
X1908Y1610D01*
X1898Y1612D01*
D02*
G37*
G36*
X538Y1605D02*
X528Y1603D01*
X520Y1597D01*
X514Y1589D01*
X512Y1579D01*
X514Y1569D01*
X520Y1560D01*
X528Y1554D01*
X538Y1552D01*
X548Y1554D01*
X556Y1560D01*
X562Y1569D01*
X564Y1579D01*
X562Y1589D01*
X556Y1597D01*
X548Y1603D01*
X538Y1605D01*
D02*
G37*
G36*
X1476Y1706D02*
X1466Y1704D01*
X1458Y1699D01*
X1452Y1690D01*
X1450Y1680D01*
X1452Y1670D01*
X1458Y1662D01*
X1466Y1656D01*
X1476Y1654D01*
X1486Y1656D01*
X1495Y1662D01*
X1500Y1670D01*
X1502Y1680D01*
X1500Y1690D01*
X1495Y1699D01*
X1486Y1704D01*
X1476Y1706D01*
D02*
G37*
G36*
X2199Y1739D02*
X2189Y1737D01*
X2181Y1731D01*
X2175Y1723D01*
X2173Y1713D01*
X2175Y1703D01*
X2181Y1694D01*
X2189Y1689D01*
X2199Y1687D01*
X2209Y1689D01*
X2217Y1694D01*
X2223Y1703D01*
X2225Y1713D01*
X2223Y1723D01*
X2217Y1731D01*
X2209Y1737D01*
X2199Y1739D01*
D02*
G37*
G36*
X1827Y1737D02*
X1817Y1735D01*
X1808Y1729D01*
X1803Y1721D01*
X1801Y1711D01*
X1803Y1701D01*
X1808Y1692D01*
X1817Y1687D01*
X1827Y1685D01*
X1837Y1687D01*
X1845Y1692D01*
X1851Y1701D01*
X1853Y1711D01*
X1851Y1721D01*
X1845Y1729D01*
X1837Y1735D01*
X1827Y1737D01*
D02*
G37*
G36*
X2193Y1682D02*
X2183Y1680D01*
X2174Y1674D01*
X2169Y1666D01*
X2166D01*
X2164Y1666D01*
X2162Y1669D01*
X2154Y1675D01*
X2144Y1677D01*
X2134Y1675D01*
X2125Y1669D01*
X2120Y1661D01*
X2118Y1652D01*
X2117Y1651D01*
X2107Y1653D01*
X2097Y1651D01*
X2096Y1650D01*
X2092Y1652D01*
X2090Y1661D01*
X2084Y1669D01*
X2076Y1675D01*
X2066Y1677D01*
X2056Y1675D01*
X2047Y1669D01*
X2042Y1661D01*
X2040Y1651D01*
X2042Y1641D01*
X2047Y1632D01*
X2056Y1626D01*
X2066Y1624D01*
X2076Y1626D01*
X2076Y1627D01*
X2081Y1625D01*
X2083Y1616D01*
X2088Y1608D01*
X2097Y1602D01*
X2107Y1600D01*
X2117Y1602D01*
X2125Y1608D01*
X2131Y1616D01*
X2133Y1625D01*
X2134Y1626D01*
X2144Y1624D01*
X2154Y1626D01*
X2162Y1632D01*
X2167Y1640D01*
X2170D01*
X2173Y1640D01*
X2174Y1637D01*
X2183Y1631D01*
X2193Y1629D01*
X2203Y1631D01*
X2211Y1637D01*
X2217Y1646D01*
X2219Y1656D01*
X2217Y1665D01*
X2211Y1674D01*
X2203Y1680D01*
X2193Y1682D01*
D02*
G37*
G36*
X1732Y1585D02*
X1722Y1583D01*
X1714Y1578D01*
X1708Y1569D01*
X1706Y1559D01*
X1708Y1549D01*
X1714Y1541D01*
X1722Y1535D01*
X1732Y1533D01*
X1742Y1535D01*
X1751Y1541D01*
X1756Y1549D01*
X1758Y1559D01*
X1756Y1569D01*
X1751Y1578D01*
X1742Y1583D01*
X1732Y1585D01*
D02*
G37*
G36*
X1637D02*
X1627Y1583D01*
X1618Y1578D01*
X1613Y1569D01*
X1611Y1559D01*
X1613Y1549D01*
X1618Y1541D01*
X1627Y1535D01*
X1637Y1533D01*
X1647Y1535D01*
X1655Y1541D01*
X1661Y1549D01*
X1663Y1559D01*
X1661Y1569D01*
X1655Y1578D01*
X1647Y1583D01*
X1637Y1585D01*
D02*
G37*
G36*
X2010Y1478D02*
X2000Y1476D01*
X1991Y1470D01*
X1988Y1465D01*
X1983D01*
X1981Y1468D01*
X1973Y1474D01*
X1963Y1476D01*
X1953Y1474D01*
X1944Y1468D01*
X1938Y1460D01*
X1937Y1450D01*
X1938Y1440D01*
X1944Y1431D01*
X1953Y1426D01*
X1963Y1424D01*
X1973Y1426D01*
X1981Y1431D01*
X1984Y1436D01*
X1989D01*
X1991Y1433D01*
X2000Y1428D01*
X2010Y1426D01*
X2020Y1428D01*
X2028Y1433D01*
X2034Y1442D01*
X2036Y1452D01*
X2034Y1462D01*
X2028Y1470D01*
X2020Y1476D01*
X2010Y1478D01*
D02*
G37*
G36*
X1546Y1587D02*
X1536Y1585D01*
X1528Y1579D01*
X1522Y1571D01*
X1520Y1561D01*
X1522Y1551D01*
X1528Y1543D01*
X1536Y1537D01*
X1546Y1535D01*
X1556Y1537D01*
X1565Y1543D01*
X1570Y1551D01*
X1572Y1561D01*
X1570Y1571D01*
X1565Y1579D01*
X1556Y1585D01*
X1546Y1587D01*
D02*
G37*
G36*
X2328Y1597D02*
X2318Y1595D01*
X2309Y1589D01*
X2304Y1581D01*
X2302Y1571D01*
X2304Y1561D01*
X2309Y1552D01*
X2318Y1547D01*
X2328Y1545D01*
X2338Y1547D01*
X2346Y1552D01*
X2352Y1561D01*
X2354Y1571D01*
X2352Y1581D01*
X2346Y1589D01*
X2338Y1595D01*
X2328Y1597D01*
D02*
G37*
G36*
X1153Y1645D02*
X1143Y1643D01*
X1135Y1638D01*
X1129Y1629D01*
X1127Y1619D01*
X1129Y1609D01*
X1135Y1601D01*
X1143Y1595D01*
X1145Y1595D01*
Y1590D01*
X1142Y1589D01*
X1133Y1583D01*
X1127Y1575D01*
X1125Y1565D01*
X1127Y1555D01*
X1133Y1547D01*
X1142Y1541D01*
X1152Y1539D01*
X1162Y1541D01*
X1170Y1547D01*
X1176Y1555D01*
X1178Y1565D01*
X1176Y1575D01*
X1170Y1583D01*
X1162Y1589D01*
X1160Y1589D01*
Y1594D01*
X1163Y1595D01*
X1171Y1601D01*
X1177Y1609D01*
X1179Y1619D01*
X1177Y1629D01*
X1171Y1638D01*
X1163Y1643D01*
X1153Y1645D01*
D02*
G37*
G36*
X2188Y1570D02*
X2178Y1568D01*
X2170Y1562D01*
X2164Y1553D01*
X2162Y1543D01*
X2163Y1542D01*
X2159Y1538D01*
X2156Y1539D01*
X2146Y1537D01*
X2137Y1531D01*
X2131Y1523D01*
X2129Y1513D01*
X2131Y1503D01*
X2137Y1494D01*
X2140Y1492D01*
Y1487D01*
X2138Y1486D01*
X2136Y1484D01*
X2132Y1485D01*
X2130Y1490D01*
X2125Y1499D01*
X2116Y1504D01*
X2106Y1506D01*
X2096Y1504D01*
X2088Y1499D01*
X2082Y1490D01*
X2080Y1480D01*
X2082Y1470D01*
X2088Y1462D01*
X2096Y1456D01*
X2106Y1454D01*
X2116Y1456D01*
X2125Y1462D01*
X2126Y1464D01*
X2131Y1463D01*
X2132Y1458D01*
X2138Y1449D01*
X2142Y1447D01*
Y1442D01*
X2139Y1440D01*
X2133Y1431D01*
X2131Y1421D01*
X2133Y1411D01*
X2139Y1403D01*
X2147Y1397D01*
X2157Y1395D01*
X2167Y1397D01*
X2176Y1403D01*
X2182Y1411D01*
X2184Y1421D01*
X2182Y1431D01*
X2176Y1440D01*
X2172Y1442D01*
Y1447D01*
X2175Y1449D01*
X2181Y1458D01*
X2183Y1468D01*
X2181Y1478D01*
X2175Y1486D01*
X2172Y1488D01*
Y1493D01*
X2174Y1494D01*
X2180Y1503D01*
X2182Y1513D01*
X2181Y1515D01*
X2185Y1518D01*
X2188Y1517D01*
X2198Y1519D01*
X2207Y1525D01*
X2213Y1533D01*
X2215Y1543D01*
X2213Y1553D01*
X2207Y1562D01*
X2198Y1568D01*
X2188Y1570D01*
D02*
G37*
%LPD*%
D37*
X69Y374D02*
G03*
X374Y69I305J0D01*
G01*
X98Y374D02*
G03*
X374Y98I276J0D01*
G01*
Y3081D02*
G03*
X69Y2776I0J-305D01*
G01*
X374Y3051D02*
G03*
X98Y2776I0J-276D01*
G01*
X2776Y98D02*
G03*
X3051Y374I0J276D01*
G01*
X2776Y69D02*
G03*
X3081Y374I0J305D01*
G01*
X3051Y2776D02*
G03*
X2776Y3051I-276J0D01*
G01*
X3081Y2776D02*
G03*
X2776Y3081I-305J0D01*
G01*
X61Y1575D02*
X69Y1567D01*
X132Y1614D02*
X172D01*
X98Y1648D02*
X132Y1614D01*
X69Y1632D02*
X98Y1602D01*
X69Y374D02*
Y1567D01*
X98Y374D02*
Y1602D01*
X69Y1632D02*
Y2776D01*
X98Y1648D02*
Y2776D01*
X374Y69D02*
X2776D01*
X374Y98D02*
X2776D01*
X3051Y374D02*
Y2776D01*
X3081Y374D02*
Y2776D01*
X374Y3051D02*
X2776D01*
X374Y3081D02*
X2776D01*
D44*
X2320Y2157D02*
D03*
D45*
X2441Y1740D02*
D03*
Y1000D02*
D03*
D46*
X1220Y2441D02*
D03*
X2441Y1920D02*
D03*
D50*
X1684Y1918D02*
D03*
X1888Y557D02*
D03*
X2157Y1579D02*
D03*
X61Y1575D02*
D03*
X172Y1614D02*
D03*
X960Y1268D02*
D03*
X1203Y1368D02*
D03*
X1205Y1619D02*
D03*
X550Y1665D02*
D03*
X540Y1492D02*
D03*
X1070Y2121D02*
D03*
X957Y1444D02*
D03*
X1270Y2550D02*
D03*
X1733Y1180D02*
D03*
X1466Y1731D02*
D03*
X1882Y2130D02*
D03*
X1921Y2410D02*
D03*
X2194Y1866D02*
D03*
X1967Y1919D02*
D03*
X1530Y1952D02*
D03*
X1391Y2063D02*
D03*
X2323Y1732D02*
D03*
X1637Y1607D02*
D03*
X1858Y1626D02*
D03*
X1894Y1038D02*
D03*
X1533Y813D02*
D03*
X1577Y1380D02*
D03*
X1488Y1365D02*
D03*
X1050Y627D02*
D03*
X1472Y2532D02*
D03*
X629Y2172D02*
D03*
X628Y1157D02*
D03*
X1423Y1122D02*
D03*
X1575Y2369D02*
D03*
X1715Y1002D02*
D03*
M02*
