%FSLAX23Y23*%
%MOIN*%
G70*
G01*
G75*
G04 Layer_Color=8421504*
G04 Layer_Color=8421504*
%ADD10C,0.089*%
%ADD11R,0.031X0.039*%
%ADD12R,0.012X0.059*%
%ADD13R,0.059X0.012*%
%ADD14R,0.043X0.039*%
%ADD15R,0.039X0.043*%
%ADD16R,0.087X0.043*%
%ADD17R,0.039X0.039*%
%ADD18R,0.043X0.087*%
%ADD19C,0.047*%
%ADD20R,0.079X0.098*%
%ADD21R,0.098X0.055*%
%ADD22R,0.118X0.055*%
%ADD23R,0.020X0.098*%
%ADD24R,0.039X0.024*%
%ADD25R,0.039X0.020*%
%ADD26R,0.051X0.059*%
%ADD27R,0.094X0.102*%
%ADD28R,0.079X0.020*%
%ADD29R,0.217X0.079*%
%ADD30R,0.059X0.051*%
%ADD31R,0.134X0.069*%
%ADD32R,0.041X0.069*%
%ADD33R,0.041X0.069*%
%ADD34R,0.047X0.024*%
%ADD35R,0.106X0.063*%
%ADD36R,0.079X0.114*%
%ADD37C,0.020*%
%ADD38C,0.012*%
%ADD39C,0.039*%
%ADD40C,0.008*%
%ADD41R,2.402X0.089*%
%ADD42R,0.089X2.411*%
%ADD43R,0.089X1.191*%
%ADD44C,0.098*%
%ADD45R,0.059X0.059*%
%ADD46C,0.059*%
%ADD47C,0.031*%
%ADD48C,0.039*%
%ADD49C,0.276*%
%ADD50C,0.035*%
%ADD51R,0.039X0.098*%
%ADD52C,0.010*%
%ADD53C,0.010*%
D11*
X1497Y1074D02*
D03*
X1423D02*
D03*
X1460Y972D02*
D03*
X1763Y949D02*
D03*
X1800Y1051D02*
D03*
X1837Y949D02*
D03*
X1639Y1069D02*
D03*
X1676Y967D02*
D03*
X1602D02*
D03*
D12*
X1910Y1252D02*
D03*
X1949D02*
D03*
X1871D02*
D03*
X1890D02*
D03*
X1969D02*
D03*
X2008D02*
D03*
X2067D02*
D03*
X2087D02*
D03*
X2067Y1713D02*
D03*
X2048D02*
D03*
X2028D02*
D03*
X2008D02*
D03*
X1989D02*
D03*
X1969D02*
D03*
X1949D02*
D03*
X1930D02*
D03*
X1910D02*
D03*
X1890D02*
D03*
X1871D02*
D03*
X2107D02*
D03*
X2126Y1252D02*
D03*
X2107D02*
D03*
X2028D02*
D03*
X2048D02*
D03*
X2166D02*
D03*
X2146D02*
D03*
X1989D02*
D03*
X1930D02*
D03*
X2146Y1713D02*
D03*
X2087D02*
D03*
X2166D02*
D03*
X2126D02*
D03*
D13*
X1788Y1374D02*
D03*
Y1492D02*
D03*
Y1512D02*
D03*
Y1354D02*
D03*
X2249Y1630D02*
D03*
Y1492D02*
D03*
Y1374D02*
D03*
X1788Y1335D02*
D03*
Y1473D02*
D03*
Y1453D02*
D03*
Y1532D02*
D03*
Y1551D02*
D03*
Y1571D02*
D03*
Y1591D02*
D03*
Y1610D02*
D03*
Y1414D02*
D03*
X2249Y1453D02*
D03*
Y1512D02*
D03*
Y1571D02*
D03*
Y1591D02*
D03*
X1788Y1630D02*
D03*
X2249Y1551D02*
D03*
Y1354D02*
D03*
X1788Y1433D02*
D03*
X2249D02*
D03*
Y1414D02*
D03*
X1788Y1394D02*
D03*
X2249Y1610D02*
D03*
Y1335D02*
D03*
Y1473D02*
D03*
Y1394D02*
D03*
Y1532D02*
D03*
D14*
X1767Y880D02*
D03*
X1507Y1140D02*
D03*
X1627Y1324D02*
D03*
X1573Y1140D02*
D03*
X1669Y2260D02*
D03*
X1735D02*
D03*
X973Y2531D02*
D03*
X907D02*
D03*
X1113D02*
D03*
X1047D02*
D03*
X2013Y2260D02*
D03*
X1419Y2325D02*
D03*
X1485D02*
D03*
X2022Y1866D02*
D03*
X2089D02*
D03*
X1560Y1324D02*
D03*
X1647Y1660D02*
D03*
X1663Y1804D02*
D03*
X1730D02*
D03*
X1488Y1407D02*
D03*
X1421D02*
D03*
X1730Y1864D02*
D03*
X1421Y1467D02*
D03*
X807Y1591D02*
D03*
X1289Y2121D02*
D03*
X1663Y1864D02*
D03*
X1488Y1467D02*
D03*
X740Y1591D02*
D03*
X1222Y2121D02*
D03*
X527Y1739D02*
D03*
Y1419D02*
D03*
X522Y1810D02*
D03*
X662D02*
D03*
X595D02*
D03*
X862Y2121D02*
D03*
X929D02*
D03*
X1947Y2260D02*
D03*
X1833Y880D02*
D03*
X2088Y2130D02*
D03*
X2021D02*
D03*
X1741D02*
D03*
X1808D02*
D03*
X1753Y600D02*
D03*
X1687D02*
D03*
X1733Y820D02*
D03*
X1667D02*
D03*
X1693Y1380D02*
D03*
X1627D02*
D03*
X1848Y1180D02*
D03*
X1781D02*
D03*
X455Y1810D02*
D03*
X460Y1739D02*
D03*
Y1419D02*
D03*
X1713Y1660D02*
D03*
D15*
X1680Y1533D02*
D03*
X1860Y733D02*
D03*
Y667D02*
D03*
X2180Y633D02*
D03*
Y327D02*
D03*
X653Y1425D02*
D03*
Y1492D02*
D03*
X1680Y1600D02*
D03*
X1802Y1868D02*
D03*
X1438Y1924D02*
D03*
Y1997D02*
D03*
X1802Y1801D02*
D03*
X1438Y2063D02*
D03*
X653Y1732D02*
D03*
X1438Y1857D02*
D03*
X1800Y733D02*
D03*
Y667D02*
D03*
X1680Y733D02*
D03*
Y667D02*
D03*
X1740Y733D02*
D03*
Y667D02*
D03*
X1600Y747D02*
D03*
Y813D02*
D03*
X1873Y1801D02*
D03*
Y1868D02*
D03*
X2145Y1801D02*
D03*
Y1868D02*
D03*
X1940Y1133D02*
D03*
Y1067D02*
D03*
X1966Y1801D02*
D03*
Y1868D02*
D03*
X2320Y1620D02*
D03*
Y1687D02*
D03*
X653Y1665D02*
D03*
X453Y1608D02*
D03*
Y1545D02*
D03*
Y1675D02*
D03*
Y1478D02*
D03*
X2180Y567D02*
D03*
Y393D02*
D03*
X760Y2033D02*
D03*
Y1967D02*
D03*
X215Y1463D02*
D03*
Y1530D02*
D03*
X393Y1478D02*
D03*
Y1545D02*
D03*
X593Y1425D02*
D03*
Y1492D02*
D03*
X1530Y1903D02*
D03*
Y1836D02*
D03*
X393Y1608D02*
D03*
Y1675D02*
D03*
X593Y1665D02*
D03*
Y1732D02*
D03*
X215Y1687D02*
D03*
Y1620D02*
D03*
D16*
X709Y1217D02*
D03*
Y1101D02*
D03*
Y2115D02*
D03*
Y2231D02*
D03*
D17*
X769Y1159D02*
D03*
Y2173D02*
D03*
X1443Y2393D02*
D03*
D18*
X1501Y2453D02*
D03*
X1385D02*
D03*
D19*
X2080Y1800D02*
D03*
X2300Y1780D02*
D03*
X1400Y1620D02*
D03*
X2252Y1839D02*
D03*
X1360Y2120D02*
D03*
X2323Y1520D02*
D03*
D20*
X1861Y83D02*
D03*
Y298D02*
D03*
X1510D02*
D03*
Y83D02*
D03*
D21*
X1685Y2510D02*
D03*
X2016D02*
D03*
X1685Y2333D02*
D03*
X2016D02*
D03*
D22*
X2006Y2421D02*
D03*
D23*
X1749Y309D02*
D03*
X1686D02*
D03*
X1654D02*
D03*
X1717D02*
D03*
X1623D02*
D03*
D24*
X2177Y2497D02*
D03*
Y2397D02*
D03*
X2240Y2497D02*
D03*
Y2397D02*
D03*
D25*
X2177Y2463D02*
D03*
Y2431D02*
D03*
X2240Y2463D02*
D03*
Y2431D02*
D03*
D26*
X2105Y328D02*
D03*
X2030D02*
D03*
X2105Y628D02*
D03*
X2030D02*
D03*
X1643Y1720D02*
D03*
X1417Y1547D02*
D03*
X670Y1579D02*
D03*
X596D02*
D03*
X1492Y1547D02*
D03*
X1717Y1720D02*
D03*
X1537Y1620D02*
D03*
X1463D02*
D03*
D27*
X1460Y886D02*
D03*
Y634D02*
D03*
X955Y887D02*
D03*
Y636D02*
D03*
D28*
X1276Y1568D02*
D03*
X889Y1468D02*
D03*
X1276Y1068D02*
D03*
Y1118D02*
D03*
Y1168D02*
D03*
Y1218D02*
D03*
Y1268D02*
D03*
Y1318D02*
D03*
Y1368D02*
D03*
Y1468D02*
D03*
Y1618D02*
D03*
Y1668D02*
D03*
Y1768D02*
D03*
X889Y1068D02*
D03*
Y1118D02*
D03*
Y1168D02*
D03*
Y1218D02*
D03*
Y1268D02*
D03*
Y1318D02*
D03*
Y1368D02*
D03*
Y1418D02*
D03*
Y1518D02*
D03*
Y1618D02*
D03*
Y1668D02*
D03*
Y1768D02*
D03*
Y1818D02*
D03*
X1276D02*
D03*
X889Y1568D02*
D03*
X1276Y1518D02*
D03*
Y1718D02*
D03*
Y1418D02*
D03*
X889Y1718D02*
D03*
D29*
X1243Y1981D02*
D03*
X908D02*
D03*
X2081Y2000D02*
D03*
X1747D02*
D03*
D30*
X1600Y677D02*
D03*
Y603D02*
D03*
D31*
X1208Y887D02*
D03*
D32*
X1299Y627D02*
D03*
X1208D02*
D03*
D33*
X1118Y627D02*
D03*
D34*
X1534Y1768D02*
D03*
Y1693D02*
D03*
X1416D02*
D03*
Y1731D02*
D03*
Y1768D02*
D03*
D35*
X753Y1787D02*
D03*
Y1677D02*
D03*
Y1374D02*
D03*
Y1484D02*
D03*
D36*
X914Y2280D02*
D03*
X1086D02*
D03*
M02*
